<svg width="8" height="10" viewBox="0 0 8 10" fill="none" xmlns="http://www.w3.org/2000/svg">
<path d="M8.00043 1.49265L8.00043 8.50931C8.00083 8.78632 7.92277 9.05779 7.77529 9.29228C7.62782 9.52677 7.41695 9.7147 7.16709 9.83431C6.87064 9.97434 6.54082 10.0283 6.2152 9.98997C5.88959 9.95166 5.58129 9.82265 5.32543 9.61765L1.07543 6.10931C0.916568 5.97163 0.789163 5.80141 0.701845 5.61019C0.614527 5.41896 0.569336 5.2112 0.569336 5.00098C0.569336 4.79076 0.614527 4.583 0.701845 4.39177C0.789163 4.20055 0.916568 4.03033 1.07543 3.89265L5.32543 0.384312C5.58129 0.179307 5.88959 0.0503001 6.2152 0.0119929C6.54082 -0.0263142 6.87064 0.0276199 7.16709 0.167647C7.41695 0.287265 7.62782 0.475196 7.77529 0.709685C7.92277 0.944175 8.00083 1.21564 8.00043 1.49265Z" fill="#CFAC28"/>
</svg>
