<svg width="20" height="20" viewBox="0 0 20 20" fill="none" xmlns="http://www.w3.org/2000/svg">
<path d="M8.33331 4.37508V4.58341H11.6666V4.37508C11.6666 3.93305 11.4911 3.50913 11.1785 3.19657C10.8659 2.88401 10.442 2.70841 9.99998 2.70841C9.55795 2.70841 9.13403 2.88401 8.82147 3.19657C8.50891 3.50913 8.33331 3.93305 8.33331 4.37508ZM7.29165 4.58341V4.37508C7.29165 3.65679 7.57699 2.96791 8.0849 2.46C8.59281 1.95209 9.28168 1.66675 9.99998 1.66675C10.7183 1.66675 11.4071 1.95209 11.9151 2.46C12.423 2.96791 12.7083 3.65679 12.7083 4.37508V4.58341H17.3958C17.5339 4.58341 17.6664 4.63829 17.7641 4.73596C17.8618 4.83364 17.9166 4.96611 17.9166 5.10425C17.9166 5.24238 17.8618 5.37486 17.7641 5.47253C17.6664 5.57021 17.5339 5.62508 17.3958 5.62508H16.1804L15.3471 15.5651C15.2837 16.3199 14.9392 17.0234 14.3816 17.5362C13.824 18.0489 13.0941 18.3335 12.3366 18.3334H7.66331C6.90589 18.3333 6.17614 18.0488 5.61865 17.536C5.06116 17.0233 4.71662 16.3198 4.65331 15.5651L3.81998 5.62508H2.60415C2.46601 5.62508 2.33354 5.57021 2.23586 5.47253C2.13819 5.37486 2.08331 5.24238 2.08331 5.10425C2.08331 4.96611 2.13819 4.83364 2.23586 4.73596C2.33354 4.63829 2.46601 4.58341 2.60415 4.58341H7.29165ZM5.69123 15.478C5.73271 15.9725 5.95844 16.4334 6.32369 16.7693C6.68894 17.1052 7.16707 17.2917 7.66331 17.2917H12.3366C12.833 17.2918 13.3112 17.1054 13.6765 16.7695C14.0419 16.4335 14.2677 15.9726 14.3091 15.478L15.135 5.62508H4.86498L5.69123 15.478ZM8.95831 8.43758C8.95831 8.36918 8.94484 8.30146 8.91867 8.23827C8.89249 8.17508 8.85413 8.11766 8.80576 8.0693C8.7574 8.02093 8.69998 7.98257 8.63679 7.95639C8.5736 7.93022 8.50588 7.91675 8.43748 7.91675C8.36908 7.91675 8.30136 7.93022 8.23817 7.95639C8.17497 7.98257 8.11756 8.02093 8.06919 8.0693C8.02083 8.11766 7.98247 8.17508 7.95629 8.23827C7.93012 8.30146 7.91665 8.36918 7.91665 8.43758V14.4792C7.91665 14.5476 7.93012 14.6154 7.95629 14.6786C7.98247 14.7418 8.02083 14.7992 8.06919 14.8475C8.11756 14.8959 8.17497 14.9343 8.23817 14.9604C8.30136 14.9866 8.36908 15.0001 8.43748 15.0001C8.50588 15.0001 8.5736 14.9866 8.63679 14.9604C8.69998 14.9343 8.7574 14.8959 8.80576 14.8475C8.85413 14.7992 8.89249 14.7418 8.91867 14.6786C8.94484 14.6154 8.95831 14.5476 8.95831 14.4792V8.43758ZM11.5625 7.91675C11.85 7.91675 12.0833 8.15008 12.0833 8.43758V14.4792C12.0833 14.6174 12.0284 14.7499 11.9308 14.8475C11.8331 14.9452 11.7006 15.0001 11.5625 15.0001C11.4243 15.0001 11.2919 14.9452 11.1942 14.8475C11.0965 14.7499 11.0416 14.6174 11.0416 14.4792V8.43758C11.0416 8.15008 11.275 7.91675 11.5625 7.91675Z" fill="#C11919"/>
</svg>
