<svg width="20" height="20" viewBox="0 0 20 20" fill="none" xmlns="http://www.w3.org/2000/svg">
<path fill-rule="evenodd" clip-rule="evenodd" d="M17.8791 4.51327C17.9583 4.63344 17.9936 4.77726 17.979 4.92043C17.9644 5.0636 17.9009 5.19735 17.7991 5.29911L10.1383 12.9591C10.0599 13.0374 9.96215 13.0935 9.85497 13.1216L6.66414 13.9549C6.55866 13.9824 6.44783 13.9819 6.34263 13.9533C6.23744 13.9248 6.14154 13.8692 6.06447 13.7921C5.98739 13.715 5.93181 13.6191 5.90325 13.5139C5.87468 13.4087 5.87413 13.2979 5.90164 13.1924L6.73497 10.0024C6.75989 9.90691 6.80572 9.8181 6.86914 9.74244L14.5583 2.05827C14.6755 1.94123 14.8343 1.87549 15 1.87549C15.1656 1.87549 15.3245 1.94123 15.4416 2.05827L17.7991 4.41494C17.8283 4.44564 17.855 4.47851 17.8791 4.51327ZM16.4733 4.85661L15 3.3841L7.90164 10.4824L7.38081 12.4766L9.37497 11.9558L16.4733 4.85661Z" fill="#454546"/>
<path d="M16.3675 14.3001C16.5953 12.3534 16.668 10.3916 16.585 8.4334C16.583 8.38725 16.5907 8.34119 16.6075 8.29815C16.6243 8.25512 16.6498 8.21604 16.6825 8.1834L17.5025 7.3634C17.5249 7.34086 17.5533 7.32528 17.5844 7.31852C17.6154 7.31176 17.6478 7.31411 17.6775 7.32528C17.7073 7.33646 17.7332 7.35599 17.7521 7.38153C17.771 7.40706 17.7821 7.43752 17.7842 7.46923C17.9381 9.79527 17.8795 12.1305 17.6092 14.4459C17.4125 16.1309 16.0592 17.4517 14.3817 17.6392C11.4694 17.9615 8.53055 17.9615 5.61832 17.6392C3.94166 17.4517 2.58749 16.1309 2.39082 14.4459C2.04591 11.492 2.04591 8.50809 2.39082 5.55423C2.58749 3.86923 3.94082 2.5484 5.61832 2.3609C7.8287 2.11677 10.0556 2.0574 12.2758 2.1834C12.3076 2.18568 12.3381 2.19702 12.3636 2.21607C12.3891 2.23513 12.4086 2.2611 12.4199 2.29091C12.4311 2.32073 12.4335 2.35313 12.4269 2.38429C12.4203 2.41545 12.4049 2.44406 12.3825 2.46673L11.555 3.2934C11.5226 3.32577 11.484 3.35113 11.4414 3.36791C11.3988 3.38468 11.3532 3.39251 11.3075 3.3909C9.45479 3.32744 7.59992 3.39846 5.75749 3.6034C5.21911 3.66299 4.71653 3.90233 4.33095 4.28277C3.94537 4.66321 3.6993 5.16253 3.63249 5.70006C3.29821 8.55699 3.29821 11.4431 3.63249 14.3001C3.6993 14.8376 3.94537 15.3369 4.33095 15.7174C4.71653 16.0978 5.21911 16.3371 5.75749 16.3967C8.55332 16.7092 11.4467 16.7092 14.2433 16.3967C14.7817 16.3371 15.2843 16.0978 15.6699 15.7174C16.0554 15.3369 16.3007 14.8376 16.3675 14.3001Z" fill="#454546"/>
</svg>
