<svg width="16" height="16" viewBox="0 0 16 16" fill="none" xmlns="http://www.w3.org/2000/svg">
<path d="M8.39599 15.5051L8.38799 15.5065L8.34066 15.5298L8.32733 15.5325L8.31799 15.5298L8.27066 15.5058C8.26355 15.504 8.25821 15.5054 8.25466 15.5098L8.25199 15.5165L8.24066 15.8018L8.24399 15.8151L8.25066 15.8238L8.31999 15.8731L8.32999 15.8758L8.33799 15.8731L8.40733 15.8238L8.41533 15.8131L8.41799 15.8018L8.40666 15.5171C8.40488 15.51 8.40133 15.506 8.39599 15.5051ZM8.57199 15.4298L8.56266 15.4311L8.43999 15.4931L8.43333 15.4998L8.43133 15.5071L8.44333 15.7938L8.44666 15.8018L8.45199 15.8071L8.58599 15.8685C8.59444 15.8707 8.60088 15.8689 8.60533 15.8631L8.60799 15.8538L8.58533 15.4445C8.5831 15.436 8.57866 15.4311 8.57199 15.4298ZM8.09533 15.4311C8.09239 15.4293 8.08888 15.4288 8.08552 15.4295C8.08217 15.4303 8.07923 15.4323 8.07733 15.4351L8.07333 15.4445L8.05066 15.8538C8.0511 15.8618 8.05488 15.8671 8.06199 15.8698L8.07199 15.8685L8.20599 15.8065L8.21266 15.8011L8.21466 15.7938L8.22666 15.5071L8.22466 15.4991L8.21799 15.4925L8.09533 15.4311Z" fill="#CFAC28"/>
<path d="M3.71087 8.87295L3.71056 8.87358L2.5659 11.1622C2.5659 11.1622 2.56589 11.1622 2.56589 11.1622C2.54811 11.1978 2.53971 11.2373 2.5415 11.2771C2.54328 11.3168 2.5552 11.3554 2.57611 11.3893C2.59703 11.4231 2.62624 11.451 2.66099 11.4704C2.69573 11.4898 2.73485 11.4999 2.77463 11.4999H2.7747H13.2254H13.2254C13.2652 11.4999 13.3043 11.4898 13.3391 11.4704C13.3738 11.451 13.403 11.4231 13.424 11.3893C13.4449 11.3554 13.4568 11.3168 13.4586 11.2771C13.4604 11.2373 13.452 11.1978 13.4342 11.1622L13.4341 11.1621L12.2904 8.87395L3.71087 8.87295ZM3.71087 8.87295C3.79153 8.71111 3.83346 8.53274 3.83337 8.35192L3.71087 8.87295ZM12.1667 8.35245V8.35192V5.99992C12.1667 4.89485 11.7277 3.83504 10.9463 3.05364C10.1649 2.27224 9.1051 1.83325 8.00003 1.83325C6.89497 1.83325 5.83516 2.27224 5.05376 3.05364C4.27236 3.83504 3.83337 4.89485 3.83337 5.99992V8.35175L12.1667 8.35245ZM12.1667 8.35245C12.1669 8.53335 12.2092 8.71172 12.2901 8.87347L12.1667 8.35245ZM7.05618 13.1666H8.94389C8.91888 13.1868 8.89317 13.2062 8.86679 13.2249C8.61336 13.404 8.31062 13.5001 8.0003 13.4999H7.99977C7.68945 13.5001 7.38671 13.404 7.13328 13.2249C7.1069 13.2062 7.08119 13.1868 7.05618 13.1666Z" fill="#CFAC28" stroke="#CFAC28"/>
</svg>
