<svg width="14" height="10" viewBox="0 0 14 10" fill="none" xmlns="http://www.w3.org/2000/svg">
<path d="M13.3939 4.39396H2.06904L4.77133 1.6915C5.00806 1.4549 5.00806 1.0711 4.77133 0.834536C4.53459 0.597798 4.15078 0.597798 3.9144 0.834536L0.177553 4.57145C-0.0591844 4.80805 -0.0591844 5.19189 0.177553 5.42841L3.9144 9.1655C4.03273 9.28391 4.18781 9.34302 4.34286 9.34302C4.49791 9.34302 4.65299 9.28391 4.77133 9.1655C5.00806 8.9289 5.00806 8.5451 4.77133 8.30857L2.06904 5.60597H13.3939C13.7286 5.60597 14 5.33462 14 4.99995C14 4.66528 13.7286 4.39396 13.3939 4.39396Z" fill="#636364"/>
</svg>
