<svg width="10" height="8" viewBox="0 0 10 8" fill="none" xmlns="http://www.w3.org/2000/svg">
<path d="M1.49265 6.21986e-05L8.50931 6.2812e-05C8.78632 -0.000338184 9.05779 0.0777172 9.29228 0.225195C9.52677 0.372673 9.7147 0.583542 9.83431 0.833396C9.97434 1.12985 10.0283 1.45967 9.98997 1.78529C9.95166 2.1109 9.82265 2.4192 9.61765 2.67506L6.10931 6.92506C5.97163 7.08392 5.80141 7.21133 5.61019 7.29864C5.41896 7.38596 5.2112 7.43115 5.00098 7.43115C4.79076 7.43115 4.583 7.38596 4.39177 7.29864C4.20055 7.21133 4.03033 7.08392 3.89265 6.92506L0.384312 2.67506C0.179307 2.4192 0.0503001 2.1109 0.0119929 1.78529C-0.0263142 1.45967 0.0276199 1.12985 0.167647 0.833395C0.287265 0.583541 0.475196 0.372672 0.709685 0.225195C0.944175 0.0777165 1.21564 -0.000338846 1.49265 6.21986e-05Z" fill="#454546"/>
</svg>
