<svg width="20" height="20" viewBox="0 0 20 20" fill="none" xmlns="http://www.w3.org/2000/svg">
<path d="M10.8333 7.01133V11.713C10.8333 11.934 10.7455 12.146 10.5893 12.3022C10.433 12.4585 10.221 12.5463 10 12.5463C9.77899 12.5463 9.56702 12.4585 9.41074 12.3022C9.25446 12.146 9.16667 11.934 9.16667 11.713V7.01133L8.2325 7.94633C8.07602 8.10269 7.86384 8.1905 7.64262 8.19042C7.42141 8.19034 7.20928 8.10239 7.05292 7.94591C6.89655 7.78943 6.80875 7.57725 6.80882 7.35603C6.8089 7.13482 6.89686 6.92269 7.05333 6.76633L9.41083 4.41049C9.56711 4.25427 9.77903 4.1665 10 4.1665C10.221 4.1665 10.4329 4.25427 10.5892 4.41049L12.9467 6.76716C13.0241 6.84464 13.0855 6.93661 13.1274 7.03782C13.1693 7.13903 13.1908 7.2475 13.1908 7.35704C13.1907 7.46657 13.1691 7.57503 13.1272 7.67621C13.0852 7.77739 13.0237 7.86932 12.9462 7.94674C12.8688 8.02417 12.7768 8.08557 12.6756 8.12745C12.5744 8.16934 12.4659 8.19087 12.3564 8.19083C12.2468 8.19079 12.1384 8.16918 12.0372 8.12723C11.936 8.08528 11.8441 8.02381 11.7667 7.94633L10.8333 7.01133ZM5 14.1663H15C15.221 14.1663 15.433 14.2541 15.5893 14.4104C15.7455 14.5667 15.8333 14.7786 15.8333 14.9997C15.8333 15.2207 15.7455 15.4326 15.5893 15.5889C15.433 15.7452 15.221 15.833 15 15.833H5C4.77899 15.833 4.56702 15.7452 4.41074 15.5889C4.25446 15.4326 4.16667 15.2207 4.16667 14.9997C4.16667 14.7786 4.25446 14.5667 4.41074 14.4104C4.56702 14.2541 4.77899 14.1663 5 14.1663Z" fill="#EC9C25"/>
</svg>
