<svg width="57" height="57" viewBox="0 0 57 57" fill="none" xmlns="http://www.w3.org/2000/svg">
<circle cx="28.045" cy="28.045" r="27.6474" fill="#03356F" stroke="#F7CC2D" stroke-width="0.795108"/>
<path d="M20.8184 38.7095L20.9076 38.6523L20.9846 38.6977C21.0179 38.9701 21.0392 39.2435 21.0486 39.5177C21.058 39.792 21.0554 40.0662 21.0407 40.3403C20.9551 39.7985 20.8909 39.2532 20.8184 38.7095Z" fill="#0EC2E6"/>
<path d="M19.506 34.6611C19.6565 34.9656 19.84 35.2521 19.99 35.5567C20.4671 36.5253 20.8397 37.626 20.9841 38.698L20.9072 38.6526L20.8179 38.7098C20.6381 37.766 20.348 36.764 19.9328 35.8951C19.7478 35.5079 19.4292 35.1005 19.3169 34.6911C19.3762 34.6746 19.4448 34.6704 19.506 34.6611Z" fill="#0480C6"/>
<path d="M27.9717 24.6275C28.0632 24.6236 28.1573 24.6238 28.2479 24.6108C28.5555 25.0592 28.8003 25.5314 29.0385 26.0187C29.8964 27.7739 30.4081 29.7177 30.2333 31.6824C29.9768 30.0074 29.7514 28.3228 29.0838 26.7507C28.773 26.0189 28.3732 25.3126 27.9717 24.6275Z" fill="#E1F8FC"/>
<path d="M20.5288 19.4624C20.6861 19.4514 20.8504 19.4412 21.0012 19.4948C21.2344 19.5777 21.4228 19.7483 21.5201 19.9771C21.6074 20.1824 21.6123 20.4079 21.5258 20.6144C21.4105 20.8893 21.1964 21.0317 20.9305 21.1353C20.757 21.1622 20.5892 21.1604 20.4224 21.0989C20.2104 21.0207 20.0485 20.8564 19.9581 20.651C19.8617 20.4317 19.8538 20.1815 19.951 19.9611C20.0671 19.6979 20.2704 19.5652 20.5288 19.4624Z" fill="#EBB331"/>
<path d="M26.0313 42.0923C26.0565 42.2708 25.754 43.1284 25.7023 43.3833C25.4019 44.8616 25.4526 46.084 25.6832 47.5614C25.7345 47.8906 25.9143 48.5818 25.9137 48.8749C25.9274 48.9132 25.9441 48.9538 25.953 48.9937C25.9662 49.0529 25.9729 49.0892 25.9376 49.1408C25.6579 48.9446 25.1167 47.6941 25.0408 47.3569C24.6444 45.5955 25.1008 43.616 26.0313 42.0923Z" fill="#0EC2E6"/>
<path d="M33.2993 23.1323C33.5544 23.1204 33.8028 23.1413 34.0335 23.2614C34.3269 23.4143 34.5302 23.6989 34.6158 24.0149C34.7071 24.3515 34.6683 24.7301 34.4814 25.028C34.2837 25.343 33.9788 25.5036 33.6248 25.5777C33.3506 25.5875 33.0948 25.5631 32.8515 25.4252C32.834 25.4154 32.8169 25.4051 32.8001 25.3944C32.7832 25.3836 32.7667 25.3725 32.7504 25.3609C32.7341 25.3493 32.7181 25.3373 32.7025 25.3249C32.6868 25.3125 32.6715 25.2996 32.6565 25.2864C32.6415 25.2732 32.6268 25.2596 32.6125 25.2456C32.5983 25.2316 32.5843 25.2173 32.5708 25.2027C32.5573 25.188 32.5441 25.1729 32.5313 25.1575C32.5186 25.1422 32.5062 25.1265 32.4943 25.1104C32.4823 25.0944 32.4708 25.0781 32.4597 25.0615C32.4486 25.0449 32.438 25.028 32.4277 25.0108C32.4175 24.9936 32.4077 24.9762 32.3984 24.9585C32.3891 24.9408 32.3802 24.9229 32.3718 24.9048C32.3634 24.8867 32.3555 24.8683 32.3481 24.8498C32.3406 24.8312 32.3337 24.8125 32.3272 24.7936C32.3208 24.7747 32.3148 24.7556 32.3093 24.7364C32.3038 24.7172 32.2988 24.6978 32.2943 24.6784C32.2125 24.334 32.2566 23.9604 32.4548 23.6632C32.657 23.3599 32.9497 23.2016 33.2993 23.1323Z" fill="#EBB331"/>
<path d="M16.9766 38.2583C17.6585 38.6182 18.0774 38.6069 18.7883 38.7874C19.8865 39.0664 20.5016 40.4007 20.8041 41.39C20.9433 41.8453 20.9582 42.3368 21.0481 42.8046C21.3336 44.2888 21.8719 45.5344 22.7756 46.7469L22.6801 46.7404C22.4706 46.6165 22.3049 46.3704 22.1532 46.1835C21.269 45.0933 20.6439 43.8622 20.0031 42.6204C19.7004 42.0339 19.418 41.4463 19.0528 40.8948C18.6517 40.2892 18.2329 39.7248 17.7564 39.177C17.5145 38.8988 17.1567 38.5973 16.9634 38.2966L16.9766 38.2583Z" fill="#EC9C25"/>
<path d="M38.2125 15.7764C38.7869 15.7976 39.2922 15.9498 39.7471 16.3104C39.7775 16.3344 39.8072 16.3592 39.8363 16.3848C39.8654 16.4103 39.8938 16.4365 39.9216 16.4635C39.9494 16.4904 39.9765 16.5181 40.0029 16.5464C40.0293 16.5747 40.0549 16.6037 40.0799 16.6333C40.1048 16.6628 40.129 16.6931 40.1524 16.7239C40.1759 16.7547 40.1985 16.7861 40.2204 16.818C40.2422 16.85 40.2633 16.8825 40.2835 16.9154C40.3037 16.9484 40.3231 16.9819 40.3417 17.0159C40.3603 17.0499 40.3779 17.0843 40.3948 17.1191C40.4116 17.154 40.4275 17.1893 40.4426 17.225C40.4577 17.2606 40.4718 17.2966 40.4851 17.333C40.4983 17.3693 40.5107 17.406 40.5221 17.443C40.5335 17.48 40.5439 17.5173 40.5535 17.5548C40.5631 17.5923 40.5717 17.63 40.5793 17.6679C40.587 17.7059 40.5937 17.744 40.5994 17.7823C40.6052 17.8206 40.61 17.859 40.6138 17.8975C40.6797 18.5199 40.4848 19.1941 40.0848 19.6771C39.6297 20.2266 39.0975 20.43 38.4043 20.4981C37.8127 20.5074 37.2544 20.3703 36.7953 19.9838C36.7647 19.9585 36.7348 19.9324 36.7055 19.9056C36.6762 19.8788 36.6476 19.8512 36.6197 19.823C36.5918 19.7947 36.5646 19.7658 36.5381 19.7362C36.5116 19.7066 36.4858 19.6763 36.4609 19.6455C36.4359 19.6146 36.4117 19.5831 36.3883 19.551C36.3649 19.5189 36.3423 19.4863 36.3205 19.4531C36.2987 19.4199 36.2778 19.3862 36.2577 19.3519C36.2375 19.3177 36.2183 19.2829 36.1999 19.2477C36.1815 19.2125 36.164 19.1768 36.1474 19.1408C36.1308 19.1047 36.1151 19.0682 36.1003 19.0313C36.0855 18.9945 36.0717 18.9573 36.0587 18.9197C36.0458 18.8822 36.0338 18.8444 36.0228 18.8062C36.0117 18.768 36.0016 18.7296 35.9924 18.691C35.9833 18.6523 35.9751 18.6135 35.9679 18.5744C35.9607 18.5354 35.9544 18.4962 35.9492 18.4568C35.9439 18.4174 35.9397 18.3779 35.9364 18.3383C35.8827 17.6984 36.1355 17.0328 36.5528 16.5514C36.9995 16.0359 37.5467 15.8265 38.2125 15.7764Z" fill="#EBB331"/>
<path d="M16.3843 12.4756C16.9309 12.434 17.5065 12.5968 17.943 12.9299C18.4352 13.3055 18.7802 13.9064 18.8559 14.5213C18.9331 15.1482 18.7694 15.8076 18.3778 16.307C17.9519 16.8501 17.3566 17.1191 16.6843 17.1994C16.1167 17.2106 15.5351 17.0776 15.0809 16.7239C14.6042 16.3528 14.2554 15.7333 14.1811 15.1345C14.1043 14.5159 14.3173 13.8805 14.698 13.3943C15.1197 12.8559 15.7127 12.5566 16.3843 12.4756Z" fill="#0EC2E6"/>
<path d="M37.8138 35.1938C37.821 35.2015 37.8298 35.2079 37.8356 35.2166C37.8939 35.3042 37.9151 35.4768 37.9378 35.579C37.9592 35.679 37.978 35.7795 37.9941 35.8805C38.0103 35.9815 38.0237 36.083 38.0345 36.1848C38.0452 36.2865 38.0533 36.3886 38.0586 36.4908C38.064 36.593 38.0666 36.6953 38.0665 36.7978C38.0665 36.9001 38.0637 37.0024 38.0582 37.1047C38.0527 37.2069 38.0445 37.3089 38.0336 37.4107C38.0227 37.5125 38.0091 37.6138 37.9928 37.7148C37.9765 37.8159 37.9576 37.9163 37.936 38.0163C37.7815 38.7065 37.446 39.3731 37.0324 39.9363C36.2759 40.9661 35.1228 41.6865 33.9275 42.0477C33.4147 42.2028 32.8889 42.3004 32.3882 42.4983C31.7612 42.7459 31.1741 43.1131 30.6474 43.5398C29.9677 44.0906 29.4056 44.8341 28.876 45.5315C28.6761 45.7948 28.2221 46.5495 28.0112 46.6856L28.0399 46.6328C29.1784 44.8285 29.6703 43.0984 31.3698 41.6703C31.8208 41.2975 32.2867 40.9456 32.7676 40.6148C33.2282 40.2986 33.7021 40.0005 34.1326 39.6408C34.6596 39.2003 35.1305 38.6316 35.3431 37.9583C35.6086 37.1177 35.3821 36.6758 35.0152 35.9333C35.9189 35.6063 36.877 35.3944 37.8138 35.1938Z" fill="#0EC2E6"/>
<path d="M26.0315 42.0924C26.185 41.7851 26.4156 41.5011 26.6201 41.2251C28.1269 39.1915 30.4704 37.6581 32.7849 36.689C33.1053 37.691 32.9981 38.4177 32.5141 39.3493C31.9928 40.353 31.095 40.9678 30.2987 41.7258C29.7471 42.251 29.1983 42.8566 28.7607 43.4793C27.9707 44.6034 27.6316 45.8823 27.0462 47.1033C26.7396 47.743 26.3428 48.3134 25.9138 48.875C25.9145 48.5819 25.7347 47.8907 25.6833 47.5615C25.4528 46.0841 25.4021 44.8617 25.7025 43.3834C25.7542 43.1285 26.0567 42.271 26.0315 42.0924Z" fill="#0480C6"/>
<path d="M29.2841 30.0586C30.1291 32.228 30.0816 34.486 29.1434 36.6173C28.6809 37.668 28.0185 38.6683 27.3233 39.5791C27.03 39.9633 26.7035 40.3207 26.4156 40.7094C25.459 42.0012 24.7344 43.5237 24.5601 45.1352C24.4562 46.0958 24.5407 47.0695 24.8951 47.9733C24.96 48.1428 25.0354 48.3075 25.1212 48.4674C25.207 48.6273 25.3026 48.7812 25.4079 48.929C25.0717 48.643 24.7788 48.3153 24.46 48.0112C24.2328 47.7944 23.9525 47.5918 23.758 47.3472C23.7226 47.1622 23.5768 46.9389 23.4959 46.7613C23.3424 46.4245 23.2201 46.0697 23.1542 45.7047C22.6282 42.7919 23.4708 40.2736 25.2692 37.9944C26.3156 36.6683 27.4456 35.4435 28.1988 33.9138C28.55 33.2006 28.8498 32.4017 29.0256 31.6258C29.0977 31.3078 29.1525 30.2501 29.2841 30.0586Z" fill="#0480C6"/>
<path d="M11.8776 33.1621C12.8551 33.6244 13.8924 34.0368 14.938 34.3162C14.9335 34.6712 14.9562 35.0209 15.0263 35.3694C15.2746 36.6033 15.9305 37.5627 16.9768 38.2587L16.9635 38.297C17.1569 38.5977 17.5146 38.8993 17.7566 39.1774C18.2331 39.7252 18.6519 40.2896 19.053 40.8952C19.4182 41.4467 19.7006 42.0343 20.0032 42.6208C20.6441 43.8626 21.2691 45.0937 22.1534 46.1839C22.305 46.3708 22.4708 46.617 22.6802 46.7408L22.7758 46.7473C22.8771 46.8298 22.9737 46.9751 23.0619 47.0759C23.2277 47.267 23.4005 47.4517 23.5803 47.6297C23.1894 47.4122 22.7896 47.1547 22.4494 46.8653C22.1316 46.5951 21.8559 46.2851 21.5778 45.9756C20.2781 44.5294 19.3619 42.9438 17.6206 41.9452C17.0245 41.6034 16.4176 41.4079 15.7784 41.1767C14.2035 40.6071 12.7532 39.374 12.0408 37.846C11.3351 36.3323 11.3146 34.7201 11.8776 33.1621Z" fill="#F7CC2D"/>
<path d="M29.6386 36.6924C29.827 36.6328 30.6493 35.6338 30.8968 35.4033C31.7809 34.5798 32.8749 33.8972 33.9474 33.3502C35.0094 32.8084 36.0817 32.3608 37.2191 32.0016C39.9436 31.1411 42.7975 30.702 45.4631 29.647C45.6951 29.5548 45.9241 29.4558 46.1501 29.35C46.3761 29.2441 46.5988 29.1316 46.8181 29.0124C47.0374 28.8932 47.2529 28.7676 47.4647 28.6355C47.6765 28.5034 47.8842 28.3651 48.0876 28.2206C48.4094 27.9968 48.9675 27.4135 49.3164 27.3394C48.4637 29.6455 46.6329 31.3505 44.4258 32.3573C42.8519 33.0753 41.1961 33.3791 39.5307 33.7904C36.3049 34.5872 33.1512 35.5558 30.3285 37.3684C29.6667 37.7934 29.0396 38.2765 28.4175 38.7568C28.6895 38.3312 28.9506 37.8991 29.2007 37.4603C29.3389 37.2182 29.4717 36.9102 29.6386 36.6924Z" fill="#EC9C25"/>
<path d="M36.6548 28.3847C38.1757 26.8608 37.7196 24.579 38.6732 22.7701C38.6977 22.7237 38.7227 22.6777 38.7483 22.632C38.7739 22.5863 38.8 22.5409 38.8267 22.4958C38.8534 22.4507 38.8806 22.4059 38.9084 22.3615C38.9362 22.317 38.9645 22.2729 38.9934 22.2292C39.0223 22.1855 39.0517 22.1421 39.0816 22.0991C39.1115 22.0561 39.1419 22.0134 39.1729 21.9711C39.2039 21.9289 39.2353 21.887 39.2673 21.8455C39.2993 21.8039 39.3318 21.7628 39.3648 21.7221C39.3978 21.6814 39.4312 21.6411 39.4652 21.6012C39.4992 21.5613 39.5336 21.5219 39.5686 21.4828C39.6035 21.4437 39.6389 21.4051 39.6748 21.3669C39.7107 21.3287 39.747 21.291 39.7838 21.2536C39.8206 21.2164 39.8579 21.1795 39.8955 21.1431C39.9333 21.1067 39.9714 21.0708 40.0099 21.0353C40.0485 20.9999 40.0876 20.9649 40.127 20.9304C40.1664 20.8958 40.2063 20.8618 40.2465 20.8283C40.2868 20.7948 40.3274 20.7617 40.3685 20.7292C40.4096 20.6966 40.451 20.6646 40.4929 20.633C40.5347 20.6015 40.5769 20.5705 40.6195 20.5399C40.6622 20.5094 40.7052 20.4795 40.7485 20.45C40.7918 20.4206 40.8355 20.3917 40.8796 20.3632C40.9236 20.3349 40.968 20.307 41.0127 20.2797C41.0574 20.2524 41.1025 20.2256 41.1478 20.1994C41.1933 20.1732 41.2389 20.1476 41.2849 20.1225C41.3309 20.0974 41.3772 20.0728 41.4238 20.0489C41.4704 20.0249 41.5173 20.0016 41.5645 19.9788C41.6117 19.9559 41.6591 19.9336 41.7068 19.912C41.7545 19.8904 41.8025 19.8693 41.8508 19.8488C41.899 19.8283 41.9475 19.8084 41.9962 19.7891C42.0449 19.7698 42.0938 19.7511 42.143 19.733C42.1922 19.7149 42.2416 19.6974 42.2912 19.6805C42.3408 19.6636 42.3906 19.6472 42.4406 19.6316C43.8354 19.1993 45.4453 19.3638 46.7335 20.0407C46.5852 20.652 46.52 21.2607 46.3149 21.8628C45.6502 23.8133 43.9896 25.2105 42.2848 26.2523C40.8876 27.1061 39.3603 27.6514 37.7907 28.0938C37.427 28.1963 37.0283 28.3344 36.6548 28.3847Z" fill="#EC9C25"/>
<path d="M46.7337 20.0405C48.1233 20.8104 49.0744 21.7952 49.518 23.3564C49.8997 24.6999 49.7516 26.0289 49.3169 27.3389C48.968 27.4131 48.4099 27.9964 48.0882 28.2202C47.8847 28.3647 47.677 28.503 47.4652 28.635C47.2534 28.7671 47.0379 28.8928 46.8186 29.012C46.5993 29.1312 46.3767 29.2437 46.1506 29.3495C45.9246 29.4554 45.6956 29.5544 45.4637 29.6466C42.798 30.7016 39.9441 31.1407 37.2196 32.0012C36.0822 32.3604 35.0099 32.808 33.9479 33.3498C32.8754 33.8968 31.7814 34.5794 30.8973 35.4029C30.6498 35.6334 29.8275 36.6324 29.6392 36.692C30.3604 35.0554 30.7604 33.6682 30.8741 31.8747C31.0992 31.5439 31.4084 31.2489 31.695 30.971C33.116 29.5934 34.7536 28.8545 36.6549 28.3846C37.0285 28.3343 37.4272 28.1962 37.7908 28.0937C39.3604 27.6513 40.8877 27.1059 42.2849 26.2522C43.9898 25.2103 45.6503 23.8131 46.315 21.8626C46.5202 21.2606 46.5853 20.6519 46.7337 20.0405Z" fill="#F7CC2D"/>
<path d="M9.31668 20.3672C9.31454 20.3747 9.31257 20.3822 9.3102 20.3897C9.23761 20.6195 9.05589 20.8301 8.93875 21.0413C8.87253 21.1609 8.82673 21.2989 8.77761 21.4267C8.12788 23.1164 8.21586 24.8542 9.02092 26.4747C9.90319 28.2505 11.462 29.498 13.3307 30.1176C14.8252 30.613 16.4778 30.5667 17.89 29.8447C18.6977 29.4318 19.2211 28.807 19.4967 27.9411C19.7562 27.1257 19.9161 26.1694 20.6126 25.5966C21.1664 28.0547 20.794 30.7323 20.059 33.1124C19.8974 33.6354 19.6955 34.1477 19.5062 34.6613C19.445 34.6706 19.3763 34.6747 19.3171 34.6913C19.2969 34.691 19.2766 34.6907 19.2564 34.6892C15.7651 34.423 10.8082 32.8081 8.52928 30.0425C7.30917 28.5619 6.81703 26.6304 7.00371 24.7353C7.0089 24.6828 7.01473 24.6303 7.02119 24.5779C7.02766 24.5255 7.03477 24.4732 7.04251 24.4209C7.05026 24.3687 7.05864 24.3165 7.06767 24.2645C7.07665 24.2125 7.08628 24.1606 7.09654 24.1088C7.10681 24.057 7.11771 24.0053 7.12926 23.9538C7.14076 23.9022 7.15291 23.8508 7.16569 23.7996C7.17844 23.7483 7.19182 23.6973 7.20585 23.6464C7.21984 23.5954 7.23446 23.5447 7.24973 23.4942C7.26496 23.4436 7.2808 23.3932 7.29727 23.343C7.31374 23.2929 7.33081 23.2429 7.34848 23.1932C7.36616 23.1434 7.38443 23.0938 7.40331 23.0445C7.42218 22.9952 7.44166 22.9461 7.46174 22.8973C7.48182 22.8485 7.50248 22.7999 7.52372 22.7515C7.54496 22.7032 7.56679 22.6551 7.5892 22.6073C7.61165 22.5595 7.63464 22.5119 7.65818 22.4647C7.68175 22.4174 7.70591 22.3705 7.73065 22.3238C7.75536 22.2771 7.78062 22.2307 7.80645 22.1847C7.83229 22.1387 7.85868 22.0929 7.88564 22.0475C7.91256 22.0021 7.94005 21.957 7.9681 21.9123C7.99615 21.8675 8.02472 21.8231 8.05383 21.7791C8.08297 21.735 8.11261 21.6913 8.14277 21.648C8.17296 21.6047 8.20368 21.5617 8.23493 21.5191C8.26614 21.4765 8.29787 21.4343 8.33013 21.3925C8.36235 21.3507 8.3951 21.3093 8.42838 21.2682C8.46162 21.2272 8.49536 21.1866 8.52962 21.1464C8.56383 21.1062 8.59856 21.0664 8.63379 21.0271C8.66898 20.9877 8.70465 20.9488 8.74078 20.9103C8.77695 20.8718 8.81357 20.8337 8.85065 20.7961C8.88772 20.7585 8.92525 20.7214 8.96322 20.6847C9.0012 20.648 9.03961 20.6117 9.07845 20.576C9.11729 20.5402 9.15658 20.505 9.19633 20.4702C9.23603 20.4354 9.27615 20.401 9.31668 20.3672Z" fill="#0480C6"/>
<path d="M27.9716 24.6276C27.7324 24.3382 27.4001 24.0883 27.1217 23.8342C26.6584 23.4066 26.2007 22.9732 25.7484 22.534C23.7714 20.6158 21.7819 17.8078 21.5616 14.9829C21.4142 13.0927 21.8513 11.4643 23.1039 10.014C23.1392 9.97362 23.175 9.93369 23.2113 9.89421C23.2476 9.85473 23.2844 9.81569 23.3216 9.77707C23.3589 9.73846 23.3966 9.70031 23.4348 9.66263C23.473 9.62496 23.5116 9.58775 23.5507 9.55102C23.5898 9.51428 23.6293 9.47804 23.6693 9.44228C23.7093 9.40652 23.7497 9.37123 23.7905 9.33642C23.8313 9.30164 23.8726 9.26736 23.9143 9.2336C23.9559 9.19983 23.998 9.16657 24.0405 9.13382C24.083 9.10108 24.1259 9.06883 24.1692 9.0371C24.2124 9.0054 24.256 8.97423 24.3001 8.94359C24.3441 8.91294 24.3885 8.88284 24.4333 8.85329C24.4781 8.82374 24.5232 8.79475 24.5686 8.76632C24.6141 8.73786 24.6599 8.70996 24.7061 8.68262C24.7522 8.65529 24.7987 8.62852 24.8455 8.60231C24.8923 8.5761 24.9395 8.55048 24.9869 8.52544C25.0343 8.50036 25.0821 8.47588 25.1301 8.452C25.1781 8.42813 25.2264 8.40483 25.2751 8.38212C25.3236 8.35941 25.3725 8.3373 25.4216 8.3158C25.4708 8.29425 25.5202 8.27333 25.5698 8.25302C25.6195 8.23272 25.6694 8.21302 25.7195 8.19392C25.7696 8.17481 25.82 8.15633 25.8705 8.13847C25.9211 8.12061 25.9719 8.10337 26.0229 8.08676C26.0739 8.07014 26.1251 8.05414 26.1765 8.03876C26.2279 8.02338 26.2795 8.00862 26.3312 7.99448C26.383 7.98038 26.4349 7.9669 26.487 7.95404C26.5391 7.94119 26.5913 7.92899 26.6437 7.91744C26.696 7.90586 26.7485 7.89492 26.8012 7.88462C26.8538 7.87431 26.9066 7.86467 26.9595 7.85568C27.0124 7.84666 27.0653 7.83829 27.1184 7.83058C27.1715 7.82288 27.2247 7.81581 27.2779 7.80938C27.3312 7.80295 27.3846 7.79718 27.4379 7.79206C27.4913 7.78695 27.5448 7.78249 27.5983 7.7787C27.68 7.77932 27.7916 7.76606 27.8634 7.80267C27.6136 7.96628 27.3434 8.11022 27.1025 8.28489C25.7633 9.25565 24.8952 10.5855 24.5628 12.2055C24.2205 13.8739 24.5672 15.735 25.5181 17.1513C26.4084 18.4774 27.7459 19.403 29.3181 19.7075C30.593 19.9545 31.6656 19.754 32.8124 19.1849C31.9608 20.7136 30.4955 22.3786 29.2635 23.6311C28.9336 23.9665 28.6158 24.316 28.2478 24.611C28.1572 24.6239 28.0631 24.6238 27.9716 24.6276Z" fill="#D8F1FF"/>
<path d="M21.0967 25.4659C22.3757 25.0284 23.8823 25.1885 25.1119 25.7064C26.9685 26.4883 28.526 28.2141 29.2847 30.0586C29.1531 30.2502 29.0983 31.3078 29.0262 31.6258C28.8504 32.4018 28.5506 33.2006 28.1994 33.9139C27.4462 35.4435 26.3162 36.6684 25.2698 37.9944C23.4714 40.2736 22.6288 42.7919 23.1548 45.7047C23.2207 46.0697 23.343 46.4246 23.4965 46.7614C23.5774 46.9389 23.7232 47.1622 23.7587 47.3473C23.6976 47.2964 23.6438 47.2428 23.5907 47.1838C22.0502 45.4698 21.2208 43.2669 21.3521 40.961C21.4281 39.6255 21.8729 37.7586 22.7137 36.6925C22.9442 36.4001 23.2454 36.1834 23.5203 35.936C24.2934 35.2402 24.6659 34.3254 24.7197 33.2909C24.7832 32.0701 24.4453 30.7056 23.6017 29.7877C23.5658 29.7493 23.529 29.7119 23.4913 29.6752C23.4536 29.6386 23.415 29.603 23.3756 29.5683C23.3362 29.5336 23.2959 29.4998 23.2549 29.4671C23.2138 29.4343 23.172 29.4025 23.1294 29.3717C23.0868 29.341 23.0435 29.3113 22.9995 29.2826C22.9554 29.254 22.9107 29.2264 22.8653 29.1999C22.82 29.1734 22.774 29.1481 22.7274 29.1238C22.6808 29.0995 22.6336 29.0764 22.5859 29.0544C22.5382 29.0324 22.4899 29.0116 22.4412 28.9919C22.3925 28.9723 22.3433 28.9539 22.2937 28.9366C22.2441 28.9193 22.1941 28.9033 22.1437 28.8884C22.0933 28.8736 22.0425 28.86 21.9915 28.8476C21.9404 28.8351 21.8891 28.824 21.8375 28.8141C21.7859 28.8042 21.7341 28.7955 21.6821 28.7882C21.6301 28.7808 21.5779 28.7746 21.5256 28.7697C21.4733 28.7648 21.4209 28.7612 21.3684 28.7589C21.3891 27.6196 21.3329 26.5818 21.0967 25.4659Z" fill="#0EC2E6"/>
<path d="M27.5979 7.77856C29.0068 7.6159 30.8288 8.23179 31.9309 9.10317C33.3015 10.1867 34.2233 11.9637 34.4194 13.693C34.614 15.4092 34.2084 16.6775 33.4061 18.1546C33.2211 18.4953 33.0357 18.8683 32.8121 19.1847C31.6653 19.7538 30.5926 19.9544 29.3177 19.7074C27.7456 19.4028 26.4081 18.4772 25.5177 17.1512C24.5668 15.7349 24.2202 13.8738 24.5625 12.2054C24.8948 10.5853 25.763 9.25551 27.1021 8.28475C27.3431 8.11008 27.6133 7.96615 27.8631 7.80253C27.7912 7.76593 27.6796 7.77918 27.5979 7.77856Z" fill="#E1F8FC"/>
<path d="M9.31622 20.367C9.53782 20.1545 9.81993 19.9861 10.0858 19.8357C11.1453 19.2362 12.3179 18.9241 13.5372 18.9536C15.4485 18.9998 17.2174 19.871 18.5217 21.253C19.3772 22.1595 19.9768 23.3236 20.3341 24.5126C20.441 24.8683 20.4943 25.2469 20.6121 25.5964C19.9156 26.1692 19.7557 27.1255 19.4962 27.9409C19.2206 28.8069 18.6973 29.4316 17.8895 29.8446C16.4774 30.5665 14.8247 30.6129 13.3303 30.1174C11.4616 29.4979 9.90273 28.2503 9.02046 26.4745C8.2154 24.854 8.12742 23.1162 8.77715 21.4265C8.82628 21.2987 8.87207 21.1607 8.93829 21.0412C9.05543 20.8299 9.23715 20.6193 9.30974 20.3895C9.31211 20.3821 9.31408 20.3745 9.31622 20.367Z" fill="#0EC2E6"/>
</svg>
