<svg width="65" height="70" viewBox="0 0 65 70" fill="none" xmlns="http://www.w3.org/2000/svg">
<g clip-path="url(#clip0_668_14515)">
<rect width="64" height="70" transform="translate(0.5)" fill="white"/>
<path d="M23.8333 35C33.4846 35 41.3333 27.1512 41.3333 17.5C41.3333 7.84875 33.4846 0 23.8333 0C14.1821 0 6.33333 7.84875 6.33333 17.5C6.33333 27.1512 14.1821 35 23.8333 35ZM23.8333 2.91667C31.8746 2.91667 38.4167 9.45875 38.4167 17.5C38.4167 25.5413 31.8746 32.0833 23.8333 32.0833C15.7921 32.0833 9.25 25.5413 9.25 17.5C9.25 9.45875 15.7921 2.91667 23.8333 2.91667ZM29.6375 43.0179C29.4771 43.8083 28.71 44.3188 27.9167 44.1583C26.5808 43.8871 25.2042 43.75 23.8333 43.75C12.5779 43.75 3.41667 52.9083 3.41667 64.1667V68.5417C3.41667 69.3467 2.76333 70 1.95833 70C1.15333 70 0.5 69.3467 0.5 68.5417V64.1667C0.5 51.3013 10.9679 40.8333 23.8333 40.8333C25.4025 40.8333 26.9717 40.9908 28.5 41.3C29.2904 41.4604 29.7979 42.2304 29.6404 43.0179H29.6375Z" fill="black"/>
<g clip-path="url(#clip1_668_14515)">
<path d="M51.4167 54.8756C47.2361 54.8756 43.8333 58.2773 43.8333 62.4589C43.8333 66.6168 47.2361 70 51.4167 70C55.5972 70 59 66.5983 59 62.4167C59 58.2588 55.5972 54.8756 51.4167 54.8756ZM51.4167 67.8333C48.4299 67.8333 46 65.4218 46 62.4589C46 59.4722 48.4299 57.0422 51.4167 57.0422C54.4034 57.0422 56.8333 59.4538 56.8333 62.4167C56.8333 65.4034 54.4034 67.8333 51.4167 67.8333ZM53.2659 62.7341C53.6895 63.1577 53.6895 63.8423 53.2659 64.2659C53.0547 64.4772 52.7773 64.5833 52.5 64.5833C52.2227 64.5833 51.9453 64.4772 51.7341 64.2659L50.6507 63.1826C50.4471 62.9789 50.3333 62.7038 50.3333 62.4167V60.25C50.3333 59.652 50.8176 59.1667 51.4167 59.1667C52.0158 59.1667 52.5 59.652 52.5 60.25V61.9682L53.2659 62.7341ZM59 51.5833V53.75C59 54.348 58.5158 54.8333 57.9167 54.8333C57.3176 54.8333 56.8333 54.348 56.8333 53.75V51.5833C56.8333 49.7915 55.3752 48.3333 53.5833 48.3333H38.4167C36.6248 48.3333 35.1667 49.7915 35.1667 51.5833V52.6667H44.9167C45.5147 52.6667 46 53.152 46 53.75C46 54.348 45.5147 54.8333 44.9167 54.8333H35.1667V64.5833C35.1667 66.3752 36.6248 67.8333 38.4167 67.8333H42.75C43.348 67.8333 43.8333 68.3187 43.8333 68.9167C43.8333 69.5147 43.348 70 42.75 70H38.4167C35.4299 70 33 67.5701 33 64.5833V51.5833C33 48.5966 35.4299 46.1667 38.4167 46.1667H39.5V45.0833C39.5 44.4853 39.9853 44 40.5833 44C41.1813 44 41.6667 44.4853 41.6667 45.0833V46.1667H50.3333V45.0833C50.3333 44.4853 50.8176 44 51.4167 44C52.0158 44 52.5 44.4853 52.5 45.0833V46.1667H53.5833C56.5701 46.1667 59 48.5966 59 51.5833Z" fill="black"/>
</g>
</g>
<defs>
<clipPath id="clip0_668_14515">
<rect width="64" height="70" fill="white" transform="translate(0.5)"/>
</clipPath>
<clipPath id="clip1_668_14515">
<rect width="26" height="26" fill="white" transform="translate(33 44)"/>
</clipPath>
</defs>
</svg>
