<svg width="20" height="20" viewBox="0 0 20 20" fill="none" xmlns="http://www.w3.org/2000/svg">
<g clip-path="url(#clip0_1386_10)">
<path d="M10.3819 15.3471C10.168 15.3471 9.99992 15.1791 9.99992 14.9652V9.61797C9.99992 8.98395 9.48811 8.47214 8.85408 8.47214C8.6402 8.47214 8.47214 8.30408 8.47214 8.0902C8.47214 7.87631 8.6402 7.70825 8.85408 7.70825C9.90825 7.70825 10.7638 8.56381 10.7638 9.61797V14.9652C10.7638 15.1791 10.5958 15.3471 10.3819 15.3471ZM9.99992 4.6527C9.57978 4.6527 9.23603 4.99645 9.23603 5.41658C9.23603 5.83672 9.57978 6.18047 9.99992 6.18047C10.4201 6.18047 10.7638 5.83672 10.7638 5.41658C10.7638 4.99645 10.4201 4.6527 9.99992 4.6527ZM19.1666 15.7291V4.27075C19.1666 2.37631 17.6235 0.833252 15.7291 0.833252H4.27075C2.37631 0.833252 0.833252 2.37631 0.833252 4.27075V15.7291C0.833252 17.6235 2.37631 19.1666 4.27075 19.1666H15.7291C17.6235 19.1666 19.1666 17.6235 19.1666 15.7291ZM15.7291 1.59714C17.2034 1.59714 18.4027 2.79645 18.4027 4.27075V15.7291C18.4027 17.2034 17.2034 18.4027 15.7291 18.4027H4.27075C2.79645 18.4027 1.59714 17.2034 1.59714 15.7291V4.27075C1.59714 2.79645 2.79645 1.59714 4.27075 1.59714H15.7291Z" fill="white"/>
</g>
<defs>
<clipPath id="clip0_1386_10">
<rect width="20" height="20" fill="white"/>
</clipPath>
</defs>
</svg>
