<svg width="20" height="20" viewBox="0 0 20 20" fill="none" xmlns="http://www.w3.org/2000/svg">
<g clip-path="url(#clip0_1386_4312)">
<path d="M15.3469 0.833496H4.65245C2.54412 0.833496 0.833008 2.54461 0.833008 4.65294V15.3474C0.833008 17.4557 2.54412 19.1668 4.65245 19.1668H15.3469C17.4552 19.1668 19.1663 17.4557 19.1663 15.3474V4.65294C19.1663 2.54461 17.4552 0.833496 15.3469 0.833496ZM9.99967 4.65294C10.6337 4.65294 11.1455 5.16475 11.1455 5.79877C11.1455 6.4328 10.6337 6.94461 9.99967 6.94461C9.36565 6.94461 8.85384 6.4328 8.85384 5.79877C8.85384 5.16475 9.36565 4.65294 9.99967 4.65294ZM11.5275 15.3474C11.5275 15.7675 11.1837 16.1113 10.7636 16.1113C10.3434 16.1113 9.99967 15.7675 9.99967 15.3474V10.7641C9.99967 10.3439 9.65592 10.0002 9.23579 10.0002C8.81565 10.0002 8.4719 9.65641 8.4719 9.23627C8.4719 8.81613 8.81565 8.47238 9.23579 8.47238C10.4962 8.47238 11.5275 9.50363 11.5275 10.7641V15.3474Z" fill="#CFAC28"/>
</g>
<defs>
<clipPath id="clip0_1386_4312">
<rect width="20" height="20" fill="white"/>
</clipPath>
</defs>
</svg>
