<svg width="20" height="20" viewBox="0 0 20 20" fill="none" xmlns="http://www.w3.org/2000/svg">
<path d="M8.83273 0.512406C9.19992 0.182501 9.67611 0 10.1697 0C10.6634 0 11.1396 0.182501 11.5067 0.512406L18.8419 7.10341C19.0505 7.29095 19.2173 7.52026 19.3315 7.77645C19.4457 8.03263 19.5047 8.30997 19.5048 8.59045V17.9995C19.5048 18.5301 19.294 19.0389 18.9188 19.4141C18.5437 19.7892 18.0348 20 17.5043 20H14.1701C13.6395 20 13.1307 19.7892 12.7555 19.4141C12.3803 19.0389 12.1696 18.5301 12.1696 17.9995V13.3316C12.1696 13.1548 12.0993 12.9852 11.9743 12.8601C11.8492 12.7351 11.6796 12.6648 11.5027 12.6648H8.8354C8.65854 12.6648 8.48893 12.7351 8.36387 12.8601C8.23882 12.9852 8.16856 13.1548 8.16856 13.3316V17.9995C8.16856 18.5301 7.9578 19.0389 7.58263 19.4141C7.20746 19.7892 6.69862 20 6.16806 20H2.83388C2.30331 20 1.79448 19.7892 1.41931 19.4141C1.04414 19.0389 0.833374 18.5301 0.833374 17.9995V8.59045C0.833374 8.02364 1.07343 7.4835 1.49754 7.10341L8.83273 0.512406ZM10.6145 1.50466C10.4921 1.39481 10.3335 1.33405 10.1691 1.33405C10.0046 1.33405 9.84599 1.39481 9.72362 1.50466L2.38843 8.09566C2.31895 8.15803 2.26333 8.23431 2.2252 8.31954C2.18706 8.40478 2.16725 8.49707 2.16704 8.59045V17.9995C2.16704 18.1763 2.2373 18.346 2.36236 18.471C2.48741 18.5961 2.65702 18.6663 2.83388 18.6663H6.16806C6.34491 18.6663 6.51452 18.5961 6.63958 18.471C6.76464 18.346 6.83489 18.1763 6.83489 17.9995V13.3316C6.83489 12.8011 7.04566 12.2922 7.42083 11.9171C7.79599 11.5419 8.30483 11.3311 8.8354 11.3311H11.5027C12.0333 11.3311 12.5421 11.5419 12.9173 11.9171C13.2925 12.2922 13.5032 12.8011 13.5032 13.3316V17.9995C13.5032 18.1763 13.5735 18.346 13.6986 18.471C13.8236 18.5961 13.9932 18.6663 14.1701 18.6663H17.5043C17.6811 18.6663 17.8507 18.5961 17.9758 18.471C18.1008 18.346 18.1711 18.1763 18.1711 17.9995V8.59045C18.1709 8.49707 18.1511 8.40478 18.1129 8.31954C18.0748 8.23431 18.0192 8.15803 17.9497 8.09566L10.6145 1.50466Z" fill="white"/>
</svg>
