<svg width="20" height="20" viewBox="0 0 20 20" fill="none" xmlns="http://www.w3.org/2000/svg">
<g clip-path="url(#clip0_1386_568)">
<path d="M10.165 19.2488L10.1649 19.2489C9.97838 19.4118 9.74197 19.5002 9.49881 19.5C9.25595 19.4998 9.01995 19.4112 8.83378 19.2482C8.83356 19.2481 8.83334 19.2479 8.83312 19.2477L8.50638 18.9594C8.50612 18.9592 8.50585 18.9589 8.50559 18.9587C3.76999 14.7446 1.5 10.9893 1.5 7.64269C1.5 5.48045 2.34484 3.40842 3.84608 1.88198C5.34703 0.35583 7.38098 -0.5 9.5 -0.5C11.619 -0.5 13.653 0.35583 15.1539 1.88198C16.6552 3.40842 17.5 5.48045 17.5 7.64269C17.5 11.0668 15.1235 14.919 10.165 19.2488ZM9.5 3.81858C8.49763 3.81858 7.53802 4.22353 6.83182 4.94159C6.1259 5.65936 5.73077 6.63113 5.73077 7.64269C5.73077 8.65424 6.1259 9.62601 6.83182 10.3438C7.53802 11.0618 8.49763 11.4668 9.5 11.4668C10.5024 11.4668 11.462 11.0618 12.1682 10.3438C12.8741 9.62601 13.2692 8.65424 13.2692 7.64269C13.2692 6.63113 12.8741 5.65936 12.1682 4.94159C11.462 4.22353 10.5024 3.81858 9.5 3.81858Z" stroke="white"/>
</g>
<defs>
<clipPath id="clip0_1386_568">
<rect width="20" height="20" fill="white"/>
</clipPath>
</defs>
</svg>
