<svg width="20" height="20" viewBox="0 0 20 20" fill="none" xmlns="http://www.w3.org/2000/svg">
<g clip-path="url(#clip0_1386_4824)">
<path d="M9.5 -1C11.7543 -1 13.9163 -0.0894337 15.5104 1.53138C17.1045 3.1522 18 5.3505 18 7.64269C18 11.2948 15.4762 15.2748 10.4938 19.6254C10.2168 19.8674 9.86359 20.0003 9.49837 20C9.13315 19.9997 8.78016 19.8661 8.50354 19.6237L8.174 19.3329C3.41226 15.0958 1 11.2132 1 7.64269C1 5.3505 1.89553 3.1522 3.48959 1.53138C5.08365 -0.0894337 7.24566 -1 9.5 -1ZM9.5 4.31858C8.63295 4.31858 7.8014 4.66879 7.1883 5.29219C6.57521 5.91558 6.23077 6.76108 6.23077 7.64269C6.23077 8.5243 6.57521 9.3698 7.1883 9.99319C7.8014 10.6166 8.63295 10.9668 9.5 10.9668C10.3671 10.9668 11.1986 10.6166 11.8117 9.99319C12.4248 9.3698 12.7692 8.5243 12.7692 7.64269C12.7692 6.76108 12.4248 5.91558 11.8117 5.29219C11.1986 4.66879 10.3671 4.31858 9.5 4.31858Z" fill="#CFAC28"/>
</g>
<defs>
<clipPath id="clip0_1386_4824">
<rect width="20" height="20" fill="white"/>
</clipPath>
</defs>
</svg>
