<svg width="21" height="21" viewBox="0 0 21 21" fill="none" xmlns="http://www.w3.org/2000/svg">
<path d="M15.083 5.08984C13.7097 3.55568 11.888 2.58984 9.66634 2.58984C8.68143 2.58984 7.70616 2.78384 6.79622 3.16075C5.88627 3.53766 5.05948 4.0901 4.36304 4.78654C3.6666 5.48298 3.11415 6.30978 2.73724 7.21972C2.36033 8.12966 2.16634 9.10493 2.16634 10.0898C2.16634 11.0748 2.36033 12.05 2.73724 12.96C3.11415 13.8699 3.6666 14.6967 4.36304 15.3931C5.05948 16.0896 5.88627 16.642 6.79622 17.0189C7.70616 17.3959 8.68143 17.5898 9.66634 17.5898C11.888 17.5898 13.7097 16.624 15.083 15.0898M18.833 10.0898L11.333 10.0898M18.833 10.0898C18.833 9.50651 17.1713 8.41651 16.7497 8.00651M18.833 10.0898C18.833 10.6732 17.1713 11.7632 16.7497 12.1732" stroke="white" stroke-width="1.5" stroke-linecap="round" stroke-linejoin="round"/>
</svg>
