<svg width="20" height="20" viewBox="0 0 20 20" fill="none" xmlns="http://www.w3.org/2000/svg">
<g clip-path="url(#clip0_1386_560)">
<path d="M7.50008 4.16667C7.50008 3.70833 7.87508 3.33333 8.33342 3.33333C8.79175 3.33333 9.16675 3.70833 9.16675 4.16667C9.16675 4.625 8.79175 5 8.33342 5C7.87508 5 7.50008 4.625 7.50008 4.16667ZM20.0001 3.75V9.58333C20.0001 11.65 18.3168 13.3333 16.2501 13.3333H7.91675C5.85008 13.3333 4.16675 11.65 4.16675 9.58333V3.75C4.16675 1.68333 5.85008 0 7.91675 0H16.2501C18.3168 0 20.0001 1.68333 20.0001 3.75ZM5.73342 11.5167L10.8751 6.375C11.5584 5.69167 12.6668 5.69167 13.3501 6.375L14.2168 7.24167C14.5668 7.58333 15.1668 7.59167 15.5084 7.24167L19.1668 3.58333C19.0834 2.05 17.8084 0.833333 16.2584 0.833333H7.91675C6.30842 0.833333 5.00008 2.14167 5.00008 3.75V9.58333C5.00008 10.325 5.27508 11 5.73342 11.5167ZM19.1668 9.58333V4.75833L16.0918 7.83333C15.4334 8.49167 14.2751 8.49167 13.6168 7.83333L12.7501 6.96667C12.3918 6.60833 11.8084 6.60833 11.4584 6.96667L6.36675 12.0583C6.81675 12.3417 7.35008 12.5083 7.91675 12.5083H16.2501C17.8584 12.5083 19.1668 11.2 19.1668 9.59167V9.58333ZM15.5334 15.025C15.3084 14.9667 15.0834 15.1 15.0251 15.325L14.5918 17.025C14.1668 18.575 12.5584 19.4917 11.0084 19.0667L2.98342 16.8917C1.43342 16.4667 0.51675 14.8583 0.94175 13.3083L2.47508 7.61667C2.53342 7.39167 2.40008 7.16667 2.18342 7.10833C1.96675 7.05 1.73342 7.175 1.67508 7.4L0.133417 13.0833C-0.13325 14.05 -0.00824967 15.0583 0.49175 15.9333C0.99175 16.8083 1.79175 17.425 2.75842 17.6917L10.7834 19.8667C11.1168 19.9583 11.4501 20 11.7751 20C13.4251 20 14.9334 18.9083 15.3918 17.2333L15.8334 15.5333C15.8918 15.3083 15.7584 15.0833 15.5334 15.025Z" fill="white"/>
</g>
<defs>
<clipPath id="clip0_1386_560">
<rect width="20" height="20" fill="white"/>
</clipPath>
</defs>
</svg>
