<svg width="20" height="20" viewBox="0 0 20 20" fill="none" xmlns="http://www.w3.org/2000/svg">
<g clip-path="url(#clip0_1386_4948)">
<path d="M10.0083 6.475C10.85 5.63333 12.225 5.625 13.075 6.475L13.9416 7.34167C14.1333 7.53333 14.4583 7.53333 14.65 7.34167L19.6083 2.38333C18.9416 0.975 17.5 0 15.8416 0H8.33329C6.03329 0 4.16662 1.86667 4.16662 4.16667V9.16667C4.16662 10.0583 4.44996 10.8833 4.92496 11.5583L10.0083 6.475ZM7.91662 2.5C8.60829 2.5 9.16662 3.05833 9.16662 3.75C9.16662 4.44167 8.60829 5 7.91662 5C7.22496 5 6.66662 4.44167 6.66662 3.75C6.66662 3.05833 7.22496 2.5 7.91662 2.5ZM10.275 19.85L3.04996 17.8417C0.833291 17.225 -0.466709 14.925 0.149958 12.7083L1.49162 7.89167C1.68329 7.20833 2.03329 6.60833 2.49996 6.125V9.175C2.49996 12.4 5.10829 15.0083 8.33329 15.0083H15.95L15.4083 16.9583C14.7916 19.175 12.4916 20.475 10.275 19.8583V19.85ZM20 4.34167V9.16667C20 11.4667 18.1333 13.3333 15.8333 13.3333H8.33329C7.52496 13.3333 6.77496 13.1 6.13329 12.7083L11.1833 7.65833C11.375 7.46667 11.7 7.46667 11.8916 7.65833L12.7583 8.525C13.575 9.34167 15 9.34167 15.8166 8.525L20 4.34167Z" fill="#CFAC28"/>
</g>
<defs>
<clipPath id="clip0_1386_4948">
<rect width="20" height="20" fill="white"/>
</clipPath>
</defs>
</svg>
