<svg width="20" height="20" viewBox="0 0 20 20" fill="none" xmlns="http://www.w3.org/2000/svg">
<g clip-path="url(#clip0_1386_557)">
<path d="M19.6951 5.25012L18.4734 3.22095C18.2201 2.79679 17.8743 2.21679 17.3651 2.05595L11.6309 0.241787C10.5618 -0.0965462 9.43177 -0.0965462 8.3626 0.241787L2.62843 2.05679C2.1451 2.21012 1.73427 2.53345 1.45843 2.99345L0.3176 5.21845C-0.0265668 5.78929 -0.0915669 6.47512 0.139266 7.10012C0.369267 7.72512 0.864267 8.20512 1.49677 8.41512L1.67177 8.47345L1.66677 14.8101C1.66593 16.4276 2.69593 17.8593 4.23093 18.3701L8.2826 19.721C8.8351 19.9051 9.4151 19.9976 9.99593 19.9976C10.5768 19.9976 11.1568 19.906 11.7093 19.721L15.7643 18.3693C17.2993 17.8576 18.3326 16.4293 18.3334 14.8143V8.46929L18.5318 8.40345C19.1559 8.19512 19.6434 7.72262 19.8709 7.10595C20.0984 6.48929 20.0343 5.81262 19.6951 5.24929V5.25012ZM0.920933 6.81179C0.778433 6.42512 0.818433 6.00095 1.0451 5.62345L2.18593 3.39762C2.24093 3.30595 2.3076 3.22262 2.38343 3.14929L9.3901 5.49262L7.7451 8.52512C7.4226 9.06262 6.78177 9.29929 6.18843 9.10095L1.76093 7.62512C1.3701 7.49429 1.06343 7.19845 0.920933 6.81179ZM9.57343 19.1451C9.2251 19.1135 8.87927 19.0418 8.54593 18.931L4.49427 17.5801C3.3001 17.1818 2.49843 16.0693 2.49927 14.811L2.50343 8.75095L5.9226 9.89095C6.8926 10.2143 7.93343 9.82845 8.46677 8.93762L9.5776 6.89012L9.57177 19.1443L9.57343 19.1451ZM3.51593 2.64929L8.61427 1.03595C9.51843 0.750121 10.4751 0.750121 11.3801 1.03595L16.4926 2.65429L10.0043 4.81929L3.51593 2.64929ZM17.5001 14.8143C17.4993 16.0701 16.6959 17.181 15.5009 17.5793L11.4459 18.931C11.1093 19.0435 10.7601 19.1151 10.4076 19.146L10.4134 6.88595L11.5351 8.95345C11.9351 9.62095 12.6376 10.0035 13.3784 10.0035C13.6076 10.0035 13.8409 9.96679 14.0701 9.89012L17.5009 8.74679V14.8135L17.5001 14.8143ZM19.0893 6.81762C18.9501 7.19595 18.6509 7.48595 18.2684 7.61345L13.8059 9.10095C13.2109 9.29679 12.5718 9.06262 12.2584 8.54095L10.6068 5.49595L17.4743 3.20429C17.5868 3.36095 17.6901 3.53429 17.7584 3.64845L18.9818 5.68012C19.1901 6.02595 19.2293 6.44012 19.0893 6.81845V6.81762Z" fill="white"/>
</g>
<defs>
<clipPath id="clip0_1386_557">
<rect width="20" height="20" fill="white"/>
</clipPath>
</defs>
</svg>
