<svg width="20" height="20" viewBox="0 0 20 20" fill="none" xmlns="http://www.w3.org/2000/svg">
<g clip-path="url(#clip0_1386_928)">
<path d="M10.0132 4.77591L2.52073 2.27007L8.68906 0.214238C9.54406 -0.0707617 10.4691 -0.0707617 11.3241 0.214238L17.5066 2.27507L10.0132 4.77591ZM7.36156 9.46174L9.17406 6.44174L2.5524 4.23424C2.03823 4.06257 1.4749 4.27174 1.19573 4.73591L0.256564 6.30257C-0.29927 7.22924 0.14573 8.43174 1.17073 8.77341L5.4049 10.1851C6.14573 10.4317 6.9599 10.1309 7.36156 9.46174ZM2.50656 2.26507V2.27424L2.52073 2.27007L2.50656 2.26507ZM9.17323 19.9209V9.68091L8.7899 10.3192C8.17156 11.3492 7.08656 11.9401 5.94406 11.9401C5.5899 11.9401 5.23073 11.8842 4.8774 11.7659L1.67323 10.6984V14.4967C1.67323 16.2901 2.82073 17.8826 4.5224 18.4492L8.21823 19.6809C8.5299 19.7817 8.8499 19.8642 9.17323 19.9201V19.9209ZM19.7732 6.33007L18.8166 4.73591C18.5382 4.27174 17.9741 4.06257 17.4599 4.23424L10.8391 6.44091L12.6516 9.46091C13.0532 10.1309 13.8666 10.4317 14.6074 10.1842L18.8724 8.76257C19.8816 8.42591 20.3199 7.24174 19.7724 6.32924L19.7732 6.33007ZM14.0691 11.9409C12.9266 11.9409 11.8416 11.3509 11.2232 10.3201L10.8399 9.68174V19.9167C11.1916 19.8551 11.5399 19.7651 11.8699 19.6551H11.8782L15.4907 18.4501C17.1924 17.8826 18.3399 16.2909 18.3399 14.4976V10.6984L15.1357 11.7667C14.7824 11.8851 14.4232 11.9409 14.0691 11.9409Z" fill="#CFAC28"/>
</g>
<defs>
<clipPath id="clip0_1386_928">
<rect width="20" height="20" fill="white"/>
</clipPath>
</defs>
</svg>
