<svg width="20" height="20" viewBox="0 0 20 20" fill="none" xmlns="http://www.w3.org/2000/svg">
<g clip-path="url(#clip0_1386_554)">
<path d="M14.5833 9.05071C11.5967 9.05071 9.16667 11.4807 9.16667 14.4674C9.16667 17.4365 11.5967 19.8515 14.5833 19.8515C17.57 19.8515 20 17.4215 20 14.4349C20 11.4657 17.57 9.05071 14.5833 9.05071ZM14.5833 19.0182C12.0567 19.0182 10 16.9765 10 14.4674C10 11.9399 12.0567 9.88404 14.5833 9.88404C17.11 9.88404 19.1667 11.9257 19.1667 14.4349C19.1667 16.9624 17.11 19.0182 14.5833 19.0182ZM15.7117 14.9732C15.8742 15.1357 15.8742 15.3999 15.7117 15.5624C15.63 15.644 15.5233 15.684 15.4167 15.684C15.31 15.684 15.2033 15.6432 15.1217 15.5624L14.2883 14.729C14.21 14.6507 14.1667 14.5449 14.1667 14.434V12.7674C14.1667 12.5374 14.3533 12.3507 14.5833 12.3507C14.8133 12.3507 15 12.5374 15 12.7674V14.2615L15.7117 14.9732ZM16.25 1.51821H15V0.268207C15 0.0382068 14.8133 -0.14846 14.5833 -0.14846C14.3533 -0.14846 14.1667 0.0382068 14.1667 0.268207V1.51821H5.83333V0.268207C5.83333 0.0382068 5.64667 -0.14846 5.41667 -0.14846C5.18667 -0.14846 5 0.0382068 5 0.268207V1.51821H3.75C1.6825 1.51821 0 3.20071 0 5.26821V16.1015C0 18.169 1.6825 19.8515 3.75 19.8515H8.75C8.98 19.8515 9.16667 19.6649 9.16667 19.4349C9.16667 19.2049 8.98 19.0182 8.75 19.0182H3.75C2.14167 19.0182 0.833333 17.7099 0.833333 16.1015V7.35154H10H19.1667V8.60154C19.1667 8.83154 19.3533 9.01821 19.5833 9.01821C19.8133 9.01821 20 8.83154 20 8.60154V5.26821C20 3.20071 18.3175 1.51821 16.25 1.51821ZM0.833333 6.51821V5.26821C0.833333 3.65987 2.14167 2.35154 3.75 2.35154H16.25C17.8583 2.35154 19.1667 3.65987 19.1667 5.26821V6.51821H0.833333Z" fill="white"/>
</g>
<defs>
<clipPath id="clip0_1386_554">
<rect width="20" height="20" fill="white"/>
</clipPath>
</defs>
</svg>
