<svg width="20" height="20" viewBox="0 0 20 20" fill="none" xmlns="http://www.w3.org/2000/svg">
<path d="M16.5724 10.4425L17.7024 11.4488C17.9111 11.6229 18.0505 11.866 18.0954 12.134C18.1404 12.4021 18.0878 12.6773 17.9474 12.91L16.5849 15.2375C16.4792 15.4157 16.3282 15.5627 16.1474 15.6638C15.9644 15.765 15.759 15.8187 15.5499 15.82C15.4202 15.8208 15.2911 15.8014 15.1674 15.7625L13.7211 15.285C13.4678 15.4475 13.2045 15.5929 12.9311 15.7213L12.6274 17.1875C12.5712 17.4572 12.421 17.6982 12.2036 17.8675C11.9835 18.0398 11.7106 18.1308 11.4311 18.125H8.60988C8.3304 18.1308 8.0575 18.0398 7.83738 17.8675C7.62048 17.698 7.47076 17.4571 7.41488 17.1875L7.10988 15.7213C6.84013 15.5912 6.57841 15.4451 6.32613 15.2838L4.87488 15.7625C4.75114 15.8014 4.62209 15.8208 4.49238 15.82C4.28371 15.8185 4.07872 15.7648 3.89613 15.6638C3.71543 15.5631 3.56451 15.4165 3.45863 15.2388L2.04738 12.91C1.90067 12.6752 1.84461 12.395 1.88971 12.1219C1.93481 11.8487 2.07798 11.6014 2.29238 11.4263L3.42113 10V9.55752L2.29113 8.55127C2.08246 8.37713 1.94303 8.13404 1.89809 7.866C1.85315 7.59796 1.90567 7.32269 2.04613 7.09002L3.45738 4.76252C3.56309 4.58435 3.71402 4.4373 3.89488 4.33627C4.07747 4.23523 4.28246 4.18151 4.49113 4.18002C4.61967 4.17191 4.7487 4.18371 4.87363 4.21502L6.29613 4.71502C6.5503 4.55252 6.81363 4.4071 7.08613 4.27877L7.39113 2.81252C7.44701 2.54298 7.59673 2.30201 7.81363 2.13252C8.03375 1.9602 8.30665 1.86923 8.58613 1.87502H11.3836C11.6631 1.86923 11.936 1.9602 12.1561 2.13252C12.3749 2.30377 12.5249 2.54502 12.5786 2.81252L12.8836 4.27877C13.1545 4.40793 13.4157 4.55377 13.6674 4.71627L15.1199 4.23877C15.2811 4.18632 15.4514 4.16791 15.6201 4.1847C15.7888 4.20148 15.9522 4.25309 16.0999 4.33627C16.2811 4.43877 16.4311 4.58627 16.5374 4.76127L17.9474 7.09002C18.0961 7.32279 18.155 7.60172 18.1131 7.87474C18.0713 8.14777 17.9315 8.39623 17.7199 8.57377L16.5724 9.55126V10.4425Z" stroke="white"/>
<path d="M13.125 10C13.125 10.8288 12.7958 11.6237 12.2097 12.2097C11.6237 12.7958 10.8288 13.125 10 13.125C9.1712 13.125 8.37634 12.7958 7.79029 12.2097C7.20424 11.6237 6.875 10.8288 6.875 10C6.875 9.1712 7.20424 8.37634 7.79029 7.79029C8.37634 7.20424 9.1712 6.875 10 6.875C10.8288 6.875 11.6237 7.20424 12.2097 7.79029C12.7958 8.37634 13.125 9.1712 13.125 10Z" stroke="white"/>
</svg>
