<svg width="48" height="48" viewBox="0 0 48 48" fill="none" xmlns="http://www.w3.org/2000/svg">
<path d="M28.1423 39.4106H6.22412C5.76707 39.4101 5.32887 39.2284 5.00566 38.9052C4.68244 38.5821 4.50059 38.1439 4.5 37.6869V17.0176H28.14C28.3371 17.0148 28.5251 16.9345 28.6635 16.7942C28.8019 16.6538 28.8795 16.4647 28.8795 16.2676C28.8795 16.0705 28.8019 15.8813 28.6635 15.7409C28.5251 15.6006 28.3371 15.5203 28.14 15.5176H4.5V11.9931C4.50052 11.536 4.68233 11.0978 5.00555 10.7746C5.32878 10.4514 5.76702 10.2695 6.22412 10.269H9.11316V11.5694C9.11394 12.2196 9.37259 12.8429 9.83236 13.3026C10.2921 13.7623 10.9155 14.0209 11.5657 14.0216H12.3373C12.5362 14.0216 12.7269 13.9426 12.8676 13.8019C13.0083 13.6613 13.0873 13.4705 13.0873 13.2716C13.0873 13.0727 13.0083 12.8819 12.8676 12.7413C12.7269 12.6006 12.5362 12.5216 12.3373 12.5216H11.5657C11.3132 12.5214 11.0711 12.421 10.8925 12.2425C10.714 12.064 10.6135 11.8219 10.6132 11.5694V7.57481C10.6135 7.32229 10.7139 7.0802 10.8925 6.90164C11.0711 6.72308 11.3132 6.62263 11.5657 6.62231H12.3373C12.5898 6.62264 12.8318 6.72311 13.0103 6.90167C13.1888 7.08024 13.2892 7.32233 13.2894 7.57481V8.76902H12.345C12.148 8.77195 11.9601 8.85226 11.8218 8.9926C11.6836 9.13293 11.6061 9.32204 11.6061 9.51904C11.6061 9.71605 11.6836 9.90515 11.8218 10.0455C11.9601 10.1858 12.1481 10.2661 12.345 10.269H21.0747V11.5694C21.0755 12.2196 21.3342 12.8429 21.7939 13.3026C22.2537 13.7623 22.8771 14.0209 23.5272 14.0216H24.2988C24.4959 14.0188 24.684 13.9386 24.8224 13.7982C24.9607 13.6579 25.0383 13.4687 25.0383 13.2716C25.0383 13.0745 24.9607 12.8853 24.8224 12.745C24.684 12.6046 24.4959 12.5244 24.2988 12.5216H23.5272C23.2747 12.5214 23.0327 12.421 22.8541 12.2425C22.6755 12.064 22.575 11.8219 22.5747 11.5694V7.57481C22.575 7.32229 22.6755 7.0802 22.8541 6.90164C23.0326 6.72308 23.2747 6.62263 23.5272 6.62231H24.2988C24.5514 6.62263 24.7934 6.72308 24.972 6.90164C25.1506 7.0802 25.251 7.32229 25.2513 7.57481V8.76902H24.3973C24.2003 8.77181 24.0122 8.85206 23.8738 8.9924C23.7355 9.13275 23.6579 9.32193 23.6579 9.51902C23.6579 9.71612 23.7355 9.90529 23.8738 10.0456C24.0122 10.186 24.2003 10.2662 24.3973 10.269H33.0363V11.5694C33.037 12.2196 33.2957 12.8429 33.7555 13.3026C34.2152 13.7623 34.8386 14.0209 35.4888 14.0216H36.2604C36.4593 14.0216 36.65 13.9426 36.7907 13.8019C36.9313 13.6613 37.0104 13.4705 37.0104 13.2716C37.0104 13.0727 36.9313 12.8819 36.7907 12.7413C36.65 12.6006 36.4593 12.5216 36.2604 12.5216H35.4888C35.2363 12.5214 34.9942 12.421 34.8156 12.2425C34.6371 12.064 34.5366 11.8219 34.5363 11.5694V7.57481C34.5366 7.32229 34.637 7.0802 34.8156 6.90164C34.9942 6.72308 35.2362 6.62263 35.4888 6.62231H36.2604C36.5129 6.62263 36.755 6.72308 36.9336 6.90164C37.1121 7.0802 37.2126 7.32229 37.2129 7.57481V8.76902H36.3816C36.1845 8.77181 35.9964 8.85206 35.8581 8.9924C35.7197 9.13275 35.6421 9.32193 35.6421 9.51902C35.6421 9.71612 35.7197 9.90529 35.8581 10.0456C35.9964 10.186 36.1845 10.2662 36.3816 10.269H41.6019C42.059 10.2695 42.4972 10.4514 42.8205 10.7746C43.1437 11.0978 43.3255 11.536 43.326 11.9931V15.5176H31.14C30.9429 15.5203 30.7549 15.6006 30.6165 15.7409C30.4781 15.8813 30.4005 16.0705 30.4005 16.2676C30.4005 16.4647 30.4781 16.6538 30.6165 16.7942C30.7549 16.9345 30.9429 17.0148 31.14 17.0176H43.326V26.4815C43.326 26.6805 43.405 26.8712 43.5457 27.0119C43.6863 27.1525 43.8771 27.2315 44.076 27.2315C44.2749 27.2315 44.4657 27.1525 44.6063 27.0119C44.747 26.8712 44.826 26.6805 44.826 26.4815C44.8268 23.4841 44.8254 14.8487 44.826 11.9932C44.8251 11.1383 44.4851 10.3188 43.8807 9.71436C43.2762 9.10991 42.4567 8.76994 41.6019 8.76902H38.7129V7.57481C38.7122 6.92459 38.4536 6.3012 37.9938 5.84142C37.534 5.38164 36.9106 5.12302 36.2604 5.12231H35.4888C34.8385 5.12302 34.2152 5.38164 33.7554 5.84142C33.2956 6.3012 33.037 6.92459 33.0363 7.57481V8.76902H26.7513V7.57481C26.7506 6.92459 26.492 6.3012 26.0322 5.84142C25.5725 5.38164 24.9491 5.12302 24.2988 5.12231H23.5272C22.877 5.12302 22.2536 5.38164 21.7938 5.84142C21.334 6.3012 21.0754 6.92459 21.0747 7.57481V8.76902H14.7894V7.57481C14.7887 6.92464 14.5302 6.30129 14.0705 5.84152C13.6108 5.38174 12.9875 5.12309 12.3373 5.12231H11.5657C10.9154 5.12302 10.2921 5.38164 9.83228 5.84142C9.3725 6.3012 9.11388 6.92459 9.11318 7.57481V8.76902H6.22417C5.36935 8.76992 4.5498 9.10989 3.94535 9.71433C3.34089 10.3188 3.00091 11.1383 3 11.9931V37.6869C3.00098 38.5416 3.341 39.3611 3.94543 39.9654C4.54987 40.5698 5.36937 40.9097 6.22412 40.9106H28.1423C28.3388 40.907 28.526 40.8264 28.6637 40.6861C28.8014 40.5459 28.8785 40.3572 28.8785 40.1606C28.8785 39.9641 28.8014 39.7754 28.6637 39.6351C28.526 39.4949 28.3388 39.4142 28.1423 39.4106Z" fill="black"/>
<path d="M36.8127 26.5034C34.6422 26.5059 32.5612 27.3692 31.0264 28.9041C29.4916 30.4389 28.6282 32.5199 28.6257 34.6904C29.0754 45.5523 44.5522 45.5488 45.0001 34.6904C44.9976 32.5197 44.1342 30.4388 42.5993 28.9039C41.0644 27.3691 38.9833 26.5058 36.8127 26.5034ZM36.8127 41.3778C35.0398 41.3758 33.3401 40.6705 32.0864 39.4168C30.8328 38.1632 30.1277 36.4634 30.1257 34.6904C30.4929 25.819 43.1342 25.8219 43.5001 34.6905C43.4981 36.4635 42.7928 38.1632 41.5392 39.4169C40.2855 40.6706 38.5857 41.3758 36.8127 41.3778Z" fill="black"/>
<path d="M39.6888 32.0943L36.3266 35.7183L34.3359 33.8851C34.1895 33.7504 33.9956 33.6793 33.7969 33.6875C33.5981 33.6958 33.4108 33.7826 33.276 33.929C33.1413 34.0754 33.0703 34.2693 33.0785 34.468C33.0868 34.6668 33.1736 34.8541 33.32 34.9888L35.8604 37.3282C36.0064 37.4625 36.1996 37.5336 36.3979 37.5257C36.5961 37.5179 36.7831 37.4319 36.918 37.2865L40.7882 33.1146C40.9191 32.9681 40.9873 32.776 40.9781 32.5798C40.9689 32.3835 40.8831 32.1987 40.7391 32.065C40.595 31.9314 40.4043 31.8596 40.2079 31.865C40.0115 31.8705 39.8251 31.9528 39.6888 32.0943Z" fill="black"/>
<path d="M14.0395 19.2515H8.25928C8.06036 19.2515 7.8696 19.3305 7.72895 19.4711C7.58829 19.6118 7.50928 19.8026 7.50928 20.0015C7.50928 20.2004 7.58829 20.3911 7.72895 20.5318C7.8696 20.6724 8.06036 20.7515 8.25928 20.7515H14.0395C14.2365 20.7485 14.4244 20.6682 14.5627 20.5279C14.701 20.3876 14.7785 20.1985 14.7785 20.0015C14.7785 19.8045 14.701 19.6154 14.5627 19.475C14.4244 19.3347 14.2365 19.2544 14.0395 19.2515Z" fill="black"/>
<path d="M14.0395 22.3157H8.25928C8.06036 22.3157 7.8696 22.3947 7.72895 22.5353C7.58829 22.676 7.50928 22.8668 7.50928 23.0657C7.50928 23.2646 7.58829 23.4554 7.72895 23.596C7.8696 23.7367 8.06036 23.8157 8.25928 23.8157H14.0395C14.2365 23.8128 14.4244 23.7324 14.5627 23.5921C14.701 23.4518 14.7785 23.2627 14.7785 23.0657C14.7785 22.8687 14.701 22.6796 14.5627 22.5392C14.4244 22.3989 14.2365 22.3186 14.0395 22.3157Z" fill="black"/>
</svg>
