<svg width="48" height="48" viewBox="0 0 48 48" fill="none" xmlns="http://www.w3.org/2000/svg">
<path d="M4.00006 23.9999C3.99952 20.2442 5.05668 16.5642 7.0505 13.3813C9.04433 10.1985 11.8942 7.64149 15.2738 6.00312C18.6533 4.36476 22.426 3.71127 26.1597 4.11749C29.8935 4.5237 33.4373 5.9732 36.3855 8.29999H33.3432C33.0797 8.30254 32.8278 8.40902 32.6424 8.59628C32.4569 8.78354 32.3529 9.03643 32.3529 9.29998C32.3529 9.56352 32.4569 9.81642 32.6424 10.0037C32.8278 10.1909 33.0797 10.2974 33.3432 10.3H39C39.2652 10.3 39.5196 10.1946 39.7071 10.0071C39.8947 9.81952 40 9.56515 40 9.29993V3.64296C40.0013 3.51083 39.9764 3.37975 39.9267 3.2573C39.8771 3.13486 39.8036 3.02347 39.7106 2.92958C39.6176 2.83569 39.507 2.76116 39.385 2.7103C39.263 2.65944 39.1322 2.63325 39.0001 2.63325C38.8679 2.63325 38.7371 2.65944 38.6151 2.7103C38.4932 2.76116 38.3825 2.83569 38.2895 2.92958C38.1965 3.02347 38.1231 3.13486 38.0734 3.2573C38.0237 3.37975 37.9988 3.51083 38.0001 3.64296V7.02921C33.6396 3.43215 28.0619 1.65151 22.4238 2.05661C16.7857 2.46171 11.5198 5.02147 7.71839 9.20497C3.91697 13.3885 1.8717 18.8747 2.00678 24.5257C2.14186 30.1768 4.44693 35.559 8.4439 39.5561C8.53635 39.6507 8.64666 39.726 8.76843 39.7777C8.8902 39.8293 9.02102 39.8563 9.1533 39.8571C9.28558 39.8579 9.4167 39.8324 9.53906 39.7821C9.66142 39.7318 9.77259 39.6578 9.86613 39.5643C9.95966 39.4707 10.0337 39.3595 10.084 39.2372C10.1343 39.1148 10.1597 38.9837 10.159 38.8514C10.1582 38.7191 10.1312 38.5883 10.0795 38.4666C10.0279 38.3448 9.95254 38.2345 9.85793 38.142C7.99495 36.2892 6.51796 34.0852 5.51245 31.6577C4.50695 29.2302 3.9929 26.6274 4.00006 23.9999Z" fill="black"/>
<path d="M15.2598 41.9956C14.6924 41.7197 14.1309 41.4125 13.591 41.0835C13.3647 40.9453 13.0927 40.9027 12.8349 40.965C12.5772 41.0274 12.3547 41.1896 12.2165 41.416C12.0783 41.6423 12.0357 41.9143 12.0981 42.1721C12.1605 42.4298 12.3227 42.6523 12.549 42.7905C13.1433 43.1533 13.7614 43.4907 14.386 43.7944C14.5041 43.8517 14.6323 43.8853 14.7634 43.8931C14.8945 43.9009 15.0258 43.8829 15.1499 43.8399C15.274 43.797 15.3884 43.73 15.4867 43.6429C15.5849 43.5557 15.665 43.4501 15.7224 43.332C15.7797 43.2139 15.8133 43.0856 15.8211 42.9545C15.829 42.8234 15.8109 42.6921 15.768 42.568C15.725 42.4439 15.6581 42.3295 15.5709 42.2313C15.4837 42.133 15.3781 42.053 15.26 41.9956H15.2598Z" fill="black"/>
<path d="M42.0044 15.2784C42.0616 15.3966 42.1416 15.5023 42.2397 15.5896C42.3378 15.6769 42.4522 15.744 42.5762 15.7871C42.7003 15.8302 42.8316 15.8484 42.9627 15.8408C43.0938 15.8331 43.2221 15.7997 43.3403 15.7424C43.4585 15.6852 43.5642 15.6052 43.6515 15.5071C43.7388 15.409 43.8059 15.2946 43.849 15.1706C43.8921 15.0465 43.9103 14.9152 43.9027 14.7841C43.895 14.653 43.8616 14.5247 43.8044 14.4065C43.503 13.7839 43.1662 13.1658 42.8034 12.569C42.7351 12.4568 42.6454 12.3591 42.5394 12.2816C42.4334 12.204 42.3132 12.1481 42.1856 12.117C41.9278 12.0543 41.6557 12.0964 41.4291 12.2343C41.2025 12.3722 41.0399 12.5944 40.9771 12.8521C40.9144 13.1099 40.9566 13.382 41.0944 13.6086C41.4242 14.1511 41.7304 14.713 42.0044 15.2784Z" fill="black"/>
<path d="M26.3726 43.8599C25.7413 43.9349 25.1025 43.9795 24.4737 43.9947C24.2133 44.0047 23.967 44.1159 23.7874 44.3047C23.6078 44.4935 23.509 44.745 23.512 45.0056C23.5151 45.2661 23.6197 45.5152 23.8037 45.6998C23.9876 45.8844 24.2363 45.9899 24.4969 45.9938C24.5047 45.9938 24.513 45.9938 24.5208 45.9933C25.2122 45.9772 25.9138 45.9277 26.6072 45.8458C26.8704 45.8145 27.1103 45.6799 27.2744 45.4718C27.4384 45.2636 27.5131 44.9988 27.4821 44.7356C27.451 44.4724 27.3167 44.2323 27.1087 44.068C26.9008 43.9038 26.6361 43.8288 26.3728 43.8595L26.3726 43.8599Z" fill="black"/>
<path d="M20.6811 43.7242C20.0591 43.6202 19.4336 43.4849 18.8223 43.321C18.566 43.2525 18.293 43.2886 18.0633 43.4214C17.8336 43.5542 17.6661 43.7728 17.5976 44.0291C17.5291 44.2854 17.5653 44.5584 17.698 44.788C17.8308 45.0177 18.0494 45.1852 18.3057 45.2537C18.9785 45.4334 19.667 45.5823 20.3521 45.6966C20.4816 45.7182 20.6141 45.7141 20.742 45.6844C20.87 45.6548 20.9908 45.6003 21.0977 45.524C21.2046 45.4477 21.2954 45.3511 21.3649 45.2397C21.4344 45.1283 21.4813 45.0043 21.5029 44.8748C21.5245 44.7452 21.5204 44.6127 21.4908 44.4848C21.4612 44.3568 21.4067 44.236 21.3304 44.1291C21.2541 44.0222 21.1575 43.9315 21.0461 43.8619C20.9347 43.7924 20.8107 43.7455 20.6811 43.7239V43.7242Z" fill="black"/>
<path d="M45.018 23.5179C44.7529 23.5114 44.4961 23.6105 44.304 23.7933C44.1119 23.9762 44.0003 24.2278 43.9936 24.4929C43.9775 25.1252 43.9317 25.7638 43.8564 26.3918C43.825 26.6552 43.8995 26.9202 44.0635 27.1287C44.2275 27.3371 44.4675 27.472 44.7309 27.5036C44.7708 27.508 44.8108 27.5103 44.851 27.5104C45.0954 27.51 45.3312 27.4202 45.5139 27.2578C45.6966 27.0955 45.8136 26.8718 45.8427 26.6292C45.9247 25.9392 45.9755 25.2375 45.9927 24.5427C45.996 24.4115 45.9734 24.2808 45.9263 24.1582C45.8791 24.0356 45.8082 23.9235 45.7177 23.8284C45.6272 23.7332 45.5188 23.6568 45.3988 23.6035C45.2787 23.5502 45.1493 23.5211 45.018 23.5179Z" fill="black"/>
<path d="M41.9488 34.9561C41.7293 34.8074 41.4598 34.7517 41.1994 34.8014C40.9389 34.8511 40.7089 35.0021 40.5596 35.2213C40.2041 35.7442 39.8198 36.2564 39.4165 36.7432C39.3308 36.8441 39.2659 36.961 39.2257 37.0871C39.1855 37.2132 39.1707 37.3461 39.1823 37.478C39.1938 37.6098 39.2315 37.7381 39.293 37.8553C39.3545 37.9726 39.4387 38.0764 39.5407 38.1608C39.6426 38.2452 39.7604 38.3086 39.887 38.3471C40.0137 38.3857 40.1467 38.3987 40.2784 38.3855C40.4101 38.3722 40.5379 38.3329 40.6543 38.2698C40.7707 38.2068 40.8735 38.1213 40.9565 38.0182C41.3999 37.4831 41.8233 36.92 42.2138 36.3449C42.2876 36.2363 42.3393 36.1142 42.3659 35.9857C42.3925 35.8571 42.3935 35.7246 42.3689 35.5956C42.3443 35.4666 42.2946 35.3438 42.2225 35.2341C42.1504 35.1244 42.0574 35.0299 41.9488 34.9561Z" fill="black"/>
<path d="M43.3267 18.8408C43.4888 19.4498 43.6236 20.0753 43.7276 20.7002C43.7663 20.9336 43.8866 21.1458 44.067 21.2989C44.2474 21.4521 44.4763 21.5363 44.7129 21.5366C44.768 21.5365 44.823 21.5319 44.8774 21.5229C45.007 21.5015 45.1311 21.4547 45.2426 21.3852C45.354 21.3158 45.4507 21.225 45.5271 21.1182C45.6035 21.0114 45.6582 20.8905 45.6878 20.7626C45.7175 20.6346 45.7217 20.5021 45.7002 20.3725C45.5864 19.6851 45.4377 18.9963 45.2596 18.3262C45.1913 18.0699 45.024 17.8512 44.7945 17.7182C44.5651 17.5853 44.2922 17.5489 44.0359 17.6172C43.7796 17.6854 43.5609 17.8527 43.428 18.0822C43.295 18.3117 43.2586 18.5846 43.3269 18.8408H43.3267Z" fill="black"/>
<path d="M36.7261 39.4302C36.2373 39.8345 35.7252 40.2187 35.2042 40.5718C35.0955 40.6454 35.0024 40.7398 34.9302 40.8495C34.858 40.9591 34.8081 41.0819 34.7833 41.2109C34.7586 41.3398 34.7594 41.4724 34.7859 41.601C34.8124 41.7296 34.8639 41.8518 34.9376 41.9604C35.0113 42.0691 35.1057 42.1622 35.2153 42.2345C35.325 42.3067 35.4478 42.3566 35.5767 42.3813C35.7057 42.4061 35.8383 42.4052 35.9669 42.3787C36.0955 42.3522 36.2176 42.3007 36.3263 42.227C36.8996 41.8388 37.4625 41.4165 38.0006 40.9722C38.2051 40.8032 38.334 40.5599 38.3591 40.2958C38.3842 40.0317 38.3034 39.7684 38.1344 39.564C37.9654 39.3595 37.722 39.2305 37.458 39.2054C37.1939 39.1803 36.9306 39.2612 36.7261 39.4302Z" fill="black"/>
<path d="M44.3047 29.4576C44.0521 29.3774 43.7779 29.4006 43.5424 29.5223C43.3069 29.6439 43.1292 29.8541 43.0485 30.1065C42.857 30.7065 42.6334 31.3058 42.3839 31.8883C42.3293 32.0094 42.2994 32.1401 42.296 32.2729C42.2925 32.4057 42.3156 32.5378 42.3638 32.6616C42.4119 32.7853 42.4843 32.8983 42.5766 32.9938C42.6689 33.0893 42.7793 33.1654 42.9014 33.2178C43.0235 33.2701 43.1547 33.2976 43.2876 33.2987C43.4204 33.2997 43.5521 33.2743 43.675 33.2239C43.7978 33.1735 43.9094 33.0991 44.0033 33.0051C44.0971 32.9111 44.1712 32.7993 44.2214 32.6763C44.4968 32.0352 44.7429 31.3746 44.9533 30.7139C44.9932 30.5889 45.0082 30.4571 44.9972 30.3263C44.9862 30.1954 44.9496 30.068 44.8894 29.9514C44.8291 29.8347 44.7465 29.731 44.6462 29.6463C44.5458 29.5616 44.4298 29.4975 44.3047 29.4576Z" fill="black"/>
<path d="M31.869 42.392C31.2923 42.6391 30.6927 42.8623 30.0868 43.0556C29.9617 43.0955 29.8457 43.1596 29.7454 43.2443C29.645 43.3291 29.5624 43.4327 29.5021 43.5494C29.4419 43.666 29.4052 43.7934 29.3942 43.9243C29.3831 44.0551 29.398 44.1868 29.4379 44.3119C29.4777 44.4371 29.5419 44.5531 29.6266 44.6534C29.7113 44.7537 29.815 44.8364 29.9316 44.8966C30.0483 44.9569 30.1757 44.9936 30.3065 45.0046C30.4374 45.0156 30.5691 45.0008 30.6942 44.9609C31.3607 44.7484 32.0209 44.5029 32.6561 44.2309C32.9 44.1265 33.0924 43.9295 33.1909 43.6832C33.2895 43.4369 33.2862 43.1616 33.1818 42.9177C33.0774 42.6739 32.8804 42.4815 32.6341 42.3829C32.3878 42.2843 32.1125 42.2876 31.8686 42.392H31.869Z" fill="black"/>
<path d="M15.543 21.9571C15.543 20.3181 14.4654 19.0049 12.7975 18.6111C11.8812 18.3941 10.9184 18.4941 10.0662 18.8947C9.2141 19.2954 8.52294 19.9731 8.10556 20.8172C7.98869 21.0542 7.97039 21.3278 8.05466 21.5783C8.13893 21.8288 8.31891 22.0358 8.55529 22.154C8.79167 22.2722 9.06522 22.292 9.31617 22.2091C9.56713 22.1263 9.77508 21.9474 9.89459 21.7117C10.1081 21.2686 10.4672 20.9123 10.912 20.7022C11.3567 20.4921 11.8601 20.4411 12.3379 20.5577C12.6207 20.6243 13.543 20.9226 13.543 21.9571C13.543 23 12.3384 23.8045 11.063 24.6563C9.62694 25.6148 8 26.7012 8 28.5001C8 28.7653 8.10536 29.0196 8.2929 29.2072C8.48044 29.3947 8.73481 29.5001 9.00003 29.5001H14.543C14.6751 29.5014 14.8062 29.4765 14.9287 29.4268C15.0511 29.3771 15.1625 29.3036 15.2564 29.2106C15.3503 29.1177 15.4248 29.007 15.4757 28.885C15.5265 28.7631 15.5527 28.6322 15.5527 28.5001C15.5527 28.368 15.5265 28.2371 15.4757 28.1152C15.4248 27.9932 15.3503 27.8825 15.2564 27.7896C15.1625 27.6966 15.0511 27.6231 14.9287 27.5734C14.8062 27.5238 14.6751 27.4988 14.543 27.5001H10.5811C11.0001 27.1032 11.5923 26.7077 12.1734 26.3194C13.7532 25.2647 15.543 24.0694 15.543 21.9571Z" fill="black"/>
<path d="M25 25.2499C25 24.9847 24.8946 24.7304 24.7071 24.5428C24.5195 24.3553 24.2652 24.25 24 24.25H23.1875V18.9375C23.1874 18.7303 23.1231 18.5284 23.0033 18.3594C22.8836 18.1904 22.7143 18.0628 22.519 17.9941C22.3236 17.9254 22.1117 17.9191 21.9125 17.976C21.7134 18.0329 21.5368 18.1502 21.4072 18.3118L16.3447 24.6245C16.227 24.7716 16.1531 24.9489 16.1317 25.1361C16.1103 25.3233 16.1422 25.5127 16.2238 25.6826C16.3053 25.8524 16.4332 25.9958 16.5926 26.0962C16.752 26.1966 16.9366 26.2499 17.125 26.2499H21.1875V29.0624C21.1862 29.1946 21.2111 29.3257 21.2608 29.4481C21.3105 29.5706 21.3839 29.6819 21.4769 29.7758C21.5699 29.8697 21.6806 29.9442 21.8025 29.9951C21.9245 30.046 22.0553 30.0722 22.1875 30.0722C22.3196 30.0722 22.4504 30.046 22.5724 29.9951C22.6944 29.9442 22.805 29.8697 22.898 29.7758C22.991 29.6819 23.0645 29.5706 23.1141 29.4481C23.1638 29.3257 23.1887 29.1946 23.1875 29.0624V26.2499H24C24.2652 26.2499 24.5196 26.1446 24.7071 25.957C24.8947 25.7695 25 25.5151 25 25.2499ZM21.1875 24.25H19.2094L21.1875 21.7827V24.25Z" fill="black"/>
<path d="M30.1181 17.3945C29.9893 17.3685 29.8566 17.3682 29.7277 17.3935C29.5988 17.4189 29.4761 17.4695 29.3668 17.5423C29.2575 17.6152 29.1636 17.709 29.0906 17.8182C29.0176 17.9275 28.9669 18.05 28.9413 18.1789L26.6913 29.4289C26.6393 29.689 26.6927 29.959 26.8397 30.1797C26.9868 30.4004 27.2155 30.5536 27.4755 30.6057C27.5404 30.6186 27.6063 30.6251 27.6724 30.6252C27.9034 30.6249 28.1271 30.5448 28.3057 30.3982C28.4842 30.2517 28.6066 30.0479 28.6519 29.8215L30.9019 18.5715C30.9278 18.4427 30.928 18.3101 30.9026 18.1813C30.8772 18.0525 30.8267 17.9299 30.7539 17.8206C30.6811 17.7113 30.5875 17.6174 30.4784 17.5443C30.3693 17.4712 30.2468 17.4203 30.1181 17.3945Z" fill="black"/>
<path d="M35.2496 29.5005C35.4471 29.5004 35.6402 29.4419 35.8045 29.3323C35.9688 29.2228 36.097 29.067 36.173 28.8848L39.923 19.8848C39.9864 19.7328 40.0113 19.5676 39.9955 19.4037C39.9797 19.2398 39.9236 19.0823 39.8323 18.9453C39.741 18.8083 39.6172 18.696 39.4721 18.6183C39.3269 18.5406 39.1648 18.5 39.0001 18.5H33.9376C33.6741 18.5026 33.4222 18.609 33.2368 18.7963C33.0513 18.9835 32.9473 19.2364 32.9473 19.5C32.9473 19.7635 33.0513 20.0164 33.2368 20.2037C33.4222 20.3909 33.6741 20.4974 33.9376 20.5H37.5001L34.3272 28.1157C34.2641 28.2676 34.2395 28.4328 34.2554 28.5966C34.2713 28.7603 34.3273 28.9176 34.4185 29.0546C34.5097 29.1916 34.6333 29.3039 34.7782 29.3818C34.9232 29.4596 35.0851 29.5005 35.2496 29.5009V29.5005Z" fill="black"/>
</svg>
