<svg width="56" height="56" viewBox="0 0 56 56" fill="none" xmlns="http://www.w3.org/2000/svg">
<g clip-path="url(#clip0_34_125)">
<path fill-rule="evenodd" clip-rule="evenodd" d="M10.4653 35.4305V35.3649C10.4653 35.3321 10.4325 35.2993 10.4325 35.2665C10.334 35.1353 10.2028 35.0368 10.0388 34.9712C10.006 34.9712 10.006 34.9712 9.97317 34.9712C9.94037 34.9712 9.90756 34.9712 9.87475 34.9712C9.77634 34.9712 9.67792 35.004 9.5795 35.0368C9.51389 35.0697 9.48108 35.1025 9.41547 35.1681C9.25144 35.3649 9.21863 35.6602 9.34986 35.8898C9.51389 36.1851 9.90756 36.2835 10.2028 36.1194C10.4325 35.9882 10.5637 35.693 10.4653 35.4305ZM24.6703 22.0128C22.3411 17.2888 26.6059 14.8283 29.4928 19.2243C32.2485 15.0907 36.4149 16.9935 34.5777 21.4879C35.4307 20.8974 36.218 20.2413 36.8742 19.5524C35.1354 18.2401 33.856 16.6654 33.0359 14.8611C29.9849 15.1236 29.46 9.973 31.0019 7.80779C31.2971 7.41412 31.9533 7.41412 32.2157 7.80779C33.0359 8.95601 34.1841 10.3339 34.6762 11.5477C35.0698 12.4663 35.037 13.5489 34.3809 14.2378C35.1026 15.8125 36.2509 17.2231 37.8255 18.4042C38.5473 17.3872 39.0722 16.2718 39.3674 15.1236C38.3504 14.0738 38.5145 12.3678 39.3674 10.6619C34.0856 10.3339 34.0856 5.41295 39.3674 5.08489C37.0382 0.360812 41.2702 -2.06684 44.1899 2.29637C47.1097 -2.09965 51.3745 0.360812 49.0124 5.08489C54.2942 5.41295 54.327 10.3339 49.0124 10.6619C51.4073 15.4844 47.0769 17.748 44.1899 13.4504C43.2057 14.9595 41.9591 15.8125 40.7453 15.7469C40.4172 16.9279 39.8923 18.0105 39.2034 19.0275C40.9421 19.5196 42.648 19.5852 44.2555 19.2571C44.7476 16.7311 48.75 17.2559 50.7183 17.2231C51.2432 17.2231 51.6041 17.748 51.4401 18.2073C50.5871 20.7662 46.1255 23.3251 44.5508 20.7334C42.4184 21.1599 40.3516 20.9958 38.2192 20.3069C37.5631 20.9958 36.8414 21.6848 35.9884 22.3081C39.6299 23.4563 38.8425 27.2946 34.3481 27.5899C36.7101 32.3796 32.3797 34.676 29.4928 30.3784C26.6059 34.7416 22.3411 32.2811 24.6703 27.5899C23.883 27.5243 23.2596 27.393 22.7019 27.1634C20.7664 27.6227 19.0605 28.2132 17.5514 28.9349C18.47 30.6408 19.6838 31.9859 21.1272 32.9373C23.2268 31.461 25.7529 34.7416 27.1308 36.0538C27.4916 36.4147 27.3932 37.038 26.9339 37.2677C24.5391 38.4487 19.5854 37.1364 20.3071 34.1839C18.634 33.0685 17.2561 31.5594 16.2391 29.591C15.4846 30.0175 14.7957 30.4768 14.2052 30.9689C14.3364 31.5922 14.238 32.3796 13.8115 33.2981C17.7154 33.7246 17.7154 37.4645 13.8115 37.8582C15.3206 41.2372 12.4008 43.2712 10.0716 40.3842C10.5309 44.6818 13.385 48.2577 15.9439 48.9466C16.4688 48.0281 17.5514 47.6672 18.634 47.536C17.0921 44.0913 20.2087 41.9917 22.6035 45.2724C24.8999 42.0902 28.1477 43.9601 26.5402 47.536C30.4114 47.9296 30.4114 51.7023 26.5402 52.096C28.2134 55.8031 24.8015 57.4106 22.6035 54.3596C21.849 55.4094 20.9304 55.9999 20.0446 55.9999C18.1419 55.9999 17.8794 53.8347 18.634 52.096C17.0921 51.932 16.1735 51.2431 15.8783 50.4885C12.5649 49.7668 9.48108 45.7644 8.69374 41.3028C6.52853 42.7463 4.69139 40.6795 5.93802 37.8582C1.87007 37.4317 2.19813 33.6918 5.93802 33.2981C4.33053 29.7223 7.57833 27.8523 9.87475 31.0345C11.0886 29.3942 12.4992 29.0989 13.385 29.6895C14.1067 29.1318 14.8941 28.6397 15.7799 28.1476C15.6486 25.8183 16.0751 23.7187 16.9937 21.8816C14.8613 19.6508 18.634 16.0093 21.1929 15.8781C21.7178 15.8453 22.1114 16.3374 21.9802 16.8295C21.4225 18.6994 20.8976 22.7346 18.3387 22.5377C17.617 23.9812 17.2561 25.6215 17.2561 27.4258C18.4371 26.9009 19.7494 26.4088 21.1601 26.0152C19.815 24.178 21.6193 22.2097 24.6703 22.0128ZM22.7347 49.2091H22.7019C22.6691 49.2091 22.6363 49.2091 22.6035 49.2091C22.4723 49.2091 22.3739 49.2091 22.2755 49.2747C22.2427 49.3075 22.177 49.3403 22.1442 49.3731L22.1114 49.4059C21.9474 49.6028 21.9146 49.898 22.0458 50.1277C22.2098 50.4229 22.6035 50.5213 22.8988 50.3573C23.194 50.1933 23.2924 49.7996 23.1284 49.5043C23.03 49.3731 22.8988 49.2419 22.7347 49.2091ZM23.0628 25.6871C23.5877 25.9168 24.2766 26.1136 25.2608 26.1136C26.0482 26.1136 25.5561 25.8511 26.9339 24.9654C26.9011 24.6045 26.9667 24.2108 27.098 23.85C24.4407 22.7018 20.4383 24.4733 23.0628 25.6871ZM12.6961 31.1329L12.5649 30.9361C12.0072 30.6408 10.6949 32.2155 10.6949 32.5436L10.8917 33.5278C10.8917 33.5934 10.8917 33.659 10.9245 33.7574C11.0886 33.8558 11.2526 33.9871 11.4166 34.1183C12.2696 33.4294 12.9585 31.8219 12.6961 31.1329ZM21.5537 51.6695C21.3897 51.5711 21.1929 51.4399 21.0616 51.2759C19.979 52.1616 19.1917 54.4909 20.0446 54.4909C20.668 54.4909 21.7506 53.1458 21.7834 52.8506C21.6521 52.4569 21.5865 52.0632 21.5537 51.6695ZM20.4711 49.8324C20.4711 49.6356 20.5039 49.4059 20.5695 49.2091C19.0605 48.6514 16.2063 49.4059 17.5842 50.2589C17.9122 50.4557 19.2573 50.7838 19.5526 50.6197C19.8478 50.3245 20.1431 50.062 20.4711 49.8324ZM21.5209 47.9953L22.1114 47.7656C21.9146 46.4862 20.5367 44.8131 19.9134 45.1739C19.3885 45.4692 20.0446 47.536 20.4383 47.6344C20.7992 47.7 21.1601 47.8312 21.5209 47.9953ZM23.6205 47.9624C23.8173 48.0609 23.9814 48.1921 24.1126 48.3561C25.1624 47.536 25.8841 45.5348 25.2608 45.1739C24.7359 44.8459 23.4237 46.4534 23.3909 46.7814L23.6205 47.8968V47.9624ZM24.7031 49.7996C24.7031 49.9964 24.6703 50.2261 24.6047 50.4229C25.9497 50.915 28.3446 50.4229 27.9181 49.6684C27.59 49.1107 25.8513 48.881 25.6217 49.0122C25.3592 49.3075 25.0312 49.5699 24.7031 49.7996ZM23.6861 51.6367L23.0956 51.8664C23.2924 53.1786 24.6375 54.8189 25.2608 54.4581C25.8185 54.1628 25.0968 52.2272 24.8015 52.0304C24.4079 51.932 24.047 51.8008 23.6861 51.6367ZM8.85777 37.4317C8.66093 37.3333 8.4969 37.2021 8.33287 37.038C7.25027 37.9238 6.49573 40.253 7.34869 40.253C7.972 40.253 9.0546 38.9408 9.08741 38.6127C8.95618 38.219 8.85777 37.8254 8.85777 37.4317ZM7.77516 35.6274C7.77516 35.3977 7.80797 35.2009 7.84078 34.9712C6.79098 34.5776 4.52736 34.8072 4.52736 35.5946C4.52736 36.2179 6.52853 36.5459 6.85659 36.4147C7.11904 36.0866 7.4143 35.8242 7.77516 35.6274ZM8.79215 33.7574L9.38266 33.5278C9.31705 33.1341 9.18583 32.7404 8.98899 32.3796C7.57833 29.9191 6.13486 30.7721 7.54552 33.1997C7.74236 33.5606 8.07042 33.3965 8.79215 33.7574ZM11.9743 35.5617C12.0072 35.7586 11.9743 35.9882 11.9087 36.1851C13.0569 36.6115 15.255 36.3491 15.255 35.5946C15.255 34.9712 13.221 34.6104 12.8929 34.7744C12.6305 35.0697 12.3352 35.3321 11.9743 35.5617ZM10.9574 37.3989L10.3668 37.6285C10.5965 39.0392 12.2368 40.8763 12.6633 40.1218C12.9913 39.5969 12.368 37.9894 12.1056 37.7926C11.7119 37.7269 11.3182 37.5957 10.9574 37.3989ZM33.1999 13.2864C33.5936 13.1552 33.4295 12.4335 33.2983 12.1054C33.0359 11.4165 32.3469 10.4979 31.7564 9.71055C31.4612 10.8916 31.7236 13.8441 33.1999 13.2864ZM22.2755 34.0855C21.9802 34.0855 21.8818 34.1839 21.849 34.2823C21.0616 35.4305 23.6861 36.3491 25.1624 36.2179C24.4079 35.4305 23.2596 34.0855 22.2755 34.0855ZM45.7318 19.6836C46.0271 21.1271 48.5859 19.782 49.4717 18.7322C48.7828 18.6994 45.535 18.5682 45.7318 19.6836ZM20.2087 17.6496C18.962 18.2401 16.9609 20.3397 18.3059 21.0286C18.6668 21.1927 19.0933 20.7662 19.3229 20.3725C19.6838 19.7164 19.979 18.601 20.2087 17.6496ZM41.5326 6.82361C41.0405 6.65958 40.4828 6.56116 39.9579 6.56116C35.9228 6.56116 35.9228 9.18565 39.9579 9.18565C40.7125 9.18565 40.2532 8.95601 41.5982 8.07024C41.5654 7.67657 41.6311 7.2829 41.7623 6.92203L41.5326 6.82361ZM42.1559 9.51371C40.4172 10.826 39.433 14.2706 40.8765 14.2706C41.9263 14.2706 43.3698 12.2038 43.4026 11.8757C43.2057 11.3509 43.1073 10.7931 43.0745 10.2354C42.7136 10.0386 42.4184 9.80897 42.1559 9.51371ZM44.5836 10.4651C44.8132 12.2694 46.7488 14.7955 47.8314 14.1722C48.7828 13.6473 47.6674 10.6619 47.1425 10.5307C46.6176 10.4323 46.1255 10.2683 45.6662 10.0386C45.3381 10.2354 44.9773 10.3995 44.5836 10.4651ZM45.0101 8.62795C45.0101 8.62795 45.0429 8.62795 45.0429 8.59514C45.3381 8.26708 45.4038 7.74218 45.1741 7.3157C45.0101 7.05325 44.7476 6.85642 44.4196 6.79081C44.354 6.758 44.2555 6.758 44.1899 6.758C43.9931 6.758 43.7962 6.82361 43.6322 6.92203C43.5338 6.95484 43.4354 7.02045 43.3698 7.11887V7.15167C43.2385 7.2829 43.1729 7.41412 43.1073 7.57815C43.0745 7.80779 43.0745 8.00463 43.1401 8.20147V8.23427C43.3698 8.85759 44.1571 9.18565 44.7476 8.82478C44.846 8.79198 44.9445 8.72637 45.0101 8.62795ZM46.6176 8.82478C47.2081 9.05443 47.7986 9.18565 48.4219 9.18565C52.4899 9.18565 52.4899 6.56116 48.4219 6.56116C47.6674 6.56116 48.1267 6.79081 46.7816 7.67657C46.8144 8.07024 46.7488 8.46392 46.6176 8.82478ZM46.2239 6.2331C47.7002 5.1505 48.914 2.16515 47.8314 1.57464C46.8472 0.984127 45.0101 3.5102 45.0101 3.87106C45.1741 4.42877 45.3053 4.95366 45.3053 5.51137C45.6662 5.7082 45.9943 5.93785 46.2239 6.2331ZM42.7136 5.7082C43.0417 5.51137 43.4026 5.34734 43.7962 5.28173C43.5338 3.14933 41.0733 0.524842 40.3188 1.80428C39.7939 2.72285 40.8437 4.98647 41.139 5.18331C41.6967 5.28173 42.2216 5.47856 42.7136 5.7082ZM28.7055 28.7709C28.5086 28.246 28.4102 27.6883 28.3774 27.0978C28.0493 26.9337 27.7213 26.7041 27.4916 26.4088C25.7201 27.7211 24.7031 31.1657 26.1794 31.1657C26.7699 31.1657 28.0165 30.2472 28.7055 28.7709ZM30.9363 26.9337C30.641 27.1306 30.2801 27.2946 29.8865 27.3274C30.1161 29.1646 32.0845 31.7234 33.1343 31.1001C34.1513 30.5096 32.8718 27.6883 32.5438 27.4914C31.9861 27.3602 31.4612 27.1962 30.9363 26.9337ZM32.0845 24.6045C32.1173 24.9982 32.0517 25.3591 31.9204 25.7199C33.9216 26.6057 37.4319 25.7527 36.7101 24.4733C36.1524 23.5547 33.6592 23.3251 33.3639 23.4891C33.003 23.9156 32.5438 24.3093 32.0845 24.6045ZM30.641 22.4721C30.9691 22.6361 31.2643 22.8658 31.5268 23.161C33.0359 22.0456 34.1841 19.0931 33.1343 18.4698C32.1501 17.9121 30.313 20.4053 30.313 20.799C30.5098 21.3239 30.6082 21.9144 30.641 22.4721ZM29.0991 22.2425C28.8695 20.0773 26.3762 17.4528 25.6545 18.6994C25.1296 19.618 26.1466 21.9144 26.4418 22.0784C26.9995 22.2097 27.5572 22.4065 28.0493 22.6361C28.3774 22.4393 28.7383 22.3081 29.0991 22.2425ZM29.4928 23.6859C29.296 23.6859 29.1319 23.7516 28.9679 23.85C28.8695 23.9156 28.7711 23.9812 28.7055 24.0468V24.0796C28.5742 24.178 28.5086 24.3421 28.443 24.5061C28.4102 24.7029 28.4102 24.8998 28.4758 25.0966V25.1294C28.5086 25.195 28.5086 25.2606 28.5742 25.3262C28.8367 25.8183 29.5256 26.0152 30.0505 25.7199C30.5754 25.4247 30.7394 24.7357 30.4442 24.2436C30.2473 23.9156 29.8865 23.6859 29.4928 23.6859Z" fill="black"/>
</g>
<defs>
<clipPath id="clip0_34_125">
<rect width="56" height="56" fill="white"/>
</clipPath>
</defs>
</svg>
