<svg width="56" height="56" viewBox="0 0 56 56" fill="none" xmlns="http://www.w3.org/2000/svg">
<path d="M53.3111 40.0303C53.2375 39.8015 53.1008 39.598 52.9168 39.4432C52.7328 39.2884 52.5089 39.1887 52.2708 39.1553L50.2049 38.85L49.2818 36.9783C49.2103 36.8417 49.1148 36.719 49 36.6161V33.1336C50.4066 32.3314 51.7554 31.4318 53.0364 30.4412C53.2167 30.2979 53.3333 30.0893 53.3608 29.8607C53.3883 29.632 53.3246 29.4017 53.1834 29.2197C53.0422 29.0377 52.8349 28.9188 52.6066 28.8886C52.3782 28.8585 52.1472 28.9196 51.9636 29.0587C38.7511 39.3041 17.2498 39.3041 4.03639 29.0587C3.85281 28.9196 3.62179 28.8585 3.39344 28.8886C3.16509 28.9188 2.95783 29.0377 2.81663 29.2197C2.67543 29.4017 2.61167 29.632 2.63919 29.8607C2.66671 30.0893 2.78329 30.2979 2.96364 30.4412C4.50983 31.6321 6.15265 32.6918 7.87501 33.6096V37.695C6.34237 37.9162 4.95041 38.7097 3.97925 39.9159C3.0081 41.122 2.52984 42.6512 2.64074 44.1958C2.75163 45.7403 3.44344 47.1855 4.57694 48.2406C5.71044 49.2956 7.20149 49.8821 8.75001 49.8821C10.2985 49.8821 11.7896 49.2956 12.9231 48.2406C14.0566 47.1855 14.7484 45.7403 14.8593 44.1958C14.9702 42.6512 14.4919 41.122 13.5208 39.9159C12.5496 38.7097 11.1576 37.9162 9.62501 37.695V34.4925C13.2338 36.1734 17.0641 37.3301 21 37.9277V40.9902C20.8851 41.0941 20.7897 41.2177 20.7183 41.3551L19.7951 43.225L17.7319 43.5251C17.4935 43.5593 17.2695 43.6596 17.0852 43.8145C16.9009 43.9694 16.7636 44.1729 16.689 44.4018C16.6143 44.6307 16.6052 44.876 16.6627 45.1098C16.7202 45.3436 16.842 45.5567 17.0144 45.7248L18.5089 47.1817L18.1589 49.238C18.1181 49.4752 18.1446 49.7191 18.2353 49.9421C18.3259 50.1651 18.4772 50.3582 18.6719 50.4997C18.8667 50.6412 19.0971 50.7254 19.3372 50.7427C19.5773 50.76 19.8175 50.7098 20.0305 50.5977L21.875 49.63L23.7221 50.6012C23.9353 50.713 24.1754 50.763 24.4155 50.7455C24.6555 50.728 24.8859 50.6437 25.0805 50.5022C25.2752 50.3607 25.4264 50.1675 25.5171 49.9446C25.6078 49.7217 25.6343 49.4778 25.5938 49.2406L25.2438 47.1843L26.7374 45.7283C26.9096 45.5604 27.0315 45.3476 27.0892 45.1141C27.1469 44.8805 27.1381 44.6355 27.0638 44.4066C26.9895 44.1778 26.8528 43.9743 26.6689 43.8191C26.485 43.664 26.2614 43.5633 26.0234 43.5286L23.9549 43.225L23.0318 41.3533C22.9603 41.2167 22.8648 41.094 22.75 40.9911V38.1657C24.4928 38.3671 26.2456 38.4685 28 38.4693C30.0487 38.4672 32.095 38.3275 34.125 38.0511V41.195C32.5924 41.4162 31.2004 42.2097 30.2292 43.4159C29.2581 44.622 28.7798 46.1512 28.8907 47.6958C29.0016 49.2403 29.6934 50.6855 30.8269 51.7406C31.9604 52.7956 33.4515 53.3821 35 53.3821C36.5485 53.3821 38.0396 52.7956 39.1731 51.7406C40.3066 50.6855 40.9984 49.2403 41.1093 47.6958C41.2202 46.1512 40.7419 44.622 39.7708 43.4159C38.7996 42.2097 37.4076 41.4162 35.875 41.195V37.7825C39.8268 37.1046 43.6587 35.8545 47.25 34.0716V36.6187C47.1351 36.7226 47.0397 36.8462 46.9683 36.9836L46.0451 38.85L43.9819 39.1501C43.7435 39.1843 43.5195 39.2846 43.3352 39.4395C43.1509 39.5944 43.0136 39.7979 42.939 40.0268C42.8643 40.2557 42.8552 40.501 42.9127 40.7348C42.9702 40.9686 43.092 41.1817 43.2644 41.3498L44.7589 42.8067L44.4089 44.863C44.3681 45.1002 44.3946 45.3441 44.4853 45.5671C44.5759 45.7901 44.7272 45.9832 44.9219 46.1247C45.1167 46.2662 45.3471 46.3504 45.5872 46.3677C45.8273 46.385 46.0675 46.3348 46.2805 46.2227L48.125 45.255L49.9721 46.2262C50.1853 46.338 50.4254 46.388 50.6655 46.3705C50.9055 46.353 51.1359 46.2687 51.3305 46.1272C51.5252 45.9857 51.6764 45.7925 51.7671 45.5696C51.8578 45.3467 51.8843 45.1028 51.8438 44.8656L51.4938 42.8093L52.9874 41.3533C53.1604 41.1856 53.2825 40.9725 53.3398 40.7385C53.3971 40.5044 53.3871 40.259 53.3111 40.0303ZM13.125 43.75C13.125 44.6153 12.8684 45.4611 12.3877 46.1806C11.907 46.9 11.2237 47.4608 10.4242 47.7919C9.62482 48.1231 8.74516 48.2097 7.89649 48.0409C7.04782 47.8721 6.26827 47.4554 5.65642 46.8436C5.04456 46.2317 4.62788 45.4522 4.45907 44.6035C4.29026 43.7548 4.3769 42.8752 4.70804 42.0757C5.03917 41.2763 5.59993 40.593 6.31939 40.1123C7.03886 39.6316 7.88472 39.375 8.75001 39.375C9.9099 39.3764 11.0219 39.8377 11.8421 40.6579C12.6622 41.4781 13.1236 42.5901 13.125 43.75ZM23.2479 44.8936L24.8456 45.1255L23.6898 46.2525C23.5883 46.3515 23.5124 46.4738 23.4687 46.6087C23.4249 46.7436 23.4146 46.8871 23.4386 47.0268L23.7108 48.6176L22.2819 47.8668C22.1565 47.8005 22.0168 47.7658 21.875 47.7658C21.7332 47.7658 21.5935 47.8005 21.4681 47.8668L20.0393 48.6176L20.3114 47.0268C20.3354 46.8871 20.3251 46.7436 20.2814 46.6087C20.2376 46.4738 20.1617 46.3515 20.0603 46.2525L18.9044 45.1255L20.5021 44.8936C20.6425 44.8732 20.7759 44.819 20.8906 44.7356C21.0054 44.6522 21.0982 44.5422 21.161 44.415L21.875 42.9668L22.589 44.415C22.6518 44.5422 22.7446 44.6522 22.8594 44.7356C22.9741 44.819 23.1075 44.8732 23.2479 44.8936ZM39.375 47.25C39.375 48.1153 39.1184 48.9611 38.6377 49.6806C38.157 50.4 37.4737 50.9608 36.6742 51.2919C35.8748 51.6231 34.9952 51.7097 34.1465 51.5409C33.2978 51.3721 32.5183 50.9554 31.9064 50.3436C31.2946 49.7317 30.8779 48.9522 30.7091 48.1035C30.5403 47.2548 30.6269 46.3752 30.958 45.5757C31.2892 44.7763 31.8499 44.093 32.5694 43.6123C33.2889 43.1316 34.1347 42.875 35 42.875C36.1599 42.8764 37.2719 43.3377 38.0921 44.1579C38.9122 44.9781 39.3736 46.0901 39.375 47.25ZM49.9398 41.8775C49.8383 41.9765 49.7624 42.0988 49.7187 42.2337C49.6749 42.3686 49.6646 42.5121 49.6886 42.6518L49.9608 44.2426L48.5319 43.4918C48.4065 43.4255 48.2668 43.3908 48.125 43.3908C47.9832 43.3908 47.8435 43.4255 47.7181 43.4918L46.2893 44.2426L46.5614 42.6518C46.5854 42.5121 46.5751 42.3686 46.5314 42.2337C46.4876 42.0988 46.4117 41.9765 46.3103 41.8775L45.1544 40.7505L46.7521 40.5186C46.8925 40.4982 47.0259 40.444 47.1406 40.3606C47.2554 40.2772 47.3482 40.1672 47.411 40.04L48.125 38.5918L48.839 40.04C48.9018 40.1672 48.9946 40.2772 49.1094 40.3606C49.2241 40.444 49.3575 40.4982 49.4979 40.5186L51.0956 40.7505L49.9398 41.8775Z" fill="black"/>
<path d="M47.25 49.875H46.375V49C46.375 48.7679 46.2828 48.5454 46.1187 48.3813C45.9546 48.2172 45.7321 48.125 45.5 48.125C45.2679 48.125 45.0454 48.2172 44.8813 48.3813C44.7172 48.5454 44.625 48.7679 44.625 49V49.875H43.75C43.5179 49.875 43.2954 49.9672 43.1313 50.1313C42.9672 50.2954 42.875 50.5179 42.875 50.75C42.875 50.9821 42.9672 51.2046 43.1313 51.3687C43.2954 51.5328 43.5179 51.625 43.75 51.625H44.625V52.5C44.625 52.7321 44.7172 52.9546 44.8813 53.1187C45.0454 53.2828 45.2679 53.375 45.5 53.375C45.7321 53.375 45.9546 53.2828 46.1187 53.1187C46.2828 52.9546 46.375 52.7321 46.375 52.5V51.625H47.25C47.4821 51.625 47.7046 51.5328 47.8687 51.3687C48.0328 51.2046 48.125 50.9821 48.125 50.75C48.125 50.5179 48.0328 50.2954 47.8687 50.1313C47.7046 49.9672 47.4821 49.875 47.25 49.875Z" fill="black"/>
<path d="M3.18158 16.5192C7.20565 18.0551 11.4478 18.9432 15.7501 19.1503V22.2294C15.635 22.3328 15.5396 22.4561 15.4683 22.5934L14.5452 24.465L12.4793 24.766C12.2413 24.8006 12.0176 24.9011 11.8337 25.0562C11.6498 25.2112 11.513 25.4147 11.4387 25.6435C11.3644 25.8723 11.3556 26.1173 11.4133 26.3508C11.4711 26.5844 11.593 26.7971 11.7653 26.9649L13.259 28.4218L12.909 30.4789C12.8682 30.7161 12.8947 30.9601 12.9853 31.183C13.076 31.406 13.2273 31.5992 13.422 31.7407C13.6168 31.8822 13.8472 31.9663 14.0873 31.9836C14.3274 32.0009 14.5676 31.9507 14.7806 31.8387L16.6251 30.8674L18.4722 31.8395C18.6577 31.9367 18.8639 31.9877 19.0733 31.9883C19.2611 31.9876 19.4464 31.9461 19.6165 31.8666C19.7866 31.7871 19.9373 31.6715 20.0582 31.5279C20.1791 31.3842 20.2672 31.216 20.3166 31.0349C20.3659 30.8537 20.3752 30.664 20.3438 30.4789L19.9938 28.4218L21.4883 26.9649C21.6604 26.7969 21.782 26.5841 21.8395 26.3506C21.897 26.1171 21.888 25.8722 21.8137 25.6435C21.7393 25.4148 21.6025 25.2114 21.4187 25.0564C21.2349 24.9013 21.0114 24.8008 20.7735 24.766L18.7076 24.465L17.7845 22.5934C17.7124 22.4559 17.6161 22.3326 17.5001 22.2294V19.2124C17.7713 19.2124 18.0408 19.2299 18.3121 19.2299C22.1648 19.2183 26.0032 18.7593 29.7501 17.8623V21.07C28.2174 21.2912 26.8255 22.0848 25.8543 23.2909C24.8832 24.4971 24.4049 26.0263 24.5158 27.5708C24.6267 29.1154 25.3185 30.5606 26.452 31.6156C27.5855 32.6707 29.0766 33.2572 30.6251 33.2572C32.1736 33.2572 33.6647 32.6707 34.7982 31.6156C35.9317 30.5606 36.6235 29.1154 36.7344 27.5708C36.8453 26.0263 36.367 24.4971 35.3958 23.2909C34.4247 22.0848 33.0327 21.2912 31.5001 21.07V17.4125C35.8108 16.2411 39.9348 14.4675 43.7501 12.1442V14.9442C42.2174 15.1654 40.8255 15.9589 39.8543 17.165C38.8832 18.3712 38.4049 19.9004 38.5158 21.445C38.6267 22.9895 39.3185 24.4347 40.452 25.4898C41.5855 26.5448 43.0766 27.1313 44.6251 27.1313C46.1736 27.1313 47.6647 26.5448 48.7982 25.4898C49.9317 24.4347 50.6235 22.9895 50.7344 21.445C50.8453 19.9004 50.367 18.3712 49.3958 17.165C48.4247 15.9589 47.0327 15.1654 45.5001 14.9442V11.0067C48.376 9.06466 50.961 6.72332 53.1773 4.05303C53.2522 3.96434 53.3086 3.86166 53.3434 3.75096C53.3781 3.64025 53.3905 3.52374 53.3799 3.4082C53.3692 3.29265 53.3356 3.18039 53.2811 3.07794C53.2267 2.97549 53.1523 2.8849 53.0625 2.81144C52.9727 2.73798 52.8692 2.68312 52.7579 2.65005C52.6467 2.61699 52.53 2.60637 52.4147 2.61882C52.2993 2.63128 52.1876 2.66656 52.086 2.7226C51.9844 2.77865 51.8949 2.85434 51.8228 2.94528C41.3421 15.7754 19.8075 21.1322 3.81858 14.889C3.71155 14.8472 3.59732 14.8269 3.48243 14.8292C3.36753 14.8315 3.25422 14.8564 3.14896 14.9025C3.0437 14.9487 2.94855 15.015 2.86895 15.0979C2.78934 15.1808 2.72685 15.2786 2.68502 15.3856C2.64319 15.4926 2.62286 15.6069 2.62518 15.7217C2.6275 15.8366 2.65242 15.95 2.69853 16.0552C2.74464 16.1605 2.81103 16.2556 2.89392 16.3352C2.9768 16.4148 3.07455 16.4773 3.18158 16.5192ZM17.998 26.1302L19.5957 26.3629L18.4398 27.4899C18.3382 27.5889 18.2622 27.7111 18.2183 27.846C18.1744 27.9809 18.1639 28.1244 18.1878 28.2643L18.4617 29.8559L17.032 29.1052C16.9067 29.0385 16.767 29.0037 16.6251 29.0037C16.4832 29.0037 16.3435 29.0385 16.2182 29.1052L14.7885 29.8559L15.0623 28.2643C15.0863 28.1244 15.0758 27.9809 15.0319 27.846C14.988 27.7111 14.912 27.5889 14.8103 27.4899L13.6545 26.3629L15.2522 26.1302C15.3925 26.1096 15.5256 26.0553 15.6402 25.972C15.7548 25.8886 15.8475 25.7786 15.9102 25.6515L16.6251 24.2043L17.34 25.6515C17.4027 25.7786 17.4953 25.8886 17.6099 25.972C17.7246 26.0553 17.8577 26.1096 17.998 26.1302ZM35.0001 27.125C35.0001 27.9903 34.7435 28.8362 34.2628 29.5556C33.782 30.2751 33.0988 30.8359 32.2993 31.167C31.4999 31.4981 30.6202 31.5848 29.7716 31.416C28.9229 31.2472 28.1433 30.8305 27.5315 30.2186C26.9196 29.6068 26.503 28.8272 26.3341 27.9785C26.1653 27.1299 26.252 26.2502 26.5831 25.4508C26.9142 24.6514 27.475 23.9681 28.1945 23.4873C28.9139 23.0066 29.7598 22.75 30.6251 22.75C31.785 22.7514 32.897 23.2128 33.7171 24.033C34.5373 24.8531 34.9987 25.9651 35.0001 27.125ZM49.0001 21C49.0001 21.8653 48.7435 22.7112 48.2628 23.4306C47.782 24.1501 47.0988 24.7109 46.2993 25.042C45.4999 25.3731 44.6202 25.4598 43.7716 25.291C42.9229 25.1222 42.1434 24.7055 41.5315 24.0936C40.9196 23.4818 40.503 22.7022 40.3342 21.8535C40.1653 21.0049 40.252 20.1252 40.5831 19.3258C40.9142 18.5264 41.475 17.8431 42.1945 17.3623C42.9139 16.8816 43.7598 16.625 44.6251 16.625C45.785 16.6264 46.897 17.0878 47.7171 17.908C48.5373 18.7281 48.9987 19.8401 49.0001 21Z" fill="black"/>
<path d="M14.875 12.25H16.625V14C16.625 14.2321 16.7172 14.4546 16.8813 14.6187C17.0454 14.7828 17.2679 14.875 17.5 14.875C17.7321 14.875 17.9546 14.7828 18.1187 14.6187C18.2828 14.4546 18.375 14.2321 18.375 14V12.25H20.125C20.3571 12.25 20.5796 12.1578 20.7437 11.9937C20.9078 11.8296 21 11.6071 21 11.375C21 11.1429 20.9078 10.9204 20.7437 10.7563C20.5796 10.5922 20.3571 10.5 20.125 10.5H18.375V8.75C18.375 8.51794 18.2828 8.29538 18.1187 8.13128C17.9546 7.96719 17.7321 7.875 17.5 7.875C17.2679 7.875 17.0454 7.96719 16.8813 8.13128C16.7172 8.29538 16.625 8.51794 16.625 8.75V10.5H14.875C14.6429 10.5 14.4204 10.5922 14.2563 10.7563C14.0922 10.9204 14 11.1429 14 11.375C14 11.6071 14.0922 11.8296 14.2563 11.9937C14.4204 12.1578 14.6429 12.25 14.875 12.25Z" fill="black"/>
<path d="M6.125 24.5C6.60825 24.5 7 24.1082 7 23.625C7 23.1418 6.60825 22.75 6.125 22.75C5.64175 22.75 5.25 23.1418 5.25 23.625C5.25 24.1082 5.64175 24.5 6.125 24.5Z" fill="black"/>
</svg>
