<svg width="42" height="42" viewBox="0 0 42 42" fill="none" xmlns="http://www.w3.org/2000/svg">
<g clip-path="url(#clip0_34_124)">
<path d="M8.041 26.3741C8.19841 26.3741 8.35591 26.3141 8.47601 26.194L9.40591 25.264C9.64618 25.0237 9.64618 24.6342 9.40591 24.3939C9.16564 24.1537 8.77608 24.1537 8.53589 24.3939L7.60598 25.3239C7.36571 25.5642 7.36571 25.9537 7.60598 26.194C7.72616 26.3141 7.88358 26.3741 8.041 26.3741Z" fill="black"/>
<path d="M34.1814 26.194C34.3015 26.3141 34.459 26.3741 34.6164 26.3741C34.7738 26.3741 34.9313 26.3141 35.0514 26.194C35.2917 25.9537 35.2917 25.5641 35.0514 25.3239L34.1215 24.3939C33.8812 24.1537 33.4917 24.1537 33.2515 24.3939C33.0112 24.6342 33.0112 25.0238 33.2515 25.264L34.1814 26.194Z" fill="black"/>
<path d="M40.1447 19.8872C36.6699 18.2735 31.443 18.1191 30.3876 18.1046L25.4032 14.9327C23.9303 13.9954 22.2292 13.5 20.4834 13.5H14.6249C13.1081 13.5 11.5893 13.8586 10.2327 14.5369L7.11195 16.0972C6.17178 16.5673 5.16616 16.8717 4.12305 17.0022L1.69099 17.3062C0.726961 17.4266 0 18.2501 0 19.2216V23.1484C0 24.2977 0.771832 25.3209 1.87696 25.6367L4.78341 26.4671C5.28265 28.0478 6.76249 29.197 8.50607 29.197C9.9563 29.197 11.2234 28.4014 11.8963 27.2242H30.7612C31.4341 28.4014 32.7012 29.197 34.1514 29.197C36.3036 29.197 38.0545 27.4461 38.0545 25.2939C38.0545 23.1417 36.3036 21.3908 34.1514 21.3908C31.9992 21.3908 30.2483 23.1416 30.2483 25.2939C30.2483 25.5329 30.271 25.7665 30.3124 25.9938H12.345C12.3864 25.7665 12.4091 25.5328 12.4091 25.2939C12.4091 23.1417 10.6582 21.3908 8.50598 21.3908C6.40648 21.3908 4.68964 23.0573 4.60687 25.1369L2.21493 24.4535C1.63537 24.2879 1.23047 23.7513 1.23047 23.1484V21.3062H1.93036C2.27013 21.3062 2.54559 21.0307 2.54559 20.6909C2.54559 20.3512 2.27013 20.0757 1.93036 20.0757H1.23047V19.2216C1.23047 18.8694 1.49404 18.5708 1.84357 18.5271L4.27563 18.2231C5.45754 18.0754 6.59687 17.7304 7.66221 17.1977L7.94284 17.0574L9.08086 18.1902C9.81807 18.9274 10.7983 19.3335 11.8408 19.3335H13.1092C13.4489 19.3335 13.7244 19.058 13.7244 18.7183C13.7244 18.3785 13.4489 18.103 13.1092 18.103H11.8408C11.7333 18.103 11.6269 18.096 11.5218 18.0835L12.2016 15.0808C12.9876 14.8502 13.8066 14.7304 14.6249 14.7304H17.7546V18.1029H15.7396C15.3998 18.1029 15.1243 18.3784 15.1243 18.7182C15.1243 19.0579 15.3998 19.3334 15.7396 19.3334H30.206C30.2644 19.3334 36.0767 19.3546 39.6265 21.0031C39.8348 21.0998 40.0203 21.2323 40.1789 21.3908H39.4122C39.0724 21.3908 38.7969 21.6662 38.7969 22.006C38.7969 22.3458 39.0724 22.6212 39.4122 22.6212H40.7585C40.7651 22.6878 40.7696 22.7548 40.7696 22.8227V25.0057C40.7696 25.6152 40.5014 25.9938 40.0697 25.9938C39.7299 25.9938 39.4545 26.2692 39.4545 26.609C39.4545 26.9488 39.7299 27.2242 40.0697 27.2242C40.6146 27.2242 41.1096 27 41.4638 26.5929C41.8146 26.1896 42.0001 25.6408 42.0001 25.0057V22.8227C42 21.5629 41.2717 20.4106 40.1447 19.8872ZM34.1514 22.6213C35.6251 22.6213 36.8241 23.8203 36.8241 25.294C36.8241 26.7677 35.6251 27.9666 34.1514 27.9666C32.6777 27.9666 31.4788 26.7677 31.4788 25.294C31.4788 23.8203 32.6777 22.6213 34.1514 22.6213ZM8.50607 22.6213C9.97976 22.6213 11.1787 23.8203 11.1787 25.294C11.1787 26.7677 9.97976 27.9666 8.50607 27.9666C7.03237 27.9666 5.83341 26.7677 5.83341 25.294C5.83341 23.8203 7.03246 22.6213 8.50607 22.6213ZM10.3572 17.6544C10.2127 17.5576 10.0766 17.4459 9.95088 17.3202L9.10637 16.4757L10.7829 15.6374C10.7944 15.6317 10.8061 15.6263 10.8176 15.6207L10.3572 17.6544ZM18.985 14.7304H20.4834C21.9947 14.7304 23.4675 15.1593 24.7426 15.9707L28.0933 18.103H18.985V14.7304Z" fill="black"/>
<path d="M14.4243 23.3635C14.0845 23.3635 13.8091 23.639 13.8091 23.9788C13.8091 24.3185 14.0845 24.594 14.4243 24.594H28.2333C28.5731 24.594 28.8485 24.3185 28.8485 23.9788C28.8485 23.639 28.5731 23.3635 28.2333 23.3635H14.4243Z" fill="black"/>
</g>
<defs>
<clipPath id="clip0_34_124">
<rect width="42" height="42" fill="white"/>
</clipPath>
</defs>
</svg>
