<svg width="42" height="42" viewBox="0 0 42 42" fill="none" xmlns="http://www.w3.org/2000/svg">
<path d="M20.75 11.375C18.5868 11.375 16.4721 12.0165 14.6735 13.2183C12.8748 14.4201 11.4729 16.1283 10.6451 18.1269C9.81724 20.1255 9.60064 22.3246 10.0227 24.4463C10.4447 26.568 11.4864 28.5168 13.016 30.0465C14.5457 31.5761 16.4945 32.6178 18.6162 33.0398C20.7379 33.4619 22.937 33.2453 24.9356 32.4174C26.9342 31.5896 28.6424 30.1877 29.8442 28.389C31.046 26.5904 31.6875 24.4757 31.6875 22.3125C31.6843 19.4127 30.5309 16.6326 28.4804 14.5821C26.4299 12.5316 23.6498 11.3782 20.75 11.375ZM20.75 31.5C18.9329 31.5 17.1566 30.9612 15.6457 29.9516C14.1348 28.9421 12.9572 27.5072 12.2619 25.8284C11.5665 24.1496 11.3845 22.3023 11.739 20.5201C12.0935 18.7379 12.9686 17.1009 14.2535 15.816C15.5384 14.5311 17.1754 13.656 18.9576 13.3015C20.7398 12.947 22.5871 13.129 24.2659 13.8244C25.9447 14.5197 27.3796 15.6973 28.3891 17.2082C29.3987 18.7191 29.9375 20.4954 29.9375 22.3125C29.9347 24.7483 28.9659 27.0836 27.2435 28.806C25.5211 30.5284 23.1858 31.4972 20.75 31.5Z" fill="black"/>
<path d="M20.75 14.875C19.279 14.875 17.841 15.3112 16.6179 16.1284C15.3949 16.9457 14.4416 18.1073 13.8786 19.4663C13.3157 20.8253 13.1684 22.3208 13.4554 23.7635C13.7424 25.2062 14.4507 26.5315 15.4909 27.5716C16.531 28.6118 17.8563 29.3201 19.299 29.6071C20.7418 29.8941 22.2372 29.7468 23.5962 29.1839C24.9552 28.6209 26.1168 27.6676 26.9341 26.4446C27.7513 25.2215 28.1875 23.7835 28.1875 22.3125C28.1852 20.3407 27.4009 18.4503 26.0066 17.056C24.6123 15.6617 22.7218 14.8773 20.75 14.875ZM20.75 28C19.6251 28 18.5255 27.6664 17.5902 27.0415C16.6549 26.4165 15.9259 25.5283 15.4954 24.489C15.065 23.4498 14.9523 22.3062 15.1718 21.2029C15.3912 20.0997 15.9329 19.0862 16.7283 18.2908C17.5237 17.4954 18.5372 16.9537 19.6404 16.7343C20.7437 16.5148 21.8873 16.6275 22.9265 17.0579C23.9658 17.4884 24.854 18.2174 25.479 19.1527C26.1039 20.088 26.4375 21.1876 26.4375 22.3125C26.4357 23.8204 25.8358 25.2659 24.7696 26.3321C23.7034 27.3983 22.2579 27.9981 20.75 28Z" fill="black"/>
<path d="M20.75 24.5C20.1698 24.5 19.6134 24.2695 19.2032 23.8593C18.793 23.4491 18.5625 22.8927 18.5625 22.3125C18.5625 22.0804 18.4703 21.8579 18.3062 21.6938C18.1421 21.5297 17.9196 21.4375 17.6875 21.4375C17.4554 21.4375 17.2329 21.5297 17.0688 21.6938C16.9047 21.8579 16.8125 22.0804 16.8125 22.3125C16.8137 23.3564 17.2289 24.3573 17.967 25.0955C18.7052 25.8336 19.7061 26.2488 20.75 26.25C20.9821 26.25 21.2046 26.1578 21.3687 25.9937C21.5328 25.8296 21.625 25.6071 21.625 25.375C21.625 25.1429 21.5328 24.9204 21.3687 24.7563C21.2046 24.5922 20.9821 24.5 20.75 24.5Z" fill="black"/>
<path d="M35.625 10.5H30.4362C30.2922 10.5 30.1504 10.4645 30.0234 10.3966C29.8964 10.3286 29.7882 10.2304 29.7082 10.1106L27.7675 7.19863C27.3683 6.59884 26.827 6.10707 26.1918 5.76709C25.5565 5.42711 24.8471 5.24948 24.1266 5.25H17.3734C16.6529 5.24948 15.9435 5.42711 15.3082 5.76709C14.673 6.10707 14.1317 6.59884 13.7325 7.19863L12 9.8V9.625C12 9.16087 11.8156 8.71575 11.4874 8.38756C11.1592 8.05938 10.7141 7.875 10.25 7.875H7.625C7.16087 7.875 6.71575 8.05938 6.38756 8.38756C6.05937 8.71575 5.875 9.16087 5.875 9.625V10.5C4.7151 10.5014 3.60311 10.9628 2.78294 11.7829C1.96277 12.6031 1.50139 13.7151 1.5 14.875V32.375C1.50139 33.5349 1.96277 34.6469 2.78294 35.4671C3.60311 36.2872 4.7151 36.7486 5.875 36.75H35.625C36.7849 36.7486 37.8969 36.2872 38.7171 35.4671C39.5372 34.6469 39.9986 33.5349 40 32.375V14.875C39.9986 13.7151 39.5372 12.6031 38.7171 11.7829C37.8969 10.9628 36.7849 10.5014 35.625 10.5ZM7.625 9.625H10.25V10.5H7.625V9.625ZM38.25 32.375C38.25 33.0712 37.9734 33.7389 37.4812 34.2312C36.9889 34.7234 36.3212 35 35.625 35H5.875C5.17881 35 4.51113 34.7234 4.01884 34.2312C3.52656 33.7389 3.25 33.0712 3.25 32.375V14.875C3.25 14.1788 3.52656 13.5111 4.01884 13.0188C4.51113 12.5266 5.17881 12.25 5.875 12.25H11.0638C11.4965 12.2505 11.9226 12.1441 12.3043 11.9402C12.6859 11.7362 13.0112 11.4411 13.2513 11.081L15.1929 8.169C15.4322 7.80993 15.7564 7.5154 16.1368 7.3115C16.5171 7.1076 16.9418 7.00061 17.3734 7H24.1266C24.5594 6.99946 24.9855 7.1059 25.3671 7.30985C25.7488 7.5138 26.0741 7.80894 26.3141 8.169L28.2557 11.081C28.4951 11.4401 28.8193 11.7346 29.1996 11.9385C29.58 12.1424 30.0047 12.2494 30.4362 12.25H35.625C36.3212 12.25 36.9889 12.5266 37.4812 13.0188C37.9734 13.5111 38.25 14.1788 38.25 14.875V32.375Z" fill="black"/>
</svg>
