<svg width="48" height="48" viewBox="0 0 48 48" fill="none" xmlns="http://www.w3.org/2000/svg">
<g clip-path="url(#clip0_66_90)">
<path d="M22.0401 44H1.00007C0.692066 44 0.402066 43.858 0.212066 43.616C0.0220658 43.372 -0.0459342 43.058 0.0280658 42.758L1.10807 38.418C1.65207 36.26 3.23007 34.56 5.32607 33.87L13.3621 31.192C14.5541 30.694 15.2981 28.898 15.3741 26.25C14.4541 25.414 12.4801 23.374 12.4801 21.282C12.4801 20.548 12.2341 20.398 12.2321 20.396C11.9281 20.314 11.7681 20.126 11.6501 19.832C11.5501 19.58 10.6801 17.348 10.6801 15.84C10.6801 15.76 10.6901 15.68 10.7101 15.602C10.8361 15.084 11.1401 14.564 11.5981 14.248C11.6101 14.008 11.6241 13.742 11.6401 13.446C11.6901 12.458 11.7601 11.14 11.7601 9.5C11.7601 5.748 16.3481 0 22.0001 0C27.1141 0 29.5901 2.724 30.0001 4.484C31.2501 5.176 32.3401 6.318 32.3401 9.5V14.254C32.8361 14.596 33.1421 15.144 33.2701 15.522C33.3041 15.624 33.3201 15.732 33.3201 15.84C33.3201 16.392 32.8721 16.88 32.3201 16.88C31.8181 16.88 31.4041 16.544 31.3321 16.07C31.2941 16 31.2461 15.93 31.2141 15.906C30.6641 15.906 30.3381 15.492 30.3381 14.94V9.5C30.3381 6.89 29.5001 6.468 29.0001 6.218C28.6981 6.064 28.0601 5.744 28.0601 4.98C28.0241 4.378 26.3401 2 22.0001 2C17.2401 2 13.7601 6.932 13.7601 9.5C13.7601 11.184 13.6901 12.536 13.6341 13.55C13.6061 14.128 13.5801 14.594 13.5801 14.94C13.5801 15.458 13.1861 15.884 12.6821 15.936C12.7141 16.756 13.1241 18.042 13.3861 18.76C13.9221 19.14 14.4801 19.916 14.4801 21.28C14.4801 22.408 15.7961 24.014 17.0201 25.03C17.2481 25.22 17.3801 25.502 17.3801 25.8C17.3801 29.596 16.2021 32.176 14.0621 33.064L5.95607 35.77C4.50807 36.248 3.42207 37.42 3.04807 38.906L2.28007 42H22.0401C22.5921 42 23.0401 42.448 23.0401 43C23.0401 43.552 22.5921 44 22.0401 44Z" fill="black"/>
<path d="M36 48C35.868 48 35.736 47.974 35.612 47.92C35.136 47.722 24 42.908 24 33.072V24.714C24 24.286 24.274 23.904 24.68 23.766L35.68 20.052C35.888 19.982 36.114 19.982 36.32 20.052L47.32 23.766C47.726 23.902 48 24.284 48 24.714V33.072C48 42.908 36.864 47.722 36.388 47.922C36.264 47.974 36.132 48 36 48ZM26 25.432V33.072C26 40.642 34.11 44.988 36 45.9C37.888 44.986 46 40.624 46 33.072V25.432L36 22.056L26 25.432Z" fill="black"/>
<path d="M35 38C34.982 38 34.962 38 34.946 37.998C34.66 37.982 34.398 37.846 34.22 37.624L30.22 32.624C29.876 32.192 29.944 31.564 30.376 31.218C30.81 30.874 31.438 30.946 31.782 31.374L35.082 35.502L41.292 29.292C41.682 28.902 42.316 28.902 42.706 29.292C43.096 29.682 43.096 30.316 42.706 30.706L35.706 37.706C35.52 37.896 35.264 38 35 38Z" fill="black"/>
</g>
<defs>
<clipPath id="clip0_66_90">
<rect width="48" height="48" fill="white"/>
</clipPath>
</defs>
</svg>
