<svg width="42" height="42" viewBox="0 0 42 42" fill="none" xmlns="http://www.w3.org/2000/svg">
<path d="M36.886 20.4494C37.4077 20.3961 37.7875 19.9308 37.7342 19.41C36.9221 11.3876 30.7208 5.19105 22.9284 4.2092L23.135 3.40353C23.2532 2.93775 23.1501 2.4363 22.8583 2.06204C22.5803 1.7041 22.1669 1.5 21.7226 1.5H19.8109C19.3542 1.5 18.9322 1.71485 18.6542 2.08954C18.3633 2.48184 18.2752 2.99747 18.4175 3.46885L18.6388 4.20362C10.7939 5.17214 4.57109 11.41 3.79034 19.486C3.74006 20.0077 4.12163 20.4713 4.64327 20.5229C4.67421 20.5254 4.70515 20.5263 4.73609 20.5263C5.21949 20.5263 5.63199 20.1598 5.67969 19.6686C6.43509 11.8508 12.9213 5.95461 20.7657 5.95461C28.5745 5.95461 35.0568 11.8208 35.8457 19.5999C35.899 20.122 36.3657 20.5005 36.886 20.4494ZM20.3786 3.39709H21.1765L21.0051 4.06827C20.9247 4.06741 20.8465 4.05709 20.7657 4.05709C20.7026 4.05709 20.642 4.06483 20.5792 4.06569L20.3786 3.39709Z" fill="black"/>
<path d="M39.3279 21.5493H37.6156H3.91615H2.44876C1.92539 21.5493 1.5 21.9747 1.5 22.4985C1.5 23.0223 1.92539 23.4477 2.44876 23.4477H3.10705C3.52814 25.0156 4.9487 26.1792 6.64899 26.1792H10.264C11.4452 27.6183 14.9614 31.8791 14.9614 31.8791C14.9854 31.907 15.0108 31.9345 15.0383 31.9612L20.614 37.2807L21.1756 37.7684L20.415 38.2965C19.9853 38.596 19.8783 39.1886 20.1778 39.6174C20.3626 39.8834 20.6582 40.026 20.9573 40.026C21.1455 40.026 21.3341 39.9702 21.4991 39.8555L28.8322 34.7258L31.4448 37.1793C31.6282 37.3521 31.862 37.4372 32.0953 37.4372C32.3475 37.4372 32.6002 37.337 32.7867 37.1385C33.1455 36.7557 33.1266 36.155 32.7454 35.797L29.4867 32.735C29.1889 32.4562 28.7622 32.4166 28.415 32.5907C28.2758 32.1373 28.2586 31.6561 28.3815 31.1882C28.5796 30.4371 28.9581 29.7341 29.4751 29.1574L31.642 26.7451C31.7842 26.5874 31.8659 26.3872 31.8809 26.1797H34.8844C36.5839 26.1797 38.0036 25.0161 38.4247 23.4481H39.3279C39.8525 23.4481 40.2771 23.0227 40.2771 22.4989C40.2771 21.9751 39.8521 21.5493 39.3279 21.5493ZM28.0631 27.8898C27.3455 28.6895 26.82 29.6619 26.5459 30.7047C26.27 31.7553 26.3826 32.8489 26.8595 33.8153L22.783 36.6512L21.8923 35.8787L16.3897 30.6265C16.0992 30.2759 14.1145 27.8692 12.7231 26.1792H14.1411C14.1411 26.1792 17.3517 28.9202 17.3758 28.9374C18.4479 29.6937 20.9083 30.3666 22.0938 30.3666C23.7731 30.3666 25.3956 29.6585 26.5454 28.4239C26.9304 28.011 27.2854 27.6453 27.5612 27.3639C28.0266 26.8891 28.5366 26.5432 29.0759 26.3344C29.2813 26.2562 29.4501 26.2123 29.5859 26.1917L28.0631 27.8898ZM25.1588 27.1289C24.3656 27.9805 23.2484 28.4686 22.0938 28.4686C21.1897 28.4686 19.2059 27.88 18.5007 27.4077L17.063 26.1792H26.0646C25.8042 26.4482 25.4983 26.7649 25.1588 27.1289ZM34.8844 24.2817H29.7715C29.7578 24.2817 29.7436 24.2817 29.7286 24.2817H6.64899C6.01477 24.2817 5.45617 23.9483 5.14035 23.4477H36.3914C36.0755 23.9483 35.5187 24.2817 34.8844 24.2817Z" fill="black"/>
<path d="M32.0252 17.131C32.5258 16.9758 32.8051 16.4435 32.6491 15.9433C30.8797 10.2615 25.8656 8.62307 25.6529 8.55518C25.1557 8.40092 24.6233 8.67464 24.4648 9.17308C24.3062 9.67066 24.5812 10.2048 25.0793 10.365C25.2537 10.4218 29.3706 11.7994 30.8363 16.5066C30.9634 16.9135 31.3377 17.1744 31.7425 17.1744C31.8366 17.1748 31.932 17.1602 32.0252 17.131Z" fill="black"/>
</svg>
