<svg width="56" height="56" viewBox="0 0 56 56" fill="none" xmlns="http://www.w3.org/2000/svg">
<g clip-path="url(#clip0_34_126)">
<path d="M54.7625 0.162842C54.5432 0.16261 54.3309 0.240206 54.1632 0.38171C53.8601 0.63781 53.5545 0.891474 53.2464 1.14259C38.5059 13.246 20.3089 20.3673 1.26852 21.4838L0.886224 21.5052C0.374721 21.5371 -0.0139523 21.9776 0.0179442 22.4891C0.0319786 22.7147 0.128016 22.9274 0.28773 23.0872L10.4946 33.2941C10.6682 33.4688 10.9043 33.5673 11.1506 33.5678C11.2155 33.5678 11.2801 33.5612 11.3436 33.5484C11.6511 33.4831 11.9047 33.2665 12.0173 32.9731L16.2151 22.0563L26.3681 29.6707C26.778 29.9783 27.3596 29.8953 27.6672 29.4854C27.7354 29.3945 27.7863 29.2919 27.8175 29.1826L31.1728 17.4373L42.1712 25.0516C42.5918 25.3442 43.1702 25.2403 43.4627 24.8195C43.5596 24.6801 43.6165 24.5168 43.627 24.3473L44.4621 10.8993L54.347 15.845C54.6353 15.9871 54.9765 15.9698 55.2489 15.7995C55.5229 15.6305 55.6897 15.3318 55.6897 15.0099V1.09144C55.69 0.579004 55.2749 0.16319 54.7625 0.162842ZM10.7971 30.9744L3.04359 23.2209C6.85492 22.9232 10.6445 22.3921 14.3908 21.6304L10.7971 30.9744ZM26.4034 27.3769L17.7433 20.8816C21.6692 19.9316 25.5277 18.7228 29.2938 17.2628L26.4034 27.3769ZM41.8752 22.5899L32.3633 16.0018C35.8843 14.4866 39.3072 12.7527 42.6119 10.8102L41.8752 22.5899ZM53.8339 13.5086L45.2369 9.20961C48.2168 7.32273 51.0871 5.26813 53.8339 3.05579V13.5086Z" fill="black"/>
<path d="M55.5912 42.7119C55.4124 42.5912 55.1973 42.5365 54.9826 42.5573L54.6179 42.5926C36.3725 44.3988 18.0369 40.1887 2.40701 30.6041C2.07668 30.405 1.74727 30.2024 1.4188 29.9964C0.983962 29.7252 0.411566 29.858 0.140504 30.2928C0.0260244 30.4764 -0.0206024 30.6941 0.00839439 30.9085L1.87996 44.8269C1.94805 45.3348 2.41513 45.6914 2.92304 45.6232C3.07556 45.6028 3.22066 45.5447 3.34511 45.4542L12.3801 38.8828L14.8807 51.3835C14.9807 51.886 15.4693 52.2124 15.9719 52.1124C16.1239 52.0822 16.2659 52.0144 16.3849 51.9151L26.5231 43.4648L30.6986 54.3212C30.8822 54.7996 31.4189 55.0387 31.8973 54.8551C32.0329 54.8031 32.1544 54.7199 32.2519 54.6125L40.68 45.3419L46.5369 55.3734C46.6967 55.6507 46.9882 55.826 47.308 55.8374H47.3386C47.6464 55.8374 47.9342 55.6848 48.1069 55.43L55.8409 44.0002C56.1276 43.5754 56.0158 42.9988 55.5912 42.7119ZM3.51213 43.037L2.1073 32.588C5.08075 34.3567 8.15417 35.9516 11.312 37.3648L3.51213 43.037ZM16.3941 49.4868L14.2173 38.6007C17.7748 40.0406 21.4243 41.2421 25.1414 42.1973L16.3941 49.4868ZM31.89 52.2436L28.3167 42.9461C31.8056 43.7004 35.3387 44.2337 38.8947 44.543L31.89 52.2436ZM47.3961 53.1715L42.5033 44.7833C46.0711 44.942 49.6452 44.8764 53.2048 44.5866L47.3961 53.1715Z" fill="black"/>
<path d="M48.2666 28.9282C46.7292 28.9282 45.4829 30.1745 45.4829 31.7119C45.4829 33.2493 46.7292 34.4956 48.2666 34.4956C49.804 34.4956 51.0503 33.2493 51.0503 31.7119C51.0503 30.1745 49.8039 28.9282 48.2666 28.9282ZM48.2666 32.6398C47.7542 32.6398 47.3387 32.2243 47.3387 31.7119C47.3387 31.1995 47.7542 30.784 48.2666 30.784C48.779 30.784 49.1945 31.1995 49.1945 31.7119C49.1945 32.2243 48.779 32.6398 48.2666 32.6398Z" fill="black"/>
<path d="M5.58325 48.4141C4.04584 48.4141 2.79956 49.6603 2.79956 51.1978C2.79956 52.7352 4.04584 53.9814 5.58325 53.9814C7.12066 53.9814 8.36694 52.7352 8.36694 51.1978C8.36694 49.6603 7.12055 48.4141 5.58325 48.4141ZM5.58325 52.1257C5.07082 52.1257 4.65536 51.7102 4.65536 51.1978C4.65536 50.6853 5.07082 50.2699 5.58325 50.2699C6.09568 50.2699 6.51115 50.6853 6.51115 51.1978C6.51115 51.7102 6.09568 52.1257 5.58325 52.1257Z" fill="black"/>
<path d="M13.0063 4.80298C11.4689 4.80298 10.2227 6.04926 10.2227 7.58667C10.2227 9.12408 11.4689 10.3704 13.0063 10.3704C14.5438 10.3704 15.79 9.12408 15.79 7.58667C15.79 6.04926 14.5436 4.80298 13.0063 4.80298ZM13.0063 8.51457C12.4939 8.51457 12.0785 8.0991 12.0785 7.58667C12.0785 7.07424 12.4939 6.65877 13.0063 6.65877C13.5188 6.65877 13.9342 7.07424 13.9342 7.58667C13.9342 8.0991 13.5188 8.51457 13.0063 8.51457Z" fill="black"/>
<path d="M2.52781 8.7864L1.21558 10.0986L3.07107 11.9541L4.38331 10.6419L2.52781 8.7864Z" fill="black"/>
<path d="M39.9154 3.875H38.0596V6.65869H39.9154V3.875Z" fill="black"/>
<path d="M27.1963 1.3635L25.3408 3.21899L26.6531 4.53123L28.5085 2.67573L27.1963 1.3635Z" fill="black"/>
<path d="M18.8457 13.4255L16.9902 15.281L18.3025 16.5932L20.158 14.7377L18.8457 13.4255Z" fill="black"/>
<path d="M50.7785 17.1377L49.4663 18.45L51.3218 20.3054L52.634 18.9932L50.7785 17.1377Z" fill="black"/>
<path d="M35.276 26.1445H33.4202V28.9282H35.276V26.1445Z" fill="black"/>
<path d="M40.187 35.6941L38.3315 37.5496L39.6438 38.8618L41.4993 37.0063L40.187 35.6941Z" fill="black"/>
<path d="M18.3022 31.0554L16.99 32.3677L18.8455 34.2232L20.1577 32.9109L18.3022 31.0554Z" fill="black"/>
<path d="M25.0692 50.2698H23.2134V53.0535H25.0692V50.2698Z" fill="black"/>
<path d="M9.94602 44.0467L8.63379 45.3589L10.4893 47.2144L11.8015 45.9022L9.94602 44.0467Z" fill="black"/>
<path d="M11.4182 52.3974L9.56274 54.2529L10.875 55.5652L12.7305 53.7097L11.4182 52.3974Z" fill="black"/>
<path d="M40.1868 51.469L38.3313 53.3245L39.6435 54.6367L41.499 52.7812L40.1868 51.469Z" fill="black"/>
</g>
<defs>
<clipPath id="clip0_34_126">
<rect width="56" height="56" fill="white"/>
</clipPath>
</defs>
</svg>
