<svg width="42" height="42" viewBox="0 0 42 42" fill="none" xmlns="http://www.w3.org/2000/svg">
<g clip-path="url(#clip0_34_123)">
<path d="M21 17.5547C19.1003 17.5547 17.5547 19.1003 17.5547 21C17.5547 22.8997 19.1003 24.4453 21 24.4453C22.8997 24.4453 24.4453 22.8997 24.4453 21C24.4453 19.1003 22.8997 17.5547 21 17.5547ZM21 22.8047C20.0049 22.8047 19.1953 21.9951 19.1953 21C19.1953 20.0049 20.0049 19.1953 21 19.1953C21.9951 19.1953 22.8047 20.0049 22.8047 21C22.8047 21.9951 21.9951 22.8047 21 22.8047Z" fill="black"/>
<path d="M34.208 13.3605C33.0515 12.204 31.4428 11.7688 29.9458 12.0543C30.2313 10.5572 29.796 8.94855 28.6395 7.79203L20.9999 0.152466L13.3603 7.79203C12.2038 8.94855 11.7686 10.5572 12.0541 12.0543C10.5571 11.7688 8.94842 12.204 7.7919 13.3605L0.152344 21.0001L7.7919 28.6397C8.71944 29.5672 9.93781 30.0309 11.1562 30.0309C11.457 30.0309 11.7577 30.0024 12.0541 29.9459C11.7686 31.4429 12.2038 33.0516 13.3603 34.2081L20.9999 41.8476L28.6395 34.2081C29.796 33.0516 30.2313 31.4429 29.9458 29.9459C30.2422 30.0024 30.5429 30.0309 30.8437 30.0309C32.0621 30.0309 33.2804 29.5672 34.208 28.6397L41.8475 21.0001L34.208 13.3605ZM14.5205 8.95216L20.9999 2.47265L27.4794 8.95216C28.6948 10.1675 28.6948 12.1451 27.4794 13.3605L25.1375 15.7024C24.8062 15.4431 24.4503 15.2143 24.0736 15.0199L25.5292 13.5617C26.7069 12.3819 26.7069 10.4622 25.5292 9.28241L20.9999 4.74517L16.4707 9.28241C15.293 10.4622 15.293 12.3819 16.4707 13.5617L17.9263 15.0199C17.5496 15.2143 17.1937 15.4431 16.8624 15.7024L14.5205 13.3605C13.3051 12.1451 13.3051 10.1675 14.5205 8.95216ZM20.9999 26.086C18.1955 26.086 15.914 23.8045 15.914 21.0001C15.914 18.1957 18.1955 15.9141 20.9999 15.9141C23.8043 15.9141 26.0859 18.1957 26.0859 21.0001C26.0859 23.8045 23.8043 26.086 20.9999 26.086ZM20.9999 27.7266C21.4664 27.7266 21.9219 27.6787 22.3619 27.5879L24.3681 29.5975C24.9078 30.1382 24.9078 31.018 24.3681 31.5586L20.9999 34.9327L17.6318 31.5586C17.0921 31.018 17.0921 30.1382 17.6318 29.5975L19.6379 27.5879C20.0779 27.6787 20.5334 27.7266 20.9999 27.7266ZM20.9999 14.2735C20.5334 14.2735 20.0779 14.3214 19.638 14.4123L17.6318 12.4026C17.0921 11.8619 17.0921 10.9822 17.6318 10.4415L20.9999 7.06744L24.3681 10.4415C24.9078 10.9822 24.9078 11.8619 24.3681 12.4026L22.3619 14.4123C21.9219 14.3214 21.4664 14.2735 20.9999 14.2735ZM8.95204 27.4795L2.47253 21.0001L8.95204 14.5206C10.1674 13.3052 12.145 13.3052 13.3603 14.5206L15.7023 16.8625C15.4429 17.1938 15.2142 17.5497 15.0197 17.9264L13.5616 16.4708C12.3818 15.2931 10.4622 15.293 9.28229 16.4708L4.74505 21.0001L9.28229 25.5293C9.87221 26.1182 10.6471 26.4126 11.4219 26.4126C12.1968 26.4126 12.9716 26.1182 13.5616 25.5293L15.0197 24.0737C15.2142 24.4504 15.4429 24.8063 15.7023 25.1376L13.3603 27.4795C12.145 28.6949 10.1674 28.6949 8.95204 27.4795ZM14.4121 22.362L12.4025 24.3682C11.8618 24.9079 10.982 24.9078 10.4414 24.3682L7.06732 21.0001L10.4414 17.6319C10.982 17.0922 11.8618 17.0923 12.4025 17.6319L14.4121 19.6381C14.3213 20.078 14.2734 20.5335 14.2734 21.0001C14.2734 21.4666 14.3213 21.922 14.4121 22.362ZM27.4794 33.048L20.9999 39.5275L14.5205 33.048C13.3051 31.8326 13.3051 29.855 14.5205 28.6397L16.8624 26.2977C17.1937 26.5571 17.5496 26.7858 17.9263 26.9802L16.4707 28.4384C15.293 29.6182 15.293 31.5379 16.4707 32.7177L20.9999 37.2549L25.5292 32.7177C26.7069 31.5379 26.7069 29.6182 25.5292 28.4384L24.0735 26.9802C24.4503 26.7858 24.8062 26.5571 25.1375 26.2977L27.4794 28.6397C28.6948 29.855 28.6948 31.8326 27.4794 33.048ZM33.0478 27.4795C31.8325 28.6949 29.8549 28.6949 28.6395 27.4795L26.2976 25.1376C26.5569 24.8063 26.7857 24.4504 26.9801 24.0737L28.4383 25.5293C29.0282 26.1182 29.8031 26.4126 30.578 26.4126C31.3528 26.4126 32.1277 26.1182 32.7176 25.5293L37.2548 21.0001L32.7176 16.4708C31.5377 15.2931 29.6181 15.2932 28.4383 16.4708L26.9801 17.9264C26.7857 17.5497 26.5569 17.1938 26.2976 16.8625L28.6395 14.5206C29.8549 13.3052 31.8325 13.3052 33.0478 14.5206L39.5273 21.0001L33.0478 27.4795ZM27.5877 19.6381L29.5974 17.6319C30.1381 17.0922 31.0178 17.0923 31.5585 17.6319L34.9326 21.0001L31.5585 24.3682C31.0178 24.9079 30.1381 24.9078 29.5974 24.3682L27.5877 22.3621C27.6786 21.9221 27.7265 21.4666 27.7265 21.0001C27.7265 20.5335 27.6786 20.0781 27.5877 19.6381Z" fill="black"/>
</g>
<defs>
<clipPath id="clip0_34_123">
<rect width="42" height="42" fill="white"/>
</clipPath>
</defs>
</svg>
