<svg width="42" height="42" viewBox="0 0 42 42" fill="none" xmlns="http://www.w3.org/2000/svg">
<g clip-path="url(#clip0_34_122)">
<path d="M39.7898 15.7375C39.3272 15.5273 39.0402 15.3877 38.971 15.1698C38.8919 14.9276 38.9806 14.7297 39.2558 14.228C39.9721 13.1295 40.1259 11.7568 39.67 10.5272C38.8304 7.95317 36.716 7.07283 33.714 8.04767C31.3994 8.80019 29.139 10.5532 27.1864 12.4939C28.4294 10.0374 29.3981 7.34513 29.3981 4.91235C29.3981 1.75332 27.9066 0.0137866 25.1989 0.0137866C23.8883 -0.0393926 22.6303 0.531802 21.8076 1.55342C21.4158 1.97308 21.2547 2.11308 21 2.11308C20.7453 2.11308 20.5845 1.96764 20.1924 1.55342C19.3697 0.531802 18.1117 -0.0393926 16.8011 0.0137866C14.0935 0.0137866 12.6022 1.75332 12.6022 4.91235C12.6022 7.34513 13.5706 10.0374 14.8136 12.4929C12.861 10.5525 10.6006 8.79923 8.28636 8.04703C5.28687 7.07155 3.16771 7.95188 2.32998 10.5266C1.87412 11.7561 2.02789 13.1288 2.7442 14.2273C3.01939 14.729 3.10813 14.927 3.02932 15.1685C2.95916 15.3832 2.67308 15.5248 2.21049 15.7369C0.83296 16.1607 -0.0771709 17.4703 0.00516056 18.909C0.00516056 22.6883 2.19639 24.027 4.03492 24.4867C5.06358 24.7341 6.11883 24.8545 7.17697 24.8449C8.26938 24.8356 9.35923 24.7382 10.4363 24.5547C8.23286 25.6381 6.29118 27.187 4.74515 29.0944C4.02531 29.9904 3.58546 31.079 3.48134 32.224C3.45059 33.5618 4.12782 34.8166 5.26316 35.5252C6.29022 36.3409 7.64405 36.6193 8.90977 36.2746C9.46975 36.1688 9.686 36.1451 9.89391 36.2951C10.1015 36.4447 10.1781 36.847 10.2681 37.4756C10.3315 38.9136 11.0373 40.247 12.1905 41.1084C12.9001 41.6652 13.7693 41.9804 14.6707 42.0076C16.0146 42.0076 17.3127 41.2013 18.4673 39.6127C19.7971 37.7847 20.5669 35.1142 21 32.2771C21.4331 35.1142 22.2045 37.7847 23.5327 39.6127C24.6873 41.2013 25.9857 42.0076 27.3293 42.0076C28.2308 41.9804 29.0999 41.6652 29.8095 41.1084C30.9628 40.247 31.6685 38.9136 31.7319 37.4756C31.8223 36.8457 31.8879 36.4536 32.1064 36.2951C32.3246 36.1362 32.5296 36.1695 33.0902 36.2746C34.356 36.6183 35.7095 36.3402 36.7372 35.5259C37.8722 34.8169 38.5494 33.5621 38.519 32.224C38.4145 31.079 37.975 29.9904 37.2549 29.0944C35.7098 27.1877 33.7694 25.6387 31.5676 24.5547C32.6443 24.7382 33.7341 24.8356 34.8266 24.8449C35.8847 24.8545 36.9399 24.7341 37.9689 24.4867C39.8036 24.027 41.9948 22.6883 41.9948 18.909C42.0772 17.4703 41.167 16.1613 39.7898 15.7375ZM22.178 23.5391C22.1225 23.5644 22.0681 23.5901 22.012 23.609C21.9153 23.6455 21.8169 23.6759 21.7166 23.7009C21.6016 23.7317 21.4847 23.755 21.3668 23.7707C21.1256 23.8201 20.8773 23.8201 20.6361 23.7707C20.5182 23.7547 20.4013 23.7313 20.2863 23.7009C20.1869 23.6759 20.0896 23.6455 19.9938 23.6099C19.9364 23.5875 19.8804 23.5615 19.8243 23.5398C19.7195 23.4907 19.618 23.4353 19.52 23.3738C19.4828 23.3508 19.445 23.3299 19.4094 23.304C19.2781 23.213 19.1548 23.1111 19.0404 22.9996C19.016 22.975 18.9959 22.9477 18.9705 22.9224C18.8889 22.8353 18.8129 22.743 18.7431 22.6463C18.7011 22.588 18.662 22.5278 18.6242 22.4663C18.5864 22.4047 18.548 22.3304 18.5128 22.2612C18.4778 22.192 18.433 22.1065 18.401 22.0248C18.3583 21.9127 18.3228 21.7977 18.2946 21.6811C18.2728 21.5949 18.2587 21.509 18.2456 21.4222C18.2321 21.3354 18.2238 21.2473 18.219 21.1582C18.2148 21.0884 18.2084 21.0182 18.2091 20.9526C18.2119 20.7966 18.2276 20.6409 18.2562 20.4871C18.2651 20.441 18.2792 20.3961 18.2904 20.3471C18.3183 20.2298 18.3542 20.1148 18.3974 20.0021C18.4163 19.9531 18.4352 19.9044 18.457 19.8566C18.5096 19.7413 18.5701 19.6298 18.638 19.5228C18.6688 19.4738 18.7005 19.4254 18.7348 19.378C18.8072 19.2777 18.886 19.1823 18.9705 19.0923C19.0266 19.0336 19.0881 18.9782 19.1496 18.9238C19.2563 18.8264 19.37 18.7373 19.4898 18.6572H19.4947C19.6891 18.5339 19.898 18.4359 20.1168 18.3654C20.1722 18.3465 20.2273 18.3282 20.285 18.3128C20.3798 18.2872 20.4759 18.2664 20.5733 18.2513C20.6278 18.2427 20.6838 18.2401 20.7389 18.2343C20.9145 18.2183 21.0913 18.2183 21.2665 18.2343C21.322 18.2401 21.378 18.2427 21.4325 18.2513C21.5296 18.2664 21.626 18.2872 21.7208 18.3128C21.7781 18.3282 21.8336 18.3465 21.889 18.3654C22.1078 18.4359 22.3167 18.5339 22.5111 18.6572H22.5195C22.6383 18.7363 22.7507 18.8248 22.8561 18.9215C22.9177 18.9763 22.9792 19.0314 23.0352 19.0903C23.1192 19.1797 23.1973 19.2745 23.2697 19.3739C23.3046 19.4219 23.3396 19.4725 23.369 19.5228C23.4363 19.6285 23.4962 19.7391 23.5481 19.8531C23.5705 19.9021 23.5894 19.9518 23.609 20.0021C23.6516 20.1136 23.6871 20.2276 23.7153 20.3436C23.7266 20.3907 23.7406 20.4362 23.7496 20.4836C23.7781 20.637 23.7938 20.7924 23.7967 20.9484C23.7967 21.0182 23.7909 21.0849 23.7874 21.1534C23.7826 21.2431 23.7733 21.3312 23.7602 21.4187C23.7467 21.5061 23.733 21.5907 23.7112 21.6769C23.683 21.7935 23.6474 21.9082 23.6048 22.0206C23.5728 22.1023 23.535 22.1786 23.4927 22.2564C23.4507 22.3339 23.4229 22.3964 23.3809 22.4663C23.3389 22.5364 23.3046 22.5873 23.2633 22.6453C23.1922 22.7434 23.115 22.8369 23.0323 22.9253C23.0099 22.9484 22.9904 22.975 22.9673 22.9955C22.852 23.1086 22.7274 23.2114 22.5944 23.3033C22.5621 23.3258 22.5243 23.3447 22.4941 23.3655C22.3926 23.4302 22.2869 23.4882 22.178 23.5391ZM16.8011 1.41342C17.725 1.36345 18.6137 1.77446 19.1743 2.51064C19.6013 3.10202 20.2718 3.46979 21 3.51271C21.7282 3.46979 22.3987 3.10202 22.826 2.51064C23.3863 1.77446 24.275 1.36345 25.1989 1.41342C26.4006 1.41342 27.9982 1.77671 27.9982 4.91235C27.9982 9.15835 24.5258 14.582 22.6796 17.1631C22.3663 17.0263 22.037 16.9289 21.7 16.8725V11.2109C21.7 10.8245 21.3867 10.5112 21 10.5112C20.6137 10.5112 20.3003 10.8245 20.3003 11.2109V16.8725C19.963 16.9289 19.634 17.0263 19.3204 17.1631C17.4742 14.582 14.0018 9.15835 14.0018 4.91235C14.0018 1.77671 15.5994 1.41342 16.8011 1.41342ZM4.37353 23.1291C2.34824 22.6229 1.4048 21.2822 1.4048 18.909C1.4048 17.6494 1.98784 17.3793 2.79418 17.009C3.49768 16.7924 4.07048 16.2779 4.36104 15.6017C4.54492 14.8959 4.40204 14.145 3.97181 13.5562C3.4445 12.7957 3.32853 11.8231 3.6617 10.9597C4.03267 9.8154 4.87169 8.40967 7.85452 9.37811C11.8932 10.6903 15.9794 15.6715 17.8621 18.2231L17.8439 18.2449C17.7695 18.3295 17.6997 18.417 17.634 18.5079C17.6129 18.5355 17.5917 18.5621 17.5722 18.5899C17.5142 18.672 17.4604 18.7565 17.4085 18.8427C17.3861 18.8795 17.3617 18.9161 17.3387 18.9545C17.3156 18.993 17.298 19.0247 17.2791 19.0637L11.8952 17.3143C11.6539 17.2227 11.382 17.2714 11.1875 17.4411C10.9927 17.6106 10.9075 17.8736 10.9652 18.1251C11.0228 18.3766 11.2144 18.5762 11.4636 18.6438L16.8479 20.3935C16.8174 20.597 16.8017 20.8026 16.8011 21.0086C16.8011 21.1486 16.8088 21.2886 16.8219 21.4241C13.5995 22.4928 8.43116 24.143 4.37353 23.1291ZM17.3358 38.7906C15.4912 41.3266 13.9858 40.6801 13.0135 39.9759C12.172 39.3317 11.6709 38.338 11.6539 37.2782C11.6549 36.4722 11.3144 35.7037 10.7169 35.1632C10.1025 34.7692 9.34353 34.6725 8.65028 34.9002C7.76418 35.1677 6.80279 34.9774 6.0852 34.3928C5.33652 33.9529 4.87777 33.1485 4.88034 32.28C4.97708 31.4122 5.32339 30.5914 5.8776 29.9168C8.37318 26.4819 14.3734 24.1347 17.3825 23.1284C17.5209 23.3629 17.6818 23.5833 17.8628 23.7868L17.9265 23.8569C17.9515 23.8835 17.9755 23.912 18.0012 23.9386L14.6743 28.5184C14.5644 28.6687 14.5192 28.8567 14.548 29.0403C14.5772 29.2242 14.6781 29.3891 14.829 29.4981C14.9792 29.6079 15.167 29.6534 15.3508 29.6243C15.5347 29.5955 15.6997 29.4942 15.8086 29.3437L19.1371 24.7626L19.1958 24.7911C19.2323 24.8087 19.2659 24.8276 19.305 24.8436C19.5613 24.9573 19.8285 25.0451 20.102 25.1053C20.0819 31.599 19.1288 36.3223 17.3358 38.7906ZM36.1227 29.9168C36.6766 30.5914 37.0229 31.4122 37.12 32.28C37.1222 33.1485 36.6635 33.9529 35.9148 34.3934C35.1969 34.9771 34.2361 35.1671 33.35 34.9002C32.6565 34.6731 31.8979 34.7698 31.2834 35.1632C30.6856 35.7037 30.3451 36.4722 30.3464 37.2782C30.3284 38.3373 29.8277 39.3301 28.9865 39.974C28.0145 40.6801 26.5085 41.3253 24.6642 38.7884C22.8715 36.32 21.9181 31.597 21.8992 25.106C22.1725 25.0458 22.439 24.9583 22.695 24.8449C22.7341 24.8276 22.7719 24.8081 22.8107 24.7898L22.8645 24.7632L26.1927 29.3443C26.3371 29.5532 26.5835 29.6675 26.8366 29.6429C27.0893 29.6182 27.3088 29.4587 27.4103 29.2254C27.5116 28.9925 27.4789 28.7231 27.3245 28.5213L23.9976 23.9415C24.0232 23.9155 24.0463 23.887 24.0716 23.8604L24.1366 23.7903C24.3173 23.5869 24.4778 23.3661 24.6162 23.132C27.6269 24.1347 33.6272 26.4819 36.1227 29.9168ZM37.6265 23.1284C33.5676 24.1417 28.4009 22.4916 25.1781 21.4235C25.1912 21.2835 25.1989 21.1477 25.1989 21.008C25.1973 20.8026 25.181 20.5983 25.1493 20.3955L30.5338 18.646C30.7827 18.5781 30.9743 18.3788 31.0323 18.1273C31.0899 17.8759 31.0044 17.6129 30.8099 17.4431C30.6155 17.2736 30.3435 17.2249 30.102 17.3162L24.7184 19.0657C24.6995 19.0288 24.679 18.9923 24.6588 18.9561C24.6386 18.9196 24.6139 18.8824 24.5886 18.8453C24.5364 18.7594 24.4823 18.6739 24.4243 18.5922C24.4047 18.564 24.3836 18.5374 24.3628 18.5102C24.2926 18.4192 24.2228 18.3317 24.1526 18.2472L24.1347 18.2254C26.0193 15.6737 30.1055 10.6925 34.1423 9.38035C37.1242 8.4116 37.9632 9.81764 38.3348 10.9619C38.6683 11.8253 38.552 12.7976 38.0247 13.5581C37.5944 14.1472 37.4516 14.8985 37.6358 15.6045C37.9263 16.2805 38.4991 16.7947 39.2026 17.0112C40.0122 17.3793 40.5952 17.6494 40.5952 18.909C40.5952 21.2822 39.6518 22.6229 37.6265 23.1291V23.1284Z" fill="black"/>
</g>
<defs>
<clipPath id="clip0_34_122">
<rect width="42" height="42" fill="white"/>
</clipPath>
</defs>
</svg>
