<svg width="80" height="80" viewBox="0 0 80 80" fill="none" xmlns="http://www.w3.org/2000/svg">
<g clip-path="url(#clip0_69_370)">
<path d="M67.5268 59.5453L64.0228 58.6226L62.0134 55.716C61.7872 55.392 61.4861 55.1273 61.1357 54.9446C60.7853 54.7619 60.396 54.6665 60.0008 54.6665C59.6056 54.6665 59.2163 54.7619 58.8658 54.9446C58.5154 55.1273 58.2143 55.392 57.9881 55.716L55.9774 58.6226L52.4748 59.5453C52.0797 59.6466 51.7169 59.8465 51.4202 60.1264C51.1236 60.4062 50.9028 60.7568 50.7788 61.1453C50.6566 61.5266 50.6333 61.9326 50.7109 62.3253C50.7886 62.718 50.9647 63.0846 51.2228 63.3906L53.4561 66.0653L53.2948 69.4893C53.2775 69.8816 53.3571 70.2721 53.5266 70.6263C53.6962 70.9805 53.9504 71.2874 54.2668 71.52C54.5922 71.7598 54.9716 71.9158 55.3716 71.9741C55.7716 72.0325 56.1798 71.9915 56.5601 71.8546L60.0001 70.6226L63.4388 71.8546C63.8192 71.9925 64.2278 72.0341 64.6282 71.9757C65.0285 71.9173 65.4083 71.7608 65.7334 71.52C66.0501 71.2871 66.3045 70.9797 66.4741 70.625C66.6436 70.2704 66.7231 69.8794 66.7054 69.4867L66.5441 66.064L68.7761 63.3906C69.0346 63.0846 69.2111 62.7178 69.289 62.3248C69.3669 61.9319 69.3437 61.5255 69.2214 61.144C69.0973 60.7559 68.8767 60.4057 68.5803 60.1261C68.2839 59.8465 67.9214 59.6466 67.5268 59.5453ZM64.1641 64.7533C63.9502 65.0097 63.8403 65.3371 63.8561 65.6706L64.0241 69.2306L60.4494 67.9507C60.1589 67.8467 59.8413 67.8467 59.5508 67.9507L55.9761 69.2306L56.1441 65.6706C56.1599 65.3371 56.05 65.0097 55.8361 64.7533L53.5521 62.02L57.1348 61.076C57.4424 60.9941 57.7105 60.805 57.8908 60.5426L60.0001 57.4946L62.1094 60.544C62.2897 60.8063 62.5579 60.9955 62.8654 61.0773L66.4481 62.0213L64.1641 64.7533Z" fill="black"/>
<path d="M74.6667 40H73.3333V38.6667C73.3333 38.313 73.1929 37.9739 72.9428 37.7239C72.6928 37.4738 72.3536 37.3333 72 37.3333C71.6464 37.3333 71.3072 37.4738 71.0572 37.7239C70.8071 37.9739 70.6667 38.313 70.6667 38.6667V40H49.3333V38.6667C49.3333 38.313 49.1929 37.9739 48.9428 37.7239C48.6928 37.4738 48.3536 37.3333 48 37.3333C47.6464 37.3333 47.3072 37.4738 47.0572 37.7239C46.8071 37.9739 46.6667 38.313 46.6667 38.6667V40H45.3333C43.9188 40 42.5623 40.5619 41.5621 41.5621C40.5619 42.5623 40 43.9188 40 45.3333V48.0667C39.5547 48.0267 39.1093 48 38.6667 48H38C37.0893 46.9851 35.9453 46.2071 34.6667 45.7333V43.3027C36.7629 42.0081 38.4484 40.1446 39.5267 37.9293C40.4564 36.0204 41.0432 33.9629 41.26 31.8507C42.4209 31.5665 43.453 30.9014 44.1914 29.9617C44.9297 29.0219 45.3318 27.8618 45.3333 26.6667V21.4773V13.3333C45.3312 11.5659 44.6282 9.87141 43.3784 8.62163C42.1286 7.37184 40.4341 6.66878 38.6667 6.66667H37.44L39.4293 4.18C39.7323 3.80173 39.9223 3.34554 39.9773 2.864C40.0324 2.38246 39.9502 1.89517 39.7403 1.45829C39.5305 1.02142 39.2014 0.652728 38.7911 0.394719C38.3809 0.13671 37.906 -0.000119324 37.4213 7.80791e-08H21.3333C17.7983 0.00388221 14.4092 1.40989 11.9095 3.90953C9.40989 6.40917 8.00388 9.79831 8 13.3333V21.476V26.6667C8.0022 27.8635 8.40579 29.025 9.14621 29.9653C9.88663 30.9057 10.9211 31.5705 12.084 31.8533C12.364 34.3573 13.5787 40.1867 18.6667 43.2933V45.7333C17.3881 46.2071 16.244 46.9851 15.3333 48H14.6667C10.7782 48.0046 7.05037 49.5513 4.30083 52.3008C1.55129 55.0504 0.00458729 58.7782 0 62.6667L0 72C0 73.0609 0.421427 74.0783 1.17157 74.8284C1.92172 75.5786 2.93913 76 4 76H40.1893C40.4841 77.1415 41.1487 78.1532 42.0794 78.8769C43.0101 79.6006 44.1544 79.9956 45.3333 80H74.6667C76.0812 80 77.4377 79.4381 78.4379 78.4379C79.4381 77.4377 80 76.0812 80 74.6667V45.3333C80 43.9188 79.4381 42.5623 78.4379 41.5621C77.4377 40.5619 76.0812 40 74.6667 40ZM45.3333 42.6667H46.6667V44C46.6667 44.3536 46.8071 44.6928 47.0572 44.9428C47.3072 45.1929 47.6464 45.3333 48 45.3333C48.3536 45.3333 48.6928 45.1929 48.9428 44.9428C49.1929 44.6928 49.3333 44.3536 49.3333 44V42.6667H70.6667V44C70.6667 44.3536 70.8071 44.6928 71.0572 44.9428C71.3072 45.1929 71.6464 45.3333 72 45.3333C72.3536 45.3333 72.6928 45.1929 72.9428 44.9428C73.1929 44.6928 73.3333 44.3536 73.3333 44V42.6667H74.6667C75.3739 42.6667 76.0522 42.9476 76.5523 43.4477C77.0524 43.9478 77.3333 44.6261 77.3333 45.3333V48H42.6667V45.3333C42.6667 44.6261 42.9476 43.9478 43.4477 43.4477C43.9478 42.9476 44.6261 42.6667 45.3333 42.6667ZM35.972 49.704C35.7133 51.3973 33.7333 52.5107 32.536 53.0373C31.9822 52.343 31.331 51.7323 30.6027 51.224C31.9793 50.6114 33.1405 49.5997 33.936 48.32C34.7093 48.624 35.4049 49.0968 35.972 49.704ZM21.3333 2.66667H37.2253L34.0253 6.66667H29.3333C28.9797 6.66667 28.6406 6.80714 28.3905 7.05719C28.1405 7.30724 28 7.64638 28 8C28 8.35362 28.1405 8.69276 28.3905 8.94281C28.6406 9.19286 28.9797 9.33333 29.3333 9.33333H38.6667C39.7275 9.33333 40.7449 9.75476 41.4951 10.5049C42.2452 11.2551 42.6667 12.2725 42.6667 13.3333V17.5707C42.4448 17.4895 42.2158 17.4292 41.9827 17.3907C40.9412 17.217 39.8734 17.4635 39.0133 18.076C38.5744 17.4211 38.0061 16.8629 37.3434 16.4357C36.6808 16.0085 35.9377 15.7214 35.16 15.592C32.6678 15.163 30.3183 14.1313 28.316 12.5867C27.8469 12.2066 27.2608 12.0003 26.657 12.0027C26.0532 12.0051 25.4687 12.2161 25.0027 12.6C23.0073 14.1355 20.6678 15.1615 18.1867 15.5893C16.8329 15.8173 15.6042 16.5191 14.72 17.5693C14.5799 17.7334 14.4486 17.9047 14.3267 18.0827C13.4613 17.4695 12.3896 17.221 11.3427 17.3907C11.1124 17.4296 10.8861 17.4894 10.6667 17.5693V13.3333C10.6698 10.5053 11.7947 7.79407 13.7944 5.79437C15.7941 3.79467 18.5053 2.66984 21.3333 2.66667ZM14.6667 30.6667C14.6667 30.313 14.5262 29.9739 14.2761 29.7239C14.0261 29.4738 13.687 29.3333 13.3333 29.3333C12.6261 29.3333 11.9478 29.0524 11.4477 28.5523C10.9476 28.0522 10.6667 27.3739 10.6667 26.6667V21.48C10.6555 21.1476 10.759 20.8216 10.9598 20.5565C11.1606 20.2914 11.4464 20.1034 11.7693 20.024C11.8455 20.0102 11.9226 20.0022 12 20C12.1754 19.9988 12.3494 20.0324 12.5117 20.099C12.674 20.1655 12.8215 20.2637 12.9456 20.3878C13.0696 20.5118 13.1678 20.6593 13.2344 20.8216C13.3009 20.984 13.3346 21.1579 13.3333 21.3333C13.3333 21.687 13.4738 22.0261 13.7239 22.2761C13.9739 22.5262 14.313 22.6667 14.6667 22.6667C15.0203 22.6667 15.3594 22.5262 15.6095 22.2761C15.8595 22.0261 16 21.687 16 21.3333C15.9978 20.5884 16.2638 19.8676 16.7493 19.3027C17.2265 18.7301 17.8921 18.3462 18.6267 18.22C21.555 17.7358 24.3098 16.5072 26.6267 14.652C28.9809 16.4966 31.7589 17.7235 34.708 18.2213C35.444 18.3436 36.1123 18.7239 36.5934 19.2942C37.0745 19.8644 37.3368 20.5873 37.3333 21.3333C37.3333 21.687 37.4738 22.0261 37.7239 22.2761C37.9739 22.5262 38.313 22.6667 38.6667 22.6667C39.0203 22.6667 39.3594 22.5262 39.6095 22.2761C39.8595 22.0261 40 21.687 40 21.3333C40.0007 21.1396 40.0436 20.9483 40.1258 20.7728C40.2079 20.5973 40.3274 20.4419 40.4757 20.3172C40.6241 20.1926 40.7978 20.1018 40.9848 20.0512C41.1719 20.0005 41.3677 19.9913 41.5587 20.024C41.8827 20.1021 42.1699 20.2896 42.3718 20.5548C42.5736 20.8201 42.6778 21.1469 42.6667 21.48V26.6667C42.6667 27.3739 42.3857 28.0522 41.8856 28.5523C41.3855 29.0524 40.7072 29.3333 40 29.3333C39.6464 29.3333 39.3072 29.4738 39.0572 29.7239C38.8071 29.9739 38.6667 30.313 38.6667 30.6667C38.5794 32.7743 38.0597 34.8416 37.14 36.74C35.1733 40.6667 31.6493 42.6667 26.6667 42.6667C14.8547 42.6667 14.6667 31.1533 14.6667 30.6667ZM26.6667 45.3333C28.4765 45.3534 30.2776 45.0801 32 44.524V46.276C31.944 46.4387 30.8773 49.3333 26.6667 49.3333C22.456 49.3333 21.3907 46.44 21.3333 46.2747V44.52C23.0556 45.0769 24.8567 45.3516 26.6667 45.3333ZM19.396 48.3173C20.1915 49.5971 21.3527 50.6087 22.7293 51.2213C22.001 51.7296 21.3499 52.3404 20.796 53.0347C19.596 52.5093 17.6187 51.3973 17.36 49.7013C17.9271 49.0941 18.6227 48.6213 19.396 48.3173ZM2.66667 72V62.6667C2.6702 59.4852 3.93561 56.435 6.18528 54.1853C8.43496 51.9356 11.4852 50.6702 14.6667 50.6667H14.852C15.8387 54.4 20.7293 55.8787 20.96 55.9467C21.2599 56.0343 21.581 56.0138 21.8674 55.8888C22.1537 55.7638 22.387 55.5422 22.5267 55.2627C23.5362 53.7936 24.9857 52.6825 26.6667 52.0893C28.3467 52.681 29.7945 53.7925 30.8 55.2627C30.9396 55.5422 31.173 55.7638 31.4593 55.8888C31.7456 56.0138 32.0668 56.0343 32.3667 55.9467C32.5973 55.8787 37.488 54.396 38.4747 50.6667H38.6667C39.1122 50.6689 39.5574 50.6956 40 50.7467V73.3333H4C3.64638 73.3333 3.30724 73.1929 3.05719 72.9428C2.80714 72.6928 2.66667 72.3536 2.66667 72ZM74.6667 77.3333H45.3333C44.6261 77.3333 43.9478 77.0524 43.4477 76.5523C42.9476 76.0522 42.6667 75.3739 42.6667 74.6667V50.6667H77.3333V74.6667C77.3333 75.3739 77.0524 76.0522 76.5523 76.5523C76.0522 77.0524 75.3739 77.3333 74.6667 77.3333Z" fill="black"/>
</g>
<defs>
<clipPath id="clip0_69_370">
<rect width="80" height="80" fill="white"/>
</clipPath>
</defs>
</svg>
