<svg width="20" height="20" viewBox="0 0 20 20" fill="none" xmlns="http://www.w3.org/2000/svg">
<g clip-path="url(#clip0_951_2877)">
<path d="M10.0082 6.475C10.8498 5.63333 12.2248 5.625 13.0748 6.475L13.9415 7.34167C14.1332 7.53333 14.4582 7.53333 14.6498 7.34167L19.6082 2.38333C18.9415 0.975 17.4998 0 15.8415 0H8.33317C6.03317 0 4.1665 1.86667 4.1665 4.16667V9.16667C4.1665 10.0583 4.44984 10.8833 4.92484 11.5583L10.0082 6.475ZM7.9165 2.5C8.60817 2.5 9.1665 3.05833 9.1665 3.75C9.1665 4.44167 8.60817 5 7.9165 5C7.22484 5 6.6665 4.44167 6.6665 3.75C6.6665 3.05833 7.22484 2.5 7.9165 2.5ZM10.2748 19.85L3.04984 17.8417C0.833169 17.225 -0.466831 14.925 0.149836 12.7083L1.4915 7.89167C1.68317 7.20833 2.03317 6.60833 2.49984 6.125V9.175C2.49984 12.4 5.10817 15.0083 8.33317 15.0083H15.9498L15.4082 16.9583C14.7915 19.175 12.4915 20.475 10.2748 19.8583V19.85ZM19.9998 4.34167V9.16667C19.9998 11.4667 18.1332 13.3333 15.8332 13.3333H8.33317C7.52484 13.3333 6.77484 13.1 6.13317 12.7083L11.1832 7.65833C11.3748 7.46667 11.6998 7.46667 11.8915 7.65833L12.7582 8.525C13.5748 9.34167 14.9998 9.34167 15.8165 8.525L19.9998 4.34167Z" fill="#CFAC28"/>
</g>
<defs>
<clipPath id="clip0_951_2877">
<rect width="20" height="20" fill="white"/>
</clipPath>
</defs>
</svg>
