<svg width="20" height="20" viewBox="0 0 20 20" fill="none" xmlns="http://www.w3.org/2000/svg">
<g clip-path="url(#clip0_951_5920)">
<path d="M7.49996 4.16667C7.49996 3.70833 7.87496 3.33333 8.3333 3.33333C8.79163 3.33333 9.16663 3.70833 9.16663 4.16667C9.16663 4.625 8.79163 5 8.3333 5C7.87496 5 7.49996 4.625 7.49996 4.16667ZM20 3.75V9.58333C20 11.65 18.3166 13.3333 16.25 13.3333H7.91663C5.84996 13.3333 4.16663 11.65 4.16663 9.58333V3.75C4.16663 1.68333 5.84996 0 7.91663 0H16.25C18.3166 0 20 1.68333 20 3.75ZM5.7333 11.5167L10.875 6.375C11.5583 5.69167 12.6666 5.69167 13.35 6.375L14.2166 7.24167C14.5666 7.58333 15.1666 7.59167 15.5083 7.24167L19.1666 3.58333C19.0833 2.05 17.8083 0.833333 16.2583 0.833333H7.91663C6.3083 0.833333 4.99996 2.14167 4.99996 3.75V9.58333C4.99996 10.325 5.27496 11 5.7333 11.5167ZM19.1666 9.58333V4.75833L16.0916 7.83333C15.4333 8.49167 14.275 8.49167 13.6166 7.83333L12.75 6.96667C12.3916 6.60833 11.8083 6.60833 11.4583 6.96667L6.36663 12.0583C6.81663 12.3417 7.34996 12.5083 7.91663 12.5083H16.25C17.8583 12.5083 19.1666 11.2 19.1666 9.59167V9.58333ZM15.5333 15.025C15.3083 14.9667 15.0833 15.1 15.025 15.325L14.5916 17.025C14.1666 18.575 12.5583 19.4917 11.0083 19.0667L2.9833 16.8917C1.4333 16.4667 0.516628 14.8583 0.941628 13.3083L2.47496 7.61667C2.5333 7.39167 2.39996 7.16667 2.1833 7.10833C1.96663 7.05 1.7333 7.175 1.67496 7.4L0.133295 13.0833C-0.133372 14.05 -0.00837174 15.0583 0.491628 15.9333C0.991628 16.8083 1.79163 17.425 2.7583 17.6917L10.7833 19.8667C11.1166 19.9583 11.45 20 11.775 20C13.425 20 14.9333 18.9083 15.3916 17.2333L15.8333 15.5333C15.8916 15.3083 15.7583 15.0833 15.5333 15.025Z" fill="white"/>
</g>
<defs>
<clipPath id="clip0_951_5920">
<rect width="20" height="20" fill="white"/>
</clipPath>
</defs>
</svg>
