<svg width="20" height="20" viewBox="0 0 20 20" fill="none" xmlns="http://www.w3.org/2000/svg">
<rect x="1.66663" y="1.66663" width="16.6667" height="16.6667" rx="8.33333" fill="#CFAC28"/>
<g clip-path="url(#clip0_951_5901)">
<path d="M9.99999 5.37036C8.86014 5.37117 7.76084 5.79344 6.91357 6.55593V5.75616C6.91357 5.65384 6.87292 5.55571 6.80057 5.48336C6.72822 5.41101 6.63009 5.37036 6.52777 5.37036C6.42545 5.37036 6.32732 5.41101 6.25497 5.48336C6.18261 5.55571 6.14197 5.65384 6.14197 5.75616V6.91357C6.14197 7.22054 6.26391 7.51493 6.48096 7.73198C6.69802 7.94904 6.99241 8.07098 7.29937 8.07098H8.45678C8.5591 8.07098 8.65723 8.03033 8.72959 7.95798C8.80194 7.88563 8.84258 7.7875 8.84258 7.68518C8.84258 7.58286 8.80194 7.48473 8.72959 7.41237C8.65723 7.34002 8.5591 7.29937 8.45678 7.29937H7.29937C7.28636 7.29745 7.27348 7.29474 7.26079 7.29127C7.88947 6.6581 8.7184 6.26275 9.60611 6.1727C10.4938 6.08265 11.3853 6.30348 12.1283 6.79751C12.8713 7.29153 13.4198 8.02811 13.6802 8.88153C13.9406 9.73495 13.8968 10.6523 13.5562 11.477C13.2155 12.3017 12.5992 12.9826 11.8125 13.4034C11.0257 13.8243 10.1173 13.9591 9.2422 13.7848C8.36714 13.6105 7.57969 13.1379 7.01429 12.4476C6.44888 11.7573 6.14057 10.8923 6.14197 9.99999C6.14197 9.89767 6.10132 9.79954 6.02897 9.72719C5.95662 9.65484 5.85849 9.61419 5.75616 9.61419C5.65384 9.61419 5.55571 9.65484 5.48336 9.72719C5.41101 9.79954 5.37036 9.89767 5.37036 9.99999C5.37036 10.9156 5.64188 11.8107 6.15059 12.5721C6.65931 13.3334 7.38235 13.9268 8.22831 14.2772C9.07426 14.6276 10.0051 14.7193 10.9032 14.5407C11.8012 14.362 12.6262 13.9211 13.2736 13.2736C13.9211 12.6262 14.362 11.8012 14.5407 10.9032C14.7193 10.0051 14.6276 9.07426 14.2772 8.22831C13.9268 7.38235 13.3334 6.65931 12.5721 6.15059C11.8107 5.64188 10.9156 5.37036 9.99999 5.37036Z" fill="white"/>
<path d="M9.99994 7.68518C9.89762 7.68518 9.79949 7.72583 9.72713 7.79818C9.65478 7.87053 9.61414 7.96866 9.61414 8.07098V10C9.61416 10.1023 9.65482 10.2004 9.72718 10.2728L10.8846 11.4302C10.9573 11.5004 11.0548 11.5393 11.156 11.5385C11.2571 11.5376 11.3539 11.497 11.4254 11.4255C11.4969 11.3539 11.5375 11.2572 11.5384 11.156C11.5393 11.0549 11.5004 10.9574 11.4301 10.8846L10.3857 9.84027V8.07098C10.3857 7.96866 10.3451 7.87053 10.2727 7.79818C10.2004 7.72583 10.1023 7.68518 9.99994 7.68518Z" fill="white"/>
</g>
<defs>
<clipPath id="clip0_951_5901">
<rect width="9.25926" height="9.25926" fill="white" transform="translate(5.37036 5.37036)"/>
</clipPath>
</defs>
</svg>
