<svg width="20" height="20" viewBox="0 0 20 20" fill="none" xmlns="http://www.w3.org/2000/svg">
<g clip-path="url(#clip0_951_187)">
<path d="M10.1697 0C9.67607 0 9.19988 0.182501 8.83269 0.512406L1.4975 7.10341C1.0734 7.4835 0.833336 8.02364 0.833336 8.59045V17.9995C0.833336 18.5301 1.0441 19.0389 1.41927 19.4141C1.79444 19.7892 2.30327 20 2.83384 20H6.16802C6.69859 20 7.20742 19.7892 7.58259 19.4141C7.95776 19.0389 8.16852 18.5301 8.16852 17.9995V13.3316C8.16852 13.1548 8.23878 12.9852 8.36383 12.8601C8.48889 12.7351 8.6585 12.6648 8.83536 12.6648H11.5027C11.6796 12.6648 11.8492 12.7351 11.9742 12.8601C12.0993 12.9852 12.1695 13.1548 12.1695 13.3316V17.9995C12.1695 18.5301 12.3803 19.0389 12.7555 19.4141C13.1306 19.7892 13.6395 20 14.17 20H17.5042C18.0348 20 18.5436 19.7892 18.9188 19.4141C19.294 19.0389 19.5047 18.5301 19.5047 17.9995V8.59045C19.5047 8.30997 19.4456 8.03263 19.3314 7.77645C19.2172 7.52026 19.0504 7.29095 18.8419 7.10341L11.5067 0.512406C11.1395 0.182501 10.6633 0 10.1697 0Z" fill="#CFAC28"/>
</g>
<defs>
<clipPath id="clip0_951_187">
<rect width="20" height="20" fill="white"/>
</clipPath>
</defs>
</svg>
