<svg width="20" height="20" viewBox="0 0 20 20" fill="none" xmlns="http://www.w3.org/2000/svg">
<path d="M16.5725 10.4425L17.7025 11.4488C17.9112 11.6229 18.0506 11.866 18.0955 12.134C18.1405 12.4021 18.088 12.6773 17.9475 12.91L16.585 15.2375C16.4793 15.4157 16.3284 15.5627 16.1475 15.6638C15.9645 15.765 15.7591 15.8187 15.55 15.82C15.4203 15.8208 15.2912 15.8014 15.1675 15.7625L13.7213 15.285C13.4679 15.4475 13.2046 15.5929 12.9313 15.7213L12.6275 17.1875C12.5713 17.4572 12.4211 17.6982 12.2038 17.8675C11.9836 18.0398 11.7107 18.1308 11.4313 18.125H8.61001C8.33052 18.1308 8.05762 18.0398 7.8375 17.8675C7.6206 17.698 7.47089 17.4571 7.415 17.1875L7.11001 15.7213C6.84026 15.5912 6.57854 15.4451 6.32625 15.2838L4.87501 15.7625C4.75126 15.8014 4.62222 15.8208 4.49251 15.82C4.28383 15.8185 4.07885 15.7648 3.89626 15.6638C3.71555 15.5631 3.56464 15.4165 3.45876 15.2388L2.04751 12.91C1.90079 12.6752 1.84473 12.395 1.88983 12.1219C1.93494 11.8487 2.0781 11.6014 2.29251 11.4263L3.42126 10V9.55752L2.29126 8.55127C2.08258 8.37713 1.94316 8.13404 1.89822 7.866C1.85327 7.59796 1.90579 7.32269 2.04626 7.09002L3.45751 4.76252C3.56321 4.58435 3.71415 4.4373 3.89501 4.33627C4.0776 4.23523 4.28258 4.18151 4.49126 4.18002C4.6198 4.17191 4.74882 4.18371 4.87376 4.21502L6.29626 4.71502C6.55042 4.55252 6.81376 4.4071 7.08626 4.27877L7.39125 2.81252C7.44714 2.54298 7.59685 2.30201 7.81375 2.13252C8.03387 1.9602 8.30677 1.86923 8.58625 1.87502H11.3838C11.6632 1.86923 11.9361 1.9602 12.1563 2.13252C12.375 2.30377 12.525 2.54502 12.5788 2.81252L12.8838 4.27877C13.1546 4.40793 13.4158 4.55377 13.6675 4.71627L15.12 4.23877C15.2812 4.18632 15.4515 4.16791 15.6202 4.1847C15.7889 4.20148 15.9523 4.25309 16.1 4.33627C16.2813 4.43877 16.4313 4.58627 16.5375 4.76127L17.9475 7.09002C18.0962 7.32279 18.1551 7.60172 18.1132 7.87474C18.0714 8.14777 17.9316 8.39623 17.72 8.57377L16.5725 9.55126V10.4425Z" stroke="white" stroke-width="1.5"/>
<path d="M13.125 10C13.125 10.8288 12.7958 11.6237 12.2097 12.2097C11.6237 12.7958 10.8288 13.125 10 13.125C9.1712 13.125 8.37634 12.7958 7.79029 12.2097C7.20424 11.6237 6.875 10.8288 6.875 10C6.875 9.1712 7.20424 8.37634 7.79029 7.79029C8.37634 7.20424 9.1712 6.875 10 6.875C10.8288 6.875 11.6237 7.20424 12.2097 7.79029C12.7958 8.37634 13.125 9.1712 13.125 10Z" stroke="white" stroke-width="1.5"/>
</svg>
