<svg width="20" height="20" viewBox="0 0 20 20" fill="none" xmlns="http://www.w3.org/2000/svg">
<g clip-path="url(#clip0_951_5910)">
<path d="M3.33337 1.66663V6.66663H1.66671V1.66663H3.33337ZM1.66671 18.3333V13.3333H3.33337V18.3333H1.66671ZM4.16671 9.99996C4.16671 10.925 3.42504 11.6666 2.50004 11.6666C2.17041 11.6666 1.84817 11.5689 1.57409 11.3857C1.30001 11.2026 1.08639 10.9423 0.960242 10.6378C0.834096 10.3332 0.801091 9.99811 0.865399 9.67481C0.929708 9.35151 1.08844 9.05454 1.32153 8.82145C1.55462 8.58836 1.85159 8.42963 2.17489 8.36532C2.49819 8.30101 2.8333 8.33401 3.13785 8.46016C3.44239 8.58631 3.70269 8.79993 3.88582 9.07401C4.06896 9.34809 4.16671 9.67032 4.16671 9.99996ZM13.3334 3.33329C17.0167 3.33329 20 6.31663 20 9.99996C20 13.6833 17.0167 16.6666 13.3334 16.6666C10.3334 16.6666 7.80004 14.6833 6.95838 11.9583L5.00004 9.99996L6.95838 8.04163C7.80004 5.31663 10.3334 3.33329 13.3334 3.33329ZM13.3334 4.99996C10.575 4.99996 8.33337 7.24163 8.33337 9.99996C8.33337 12.7583 10.575 15 13.3334 15C16.0917 15 18.3334 12.7583 18.3334 9.99996C18.3334 7.24163 16.0917 4.99996 13.3334 4.99996ZM12.5 10.8333V6.66663H13.75V10.1666L16.25 11.6666L15.5667 12.7166L12.5 10.8333Z" fill="white"/>
</g>
<defs>
<clipPath id="clip0_951_5910">
<rect width="20" height="20" fill="white"/>
</clipPath>
</defs>
</svg>
