<svg width="71" height="70" viewBox="0 0 71 70" fill="none" xmlns="http://www.w3.org/2000/svg">
<g clip-path="url(#clip0_668_14511)">
<path d="M70.5 49.3937C70.5 49.2333 67.3908 39.9554 67.3908 39.9554C66.3846 36.9921 63.6108 35 60.4842 35H42.6021C39.4754 35 36.7017 36.9921 35.6954 39.9554C35.6954 39.9554 32.5863 49.2333 32.5863 49.3908C32.5863 51.5725 33.7617 53.4683 35.5029 54.5242V62.7054C35.5029 66.7246 38.7725 69.9971 42.7946 69.9971H60.2946C64.3167 69.9971 67.5863 66.7246 67.5863 62.7054V54.5242C69.3275 53.4654 70.5029 51.5696 70.5029 49.3908L70.5 49.3937ZM38.4575 40.8917C39.0613 39.1125 40.7238 37.9167 42.6021 37.9167H44.25V42.2917C44.25 43.0967 44.9033 43.75 45.7083 43.75C46.5133 43.75 47.1667 43.0967 47.1667 42.2917V37.9167H55.9167V42.2917C55.9167 43.0967 56.57 43.75 57.375 43.75C58.18 43.75 58.8333 43.0967 58.8333 42.2917V37.9167H60.4813C62.3596 37.9167 64.0221 39.1125 64.6258 40.8917L67.5746 49.6125C67.4638 51.2254 66.1162 52.5029 64.4771 52.5029H61.9425C60.1721 52.5029 58.8363 51.2487 58.8363 49.5863C58.8363 48.7812 58.1829 48.1279 57.3779 48.1279C56.5729 48.1279 55.9196 48.7812 55.9196 49.5863C55.9196 51.2487 54.5838 52.5029 52.8133 52.5029H50.2788C48.5083 52.5029 47.1725 51.2487 47.1725 49.5863C47.1725 48.7812 46.5192 48.1279 45.7142 48.1279C44.9092 48.1279 44.2558 48.7812 44.2558 49.5863C44.2558 51.1933 42.9492 52.5029 41.3392 52.5029H38.6121C36.9729 52.5029 35.6254 51.2254 35.5146 49.6125L38.4633 40.8946L38.4575 40.8917ZM64.6667 62.7083C64.6667 65.1204 62.7038 67.0833 60.2917 67.0833H42.7917C40.3796 67.0833 38.4167 65.1204 38.4167 62.7083V55.3963C38.4808 55.3963 38.5421 55.4167 38.6063 55.4167H41.3333C43.0863 55.4167 44.6437 54.6233 45.7142 53.3954C46.8108 54.6292 48.4238 55.4167 50.2758 55.4167H52.8104C54.6654 55.4167 56.2783 54.6263 57.375 53.3896C58.4717 54.6292 60.0846 55.4167 61.9396 55.4167H64.4742C64.5383 55.4167 64.5996 55.3992 64.6637 55.3963L64.6667 62.7083ZM23.8333 35C33.4846 35 41.3333 27.1513 41.3333 17.5C41.3333 7.84875 33.4846 0 23.8333 0C14.1821 0 6.33333 7.84875 6.33333 17.5C6.33333 27.1513 14.1821 35 23.8333 35ZM23.8333 2.91667C31.8746 2.91667 38.4167 9.45875 38.4167 17.5C38.4167 25.5413 31.8746 32.0833 23.8333 32.0833C15.7921 32.0833 9.25 25.5413 9.25 17.5C9.25 9.45875 15.7921 2.91667 23.8333 2.91667ZM29.6375 43.0179C29.4771 43.8083 28.71 44.3188 27.9167 44.1583C26.5808 43.8871 25.2042 43.75 23.8333 43.75C12.5779 43.75 3.41667 52.9083 3.41667 64.1667V68.5417C3.41667 69.3467 2.76333 70 1.95833 70C1.15333 70 0.5 69.3467 0.5 68.5417V64.1667C0.5 51.3013 10.9679 40.8333 23.8333 40.8333C25.4025 40.8333 26.9717 40.9908 28.5 41.3C29.2904 41.4604 29.7979 42.2304 29.6404 43.0179H29.6375Z" fill="black"/>
</g>
<defs>
<clipPath id="clip0_668_14511">
<rect width="70" height="70" fill="white" transform="translate(0.5)"/>
</clipPath>
</defs>
</svg>
